<?xml version="1.0" standalone="no"?>
<!DOCTYPE svg PUBLIC "-//W3C//DTD SVG 1.1//EN" "http://www.w3.org/Graphics/SVG/1.1/DTD/svg11.dtd" >
<svg xmlns="http://www.w3.org/2000/svg">
<metadata></metadata>
<defs>
<font id="pt_sansbold" horiz-adv-x="589" >
<font-face units-per-em="1000" ascent="800" descent="-200" />
<missing-glyph horiz-adv-x="263" />
<glyph horiz-adv-x="0" />
<glyph unicode="&#xd;" horiz-adv-x="263" />
<glyph unicode=" "  horiz-adv-x="263" />
<glyph unicode="&#x09;" horiz-adv-x="263" />
<glyph unicode="&#xa0;" horiz-adv-x="263" />
<glyph unicode="!" horiz-adv-x="305" d="M104 728h139v-342l-27 -170h-85l-27 170v342zM89 69q0 36 23 57.5t61 21.5q39 0 62 -21.5t23 -57.5q0 -37 -23 -58.5t-62 -21.5q-38 0 -61 21.5t-23 58.5z" />
<glyph unicode="&#x22;" horiz-adv-x="418" d="M94 728h118l-37 -225h-81v225zM248 728h118l-37 -225h-81v225z" />
<glyph unicode="#" d="M301 213h-93l-37 -160h-112l38 160h-77l23 101h78l26 110h-75l23 101h76l36 150h110l-35 -150h92l37 150h110l-35 -150h75l-26 -101h-73l-26 -110h72l-25 -101h-71l-38 -160h-111zM232 314h92l26 110h-92z" />
<glyph unicode="$" d="M248 -14q-60 3 -104.5 13t-69.5 24l40 117q19 -11 53 -21.5t81 -14.5v213q-33 15 -64.5 32.5t-56.5 42.5t-40 60t-15 83q0 89 47 138.5t129 63.5v95h108v-90q45 -4 79.5 -13t63.5 -22l-37 -115q-18 8 -45 16.5t-61 12.5v-195q32 -14 64.5 -32.5t58 -43t42 -58.5t16.5 -81 q0 -96 -48.5 -149.5t-132.5 -68.5v-97h-108v90zM401 196q0 33 -26.5 54t-63.5 39v-185q46 5 68 29t22 63zM207 546q0 -31 24.5 -52t60.5 -38v168q-49 -2 -67 -24t-18 -54z" />
<glyph unicode="%" horiz-adv-x="873" d="M53 564q0 46 13.5 79.5t37.5 55.5t58 31.5t73 9.5q40 0 73 -9t57.5 -30t38 -54.5t14.5 -82.5q-1 -49 -14.5 -83t-38 -54.5t-57.5 -30t-73 -9.5q-39 0 -73 9.5t-58 30t-37.5 54.5t-13.5 83zM174 564q0 -90 61 -90q33 0 47 19.5t15 70.5q-1 50 -15 69.5t-47 19.5 q-32 0 -46.5 -19.5t-14.5 -69.5zM475 178q0 46 13.5 79.5t37.5 55.5t58 31.5t73 9.5q40 0 73 -9t57.5 -30t38 -54.5t14.5 -82.5q-1 -49 -14.5 -83t-38 -54.5t-57.5 -30t-73 -9.5q-39 0 -73 9.5t-58 30t-37.5 54.5t-13.5 83zM596 178q0 -90 61 -90q33 0 47 19.5t15 70.5 q-1 50 -15 69.5t-47 19.5q-32 0 -46.5 -19.5t-14.5 -69.5zM704 743l76 -69l-599 -689l-76 72z" />
<glyph unicode="&#x26;" horiz-adv-x="846" d="M96 202q0 39 13 75t36 67t55.5 58.5t69.5 47.5q-26 35 -42.5 70t-16.5 75q0 26 10 52.5t31.5 48t55.5 34.5t83 13q48 0 81.5 -11.5t54.5 -30.5t30.5 -43t9.5 -49q0 -42 -30.5 -88.5t-102.5 -88.5q36 -57 72.5 -103.5t81.5 -92.5q24 26 43 65t34 80l97 -52 q-6 -19 -17 -41.5t-24 -45.5t-26.5 -43t-24.5 -35q33 -30 58 -47t51 -32l-72 -100q-29 14 -59.5 36.5t-60.5 51.5q-38 -35 -94 -61.5t-138 -26.5q-54 0 -101.5 15t-82.5 43t-55 68t-20 91zM505 155q-53 55 -96.5 109.5t-75.5 103.5q-50 -38 -76 -74t-26 -81q0 -53 39 -83 t102 -30q42 0 78.5 17t54.5 38zM346 589q0 -44 38 -94q40 26 58.5 49t18.5 44q0 25 -14 39.5t-46 14.5q-28 0 -41.5 -14.5t-13.5 -38.5z" />
<glyph unicode="'" horiz-adv-x="264" d="M94 728h118l-37 -225h-81v225z" />
<glyph unicode="(" horiz-adv-x="340" d="M236 -229q-48 50 -81 110t-53.5 123t-30 126.5t-9.5 122.5q0 57 9.5 120.5t30.5 127.5t54.5 125t82.5 114l88 -56q-37 -49 -61.5 -102t-39.5 -108.5t-21.5 -111.5t-6.5 -109q0 -50 7 -106.5t22.5 -112t40.5 -108.5t61 -97z" />
<glyph unicode=")" horiz-adv-x="340" d="M101 740q50 -49 83 -109t53.5 -123t30 -127t10.5 -124q-1 -55 -10.5 -118.5t-30.5 -127.5t-54.5 -125.5t-78.5 -114.5l-93 58q40 51 65 105t39.5 108.5t20 109t6.5 101.5q-1 56 -8.5 111.5t-23 111t-40 108t-56.5 100.5z" />
<glyph unicode="*" horiz-adv-x="393" d="M150 760l29 -48l15 -61l16 57l29 51l67 -36l-31 -54l-50 -45l67 17h60v-76h-58l-63 16l52 -49l26 -43l-67 -39l-28 48l-21 67l-13 -61l-30 -51l-67 39l30 51l47 38l-57 -16h-61v77h62l61 -18l-53 46l-29 52z" />
<glyph unicode="+" horiz-adv-x="548" d="M45 410h168v176h122v-176h169v-117h-169v-178h-122v178h-168v117z" />
<glyph unicode="," horiz-adv-x="262" d="M44 67q0 35 23 56t58 21q43 0 68 -29.5t25 -77.5q0 -46 -14.5 -80t-35.5 -56.5t-45.5 -35.5t-44.5 -19l-40 56q29 12 49.5 38t22.5 55q-24 -3 -45 14.5t-21 57.5z" />
<glyph unicode="-" horiz-adv-x="374" d="M56 359h261v-120h-261v120z" />
<glyph unicode="." horiz-adv-x="255" d="M44 69q0 36 22.5 57.5t60.5 21.5q39 0 62 -21.5t23 -57.5q0 -37 -23 -58.5t-62 -21.5q-38 0 -60.5 21.5t-22.5 58.5z" />
<glyph unicode="/" horiz-adv-x="424" d="M346 740l102 -45l-371 -841l-102 48z" />
<glyph unicode="0" d="M42 365q0 191 65.5 284.5t187.5 93.5q131 0 192.5 -92.5t61.5 -285.5q0 -192 -66 -286t-189 -94q-130 0 -191 98.5t-61 281.5zM177 365q0 -127 27.5 -196t90.5 -69q62 0 90.5 63.5t28.5 201.5q0 126 -27 194.5t-93 68.5q-62 0 -89.5 -64.5t-27.5 -198.5z" />
<glyph unicode="1" d="M105 114h145v411l15 71l-50 -61l-92 -64l-57 78l237 191h76v-626h141v-114h-415v114z" />
<glyph unicode="2" d="M494 550q0 -53 -19 -107t-49 -106t-66 -100.5t-70 -88.5l-55 -43v-5l75 14h200v-114h-438v70q25 26 56 60.5t63 73.5t62 81t54 84t38 81.5t14 74.5q0 43 -24.5 70.5t-77.5 27.5q-33 0 -68 -14t-59 -36l-54 96q40 33 91.5 53.5t121.5 20.5q45 0 82.5 -12.5t64.5 -36.5 t42.5 -60t15.5 -84z" />
<glyph unicode="3" d="M251 100q64 0 98 34t34 83q0 60 -35.5 88t-111.5 28h-75v72l126 171l59 47l-82 -9h-175v114h398v-74l-147 -196l-46 -28v-6l44 7q36 -4 69 -17.5t57.5 -39t39 -62.5t14.5 -86q0 -62 -20.5 -106.5t-56 -74.5t-83.5 -45t-103 -15q-46 0 -95 8.5t-79 24.5l37 112 q27 -14 59.5 -22t73.5 -8z" />
<glyph unicode="4" d="M575 203h-114v-203h-126v203h-315v77l329 453h112v-422h114v-108zM335 470l9 87h-4l-35 -74l-108 -141l-52 -39l66 8h124v159z" />
<glyph unicode="5" d="M229 105q68 0 104.5 33.5t36.5 91.5q0 62 -42.5 91t-121.5 29l-82 -3v381h358v-127h-242v-140l43 4q51 -2 92 -18.5t70 -46.5t44.5 -72t15.5 -94q0 -61 -20.5 -108t-57.5 -78t-87 -47t-109 -16q-47 0 -89 8t-71 22l36 112q24 -11 52.5 -16.5t69.5 -5.5z" />
<glyph unicode="6" d="M541 226q0 -51 -17.5 -95t-48.5 -76t-75 -51t-97 -19q-54 0 -99.5 17.5t-78.5 51.5t-52 86t-19 121q0 103 29.5 186t80 145t117.5 100t142 51l30 -108q-52 -8 -95.5 -32t-77.5 -57t-57 -74t-33 -85q21 26 54.5 44t83.5 18q46 0 85.5 -14.5t68 -43t44 -70t15.5 -95.5z M410 218q0 117 -115 117q-41 0 -69.5 -19t-40.5 -44q-2 -11 -2 -19.5v-16.5q0 -25 7.5 -49.5t21.5 -43.5t35.5 -31t52.5 -12q48 0 79 33t31 85z" />
<glyph unicode="7" d="M108 0l238 561l46 51l-62 -11h-268v127h469v-40l-291 -688h-132z" />
<glyph unicode="8" d="M63 178q0 36 9.5 64.5t26.5 52t40.5 42.5t50.5 34q-51 33 -80 75t-29 104q0 41 15 76t43.5 61t69.5 41t92 15q46 0 84.5 -12.5t66 -35.5t43 -56t15.5 -72q0 -62 -28 -104.5t-81 -77.5q63 -37 94.5 -80.5t31.5 -112.5q0 -46 -17 -84t-48 -65t-75 -42.5t-96 -15.5t-94 14.5 t-71.5 39t-46 60t-16.5 79.5zM398 191q0 24 -11.5 44t-29.5 36t-40.5 29.5t-45.5 26.5q-48 -29 -66.5 -61.5t-18.5 -64.5q0 -42 28.5 -71.5t79.5 -29.5q47 0 75.5 23t28.5 68zM210 548q0 -25 9.5 -43.5t25.5 -32.5t36.5 -26t41.5 -23q63 53 63 117q0 43 -25.5 65.5 t-62.5 22.5q-45 0 -66.5 -24t-21.5 -56z" />
<glyph unicode="9" d="M47 500q0 53 16 98t46.5 76.5t75 50t101.5 18.5q118 0 185 -70.5t67 -204.5q0 -121 -31 -208.5t-82.5 -146.5t-119 -90t-142.5 -38l-29 107q57 7 102 27.5t77 51.5t52.5 70t28.5 83q-25 -27 -53.5 -37t-76.5 -10q-39 0 -78 13.5t-70 41t-50 69.5t-19 99zM178 508 q0 -60 33 -90t83 -30q43 0 70 13.5t42 33.5q3 22 3 41q0 29 -7.5 57.5t-22.5 50t-38.5 34.5t-55.5 13q-51 0 -79 -32.5t-28 -90.5z" />
<glyph unicode=":" horiz-adv-x="279" d="M97 445q0 36 22.5 57.5t60.5 21.5q39 0 62 -21.5t23 -57.5q0 -37 -23 -58.5t-62 -21.5q-38 0 -60.5 21.5t-22.5 58.5zM97 69q0 36 22.5 57.5t60.5 21.5q39 0 62 -21.5t23 -57.5q0 -37 -23 -58.5t-62 -21.5q-38 0 -60.5 21.5t-22.5 58.5z" />
<glyph unicode=";" horiz-adv-x="301" d="M86 67q0 35 23 56t58 21q43 0 68 -29.5t25 -77.5q0 -46 -14.5 -80t-35.5 -56.5t-45.5 -35.5t-44.5 -19l-40 56q29 12 49.5 38t22.5 55q-24 -3 -45 14.5t-21 57.5zM86 445q0 36 22.5 57.5t60.5 21.5q39 0 62 -21.5t23 -57.5q0 -37 -23 -58.5t-62 -21.5q-38 0 -60.5 21.5 t-22.5 58.5z" />
<glyph unicode="&#x3c;" horiz-adv-x="548" d="M42 296v73l401 240l59 -93l-233 -145l-94 -36l93 -32l240 -143l-60 -93z" />
<glyph unicode="=" horiz-adv-x="548" d="M45 510h459v-117h-459v117zM45 311h459v-117h-459v117z" />
<glyph unicode="&#x3e;" horiz-adv-x="548" d="M506 380v-73l-401 -240l-59 94l233 144l94 37l-93 31l-239 144l59 92z" />
<glyph unicode="?" horiz-adv-x="472" d="M141 216q-5 54 5.5 92t28.5 65.5t41.5 48t44 39t34 39t13.5 48.5q0 36 -20.5 58t-72.5 22q-16 0 -35 -3.5t-37.5 -10.5t-36 -15.5t-30.5 -18.5l-52 100q39 27 90.5 45t124.5 18q98 0 153 -47.5t55 -127.5q0 -53 -14 -88t-34.5 -59.5t-45.5 -43t-46 -40t-35.5 -49.5 t-14.5 -72h-116zM121 69q0 36 22.5 57.5t60.5 21.5q39 0 62 -21.5t23 -57.5q0 -37 -23 -58.5t-62 -21.5q-38 0 -60.5 21.5t-22.5 58.5z" />
<glyph unicode="@" horiz-adv-x="1101" d="M706 503h73l-50 -281q-8 -49 -0.5 -71t34.5 -22t53 12.5t47 38.5t34 65.5t13 93.5q0 78 -26 133t-71 91t-106.5 52.5t-132.5 16.5q-81 0 -150.5 -29t-121 -80t-81 -121t-29.5 -152t24.5 -146t71.5 -109.5t116 -70t159 -24.5q30 0 68.5 7.5t69.5 21.5l32 -100 q-42 -20 -86.5 -28.5t-101.5 -8.5q-101 0 -187 29t-148.5 86.5t-98 142t-35.5 195.5q0 114 40.5 205.5t109 156t159 99t191.5 34.5q96 0 178 -27.5t142.5 -79t94.5 -125.5t34 -169q0 -67 -23 -125t-64.5 -100.5t-96 -67.5t-116.5 -25q-26 0 -48.5 5.5t-37.5 19t-22.5 35.5 t-3.5 54h-5q-15 -22 -33.5 -42.5t-40 -36.5t-47.5 -25.5t-57 -9.5q-25 0 -48 11t-39.5 30.5t-26.5 47.5t-10 63q0 64 20.5 125t56.5 107.5t83.5 75.5t100.5 29q36 0 61 -11t46 -29zM641 378q-14 11 -28.5 17t-36.5 6q-31 0 -57.5 -17.5t-46 -45.5t-29.5 -63t-10 -68 q0 -34 14 -56t48 -22q15 0 31.5 9t32 23.5t30 33t26.5 39.5z" />
<glyph unicode="A" horiz-adv-x="629" d="M421 161h-223l-56 -161h-142l262 733h105l262 -733h-150zM234 276h156l-54 162l-22 114h-5l-22 -115z" />
<glyph unicode="B" horiz-adv-x="614" d="M552 558q0 -27 -6.5 -54t-22 -49t-40.5 -39.5t-61 -25.5v-6q31 -5 59.5 -17.5t49 -34.5t32.5 -53t12 -74q0 -56 -24 -97t-64 -67t-91 -38.5t-105 -12.5h-45t-59.5 1.5t-64.5 4.5t-60 9v718q20 3 45.5 6t54.5 5t60 3t61 1q51 0 99.5 -7.5t86 -27.5t60.5 -55t23 -90z M292 107q26 0 50.5 6.5t43.5 19.5t30 32.5t11 46.5q0 34 -13.5 54t-35 31t-48.5 14t-54 3h-76v-201q5 -2 16.5 -3t24.5 -1.5t27 -1t24 -0.5zM245 422q15 0 34 1t32 3q39 13 68 38t29 65q0 27 -10.5 45t-27.5 28.5t-39 14.5t-46 4q-27 0 -50 -1t-35 -3v-195h45z" />
<glyph unicode="C" horiz-adv-x="581" d="M555 30q-33 -24 -84.5 -34.5t-105.5 -10.5q-65 0 -124 20.5t-103.5 65.5t-71 117.5t-26.5 175.5q0 107 29.5 179.5t76.5 116.5t105.5 63.5t116.5 19.5q63 0 106 -8.5t71 -20.5l-28 -120q-24 11 -57 16.5t-79 5.5q-87 0 -139.5 -61.5t-52.5 -190.5q0 -56 12.5 -102.5 t38 -79t63.5 -51t88 -18.5q47 0 79 9.5t56 24.5z" />
<glyph unicode="D" horiz-adv-x="672" d="M62 728q22 3 49.5 5t57 3t57 1.5t49.5 0.5q96 0 165 -27t111.5 -75.5t62 -116.5t19.5 -149q0 -74 -18.5 -142.5t-62 -121.5t-115 -85t-176.5 -32q-17 0 -44.5 1t-57 2.5t-56.5 3t-41 3.5v729zM286 612q-23 0 -46.5 -1.5t-34.5 -3.5v-487q4 -1 14 -1.5t21.5 -1.5 t21.5 -1.5t16 -0.5q60 0 100 21.5t63.5 57t33 81.5t9.5 95q0 43 -8.5 86t-31 77.5t-61 56.5t-97.5 22z" />
<glyph unicode="E" horiz-adv-x="542" d="M62 728h432v-127h-289v-169h263v-127h-263v-178h294v-127h-437v728z" />
<glyph unicode="F" horiz-adv-x="528" d="M62 728h432v-127h-289v-180h266v-127h-266v-294h-143v728z" />
<glyph unicode="G" horiz-adv-x="633" d="M319 380h272v-325q-44 -36 -105 -53t-120 -17q-70 0 -129.5 22t-103.5 68.5t-68.5 118t-24.5 170.5q0 103 29.5 175.5t78 117.5t108.5 65.5t123 20.5q62 0 109.5 -9.5t75.5 -20.5l-29 -119q-26 10 -58.5 16t-82.5 6q-45 0 -82 -13.5t-65 -44.5t-43 -78.5t-15 -116.5 q0 -66 14.5 -113t40.5 -78t61 -45.5t75 -14.5q27 0 53 7t43 20v138l-157 16v87z" />
<glyph unicode="H" horiz-adv-x="677" d="M471 305h-266v-305h-143v728h143v-296h266v296h143v-728h-143v305z" />
<glyph unicode="I" horiz-adv-x="296" d="M77 728h142v-728h-142v728z" />
<glyph unicode="J" horiz-adv-x="347" d="M136 728h143v-532q0 -42 -9.5 -79.5t-31 -66t-54.5 -45.5t-81 -17q-30 0 -65.5 6t-61.5 17l31 117q27 -14 62 -14q43 0 55 32.5t12 85.5v496z" />
<glyph unicode="K" horiz-adv-x="644" d="M242 311h-37v-311h-143v728h143v-322l33 14l201 308h162l-212 -306l-56 -39l58 -41l242 -342h-175z" />
<glyph unicode="L" horiz-adv-x="534" d="M523 0h-461v728h143v-601h318v-127z" />
<glyph unicode="M" horiz-adv-x="832" d="M627 378l16 144h-7l-44 -116l-155 -272h-46l-163 273l-46 115h-5l21 -143v-379h-136v728h130l195 -333l34 -83h4l32 85l184 331h129v-728h-143v378z" />
<glyph unicode="N" horiz-adv-x="683" d="M243 380l-57 114h-5l17 -114v-380h-136v733h104l276 -388l55 -111h5l-16 111v383h135v-733h-104z" />
<glyph unicode="O" horiz-adv-x="696" d="M40 364q0 182 80 280.5t228 98.5q78 0 136.5 -27.5t97 -77t57 -119.5t18.5 -155q0 -182 -80.5 -280.5t-228.5 -98.5q-79 0 -137 27.5t-96 77t-56.5 119.5t-18.5 155zM189 364q0 -55 9.5 -101.5t28.5 -79.5t49.5 -52t71.5 -19q76 0 118 59.5t42 192.5q0 53 -9 99t-28 80 t-49 53.5t-74 19.5q-76 0 -117.5 -61t-41.5 -191z" />
<glyph unicode="P" horiz-adv-x="594" d="M62 721q44 8 96.5 12.5t104.5 4.5q54 0 108.5 -8.5t98.5 -35t71.5 -74t27.5 -123.5q0 -69 -24 -116t-63.5 -77t-90 -44t-104.5 -14h-16.5t-24 1t-24.5 2t-17 2v-251h-143v721zM275 616q-21 0 -40 -1.5t-30 -4.5v-236q4 -1 12.5 -2t17.5 -1.5t18 -0.5h13q28 0 55.5 5.5 t49.5 19.5t35 39t13 65q0 35 -12.5 57t-32.5 35.5t-46 19t-53 5.5z" />
<glyph unicode="Q" horiz-adv-x="696" d="M730 -210q-50 -14 -101 -14q-53 0 -103 11t-96.5 23.5t-90.5 23.5t-82 11q-25 0 -48 -6v123q29 6 60 6q44 0 87 -10.5t88 -22.5t91.5 -22.5t98.5 -10.5q23 0 47 2.5t49 9.5v-124zM40 364q0 182 80 280.5t228 98.5q78 0 136.5 -27.5t97 -77t57 -119.5t18.5 -155 q0 -182 -80.5 -280.5t-228.5 -98.5q-79 0 -137 27.5t-96 77t-56.5 119.5t-18.5 155zM189 364q0 -55 9.5 -101.5t28.5 -79.5t49.5 -52t71.5 -19q76 0 118 59.5t42 192.5q0 53 -9 99t-28 80t-49 53.5t-74 19.5q-76 0 -117.5 -61t-41.5 -191z" />
<glyph unicode="R" horiz-adv-x="626" d="M62 721q24 4 51.5 7.5t55.5 5.5t54 3t47 1q51 0 100.5 -9t88.5 -32t62.5 -63t23.5 -100q0 -90 -41.5 -146t-111.5 -78l51 -32l166 -278h-164l-165 285l-75 13v-298h-143v721zM281 612q-22 0 -43.5 -1.5t-32.5 -4.5v-211h60q59 0 94.5 27t35.5 90q0 46 -29 73t-85 27z" />
<glyph unicode="S" horiz-adv-x="551" d="M376 196q0 33 -24 53.5t-61 38t-80.5 35.5t-80 44.5t-61 66t-24.5 101.5q0 53 17.5 92t50.5 65t77.5 38.5t99.5 12.5q64 0 120 -11t92 -32l-44 -120q-23 15 -69 27t-99 12q-50 0 -76.5 -20t-26.5 -53q0 -31 24.5 -52t61.5 -38.5t80 -36.5t80 -45.5t61.5 -65.5t24.5 -97 t-19.5 -100t-54 -70.5t-84 -42t-108.5 -13.5q-78 0 -137.5 15t-87.5 29l46 122q11 -6 29.5 -13.5t41 -13.5t48 -10.5t52.5 -4.5q64 0 97.5 21.5t33.5 65.5z" />
<glyph unicode="T" horiz-adv-x="590" d="M579 601h-212v-601h-142v601h-214v127h568v-127z" />
<glyph unicode="U" horiz-adv-x="652" d="M458 728h135v-470q0 -71 -19 -122t-52 -84t-81 -48.5t-105 -15.5q-277 0 -277 252v488h143v-460q0 -42 7.5 -72t24.5 -48t42 -26t58 -8q65 0 94.5 36.5t29.5 117.5v460z" />
<glyph unicode="V" horiz-adv-x="626" d="M302 301l18 -124h6l20 125l140 426h149l-270 -733h-102l-272 733h165z" />
<glyph unicode="W" horiz-adv-x="896" d="M252 321l13 -129h4l15 131l127 405h93l125 -407l15 -129h4l16 131l88 405h144l-200 -733h-96l-130 404l-18 112h-5l-17 -113l-129 -403h-101l-200 733h155z" />
<glyph unicode="X" horiz-adv-x="658" d="M234 370l-203 358h172l112 -210l25 -74l24 74l118 210h154l-210 -350l221 -378h-170l-128 225l-28 77l-27 -77l-129 -225h-155z" />
<glyph unicode="Y" horiz-adv-x="615" d="M237 270l-239 458h169l134 -274l14 -76h5l16 79l129 271h153l-238 -457v-271h-143v270z" />
<glyph unicode="Z" horiz-adv-x="560" d="M28 127l308 430l54 44h-362v127h504v-127l-309 -435l-53 -39h362v-127h-504v127z" />
<glyph unicode="[" horiz-adv-x="336" d="M62 728h245v-114h-116v-739h116v-114h-245v967z" />
<glyph unicode="\" horiz-adv-x="440" d="M456 -99l-103 -47l-378 841l106 44z" />
<glyph unicode="]" horiz-adv-x="336" d="M275 -239h-245v114h116v739h-116v114h245v-967z" />
<glyph unicode="^" horiz-adv-x="520" d="M225 733h71l193 -303h-136l-74 126l-22 73l-26 -74l-81 -125h-129z" />
<glyph unicode="_" horiz-adv-x="461" d="M0 -122h462v-111h-462v111z" />
<glyph unicode="`" horiz-adv-x="328" d="M266 589h-75l-129 129v31h142z" />
<glyph unicode="a" horiz-adv-x="515" d="M56 490q42 19 99 29.5t120 10.5q54 0 90 -13t57.5 -36.5t30.5 -57t9 -75.5q0 -45 -3 -91.5t-4 -91t2.5 -87t15.5 -79.5h-110l-22 72h-5q-21 -33 -58 -56t-95 -23q-36 0 -65.5 11t-50 31t-32 47.5t-11.5 62.5q0 47 21.5 80t61.5 53t95.5 28t124.5 5q7 58 -8.5 83.5 t-69.5 25.5q-41 0 -86 -8.5t-75 -21.5zM228 103q40 0 64 18t36 39v68q-33 3 -62.5 1t-52.5 -9.5t-36.5 -21t-13.5 -34.5q0 -29 17.5 -45t47.5 -16z" />
<glyph unicode="b" horiz-adv-x="557" d="M59 728h135v-250h5q21 25 55.5 39.5t76.5 14.5q93 0 142.5 -63.5t49.5 -194.5q0 -141 -69 -213.5t-190 -72.5q-66 0 -121.5 10.5t-83.5 24.5v705zM291 418q-37 0 -60.5 -19t-36.5 -56v-227q17 -8 36.5 -11t40.5 -3q56 0 84.5 40t28.5 127q0 149 -93 149z" />
<glyph unicode="c" horiz-adv-x="450" d="M427 32q-31 -23 -75 -35t-91 -12q-62 0 -105.5 20t-70.5 56t-39 87t-12 112q0 132 59.5 203.5t172.5 71.5q57 0 92 -9.5t63 -24.5l-32 -110q-24 11 -47.5 17.5t-53.5 6.5q-56 0 -85 -37t-29 -118q0 -33 7 -61t21.5 -49t38 -33t54.5 -12q35 0 59 9t42 21z" />
<glyph unicode="d" horiz-adv-x="560" d="M501 183q0 -44 1 -87.5t10 -96.5h-97l-19 68h-4q-21 -37 -60 -59.5t-92 -22.5q-98 0 -152 64.5t-54 202.5q0 133 60.5 206.5t176.5 73.5q33 0 53.5 -3.5t41.5 -11.5v211h135v-545zM271 100q40 0 63 19t32 56v220q-14 12 -32 17.5t-46 5.5q-57 0 -85.5 -38.5t-28.5 -131.5 q0 -67 23 -107.5t74 -40.5z" />
<glyph unicode="e" horiz-adv-x="528" d="M475 45q-31 -25 -84.5 -42.5t-113.5 -17.5q-126 0 -184.5 73.5t-58.5 201.5q0 137 65.5 206t184.5 69q39 0 76.5 -10.5t67 -34.5t47 -64.5t17.5 -101.5q0 -21 -2.5 -46t-7.5 -52h-312q3 -66 33.5 -99t99.5 -33q42 0 76 13t52 26zM282 426q-53 0 -78.5 -31.5t-30.5 -84.5 h193q4 56 -17 86t-67 30z" />
<glyph unicode="f" horiz-adv-x="333" d="M11 520h72v29q0 99 41.5 143t120.5 44q84 0 139 -19l-26 -109q-24 9 -42.5 11.5t-37.5 2.5q-21 0 -33 -6.5t-17.5 -19.5t-7.5 -32t-2 -44h115v-114h-115v-406h-135v406h-72v114z" />
<glyph unicode="g" horiz-adv-x="557" d="M499 0q0 -113 -61.5 -166.5t-171.5 -53.5q-75 0 -118 10t-65 22l28 107q24 -9 56 -18.5t78 -9.5q71 0 96.5 30.5t25.5 85.5v34h-4q-36 -49 -129 -49q-101 0 -150.5 62t-49.5 196q0 139 66.5 210.5t193.5 71.5q67 0 119.5 -9t85.5 -22v-501zM270 100q40 0 61.5 17.5 t32.5 53.5v234q-32 13 -80 13q-52 0 -81 -39t-29 -124q0 -76 25 -115.5t71 -39.5z" />
<glyph unicode="h" horiz-adv-x="566" d="M378 0v295q0 64 -18 92t-65 28q-34 0 -62.5 -23.5t-38.5 -59.5v-332h-135v728h135v-266h5q25 33 61 53t93 20q39 0 69 -10.5t50.5 -34.5t30.5 -65t10 -102v-323h-135z" />
<glyph unicode="i" horiz-adv-x="279" d="M71 520h135v-520h-135v520zM51 667q0 30 22.5 51t62.5 21q39 0 63.5 -21t24.5 -51q0 -31 -24.5 -51t-63.5 -20q-40 0 -62.5 20t-22.5 51z" />
<glyph unicode="j" horiz-adv-x="278" d="M72 520h135v-542q0 -94 -37.5 -144t-119.5 -50q-31 0 -67 7v113q5 0 8 -0.5t6 -0.5q47 0 61 30.5t14 83.5v503zM53 667q0 30 22.5 51t62.5 21q39 0 63.5 -21t24.5 -51q0 -31 -24.5 -51t-63.5 -20q-40 0 -62.5 20t-22.5 51z" />
<glyph unicode="k" horiz-adv-x="510" d="M231 215h-37v-215h-135v728h135v-430l32 15l118 207h149l-125 -198l-53 -39l57 -41l141 -242h-155z" />
<glyph unicode="l" horiz-adv-x="305" d="M199 175q0 -37 9 -53.5t30 -16.5q13 0 25 2t29 9l15 -106q-17 -8 -51 -16.5t-71 -8.5q-59 0 -90.5 28t-31.5 91v624h136v-553z" />
<glyph unicode="m" horiz-adv-x="837" d="M355 0v283q0 72 -13.5 102t-56.5 30q-35 0 -57 -19.5t-34 -49.5v-346h-135v520h105l16 -69h4q24 34 61 59t95 25q50 0 81.5 -20.5t49.5 -68.5q24 41 61.5 65t90.5 24q44 0 74.5 -10.5t49.5 -36t28.5 -68t9.5 -108.5v-312h-135v292q0 62 -13 92.5t-58 30.5 q-36 0 -57.5 -20t-31.5 -54v-341h-135z" />
<glyph unicode="n" horiz-adv-x="566" d="M378 0v295q0 64 -18.5 92t-62.5 28q-38 0 -64.5 -22.5t-38.5 -55.5v-337h-135v520h107l16 -69h4q24 34 63.5 59t102.5 25q38 0 68 -10.5t51 -34.5t31.5 -65t10.5 -102v-323h-135z" />
<glyph unicode="o" horiz-adv-x="558" d="M34 260q0 132 64.5 203.5t181.5 71.5q62 0 108 -20t76 -56t45 -87t15 -112q0 -132 -64 -203.5t-180 -71.5q-63 0 -108.5 20t-76.5 56t-46 87t-15 112zM174 260q0 -34 6 -63.5t18.5 -51t33 -33.5t48.5 -12q53 0 79 38.5t26 121.5q0 72 -24 116t-81 44q-50 0 -78 -37.5 t-28 -122.5z" />
<glyph unicode="p" horiz-adv-x="561" d="M59 520h99l16 -62h4q27 39 64 58t90 19q98 0 146.5 -62t48.5 -199q0 -67 -15.5 -120.5t-46 -91t-75 -57.5t-101.5 -20q-32 0 -53 5t-42 15v-213h-135v728zM291 420q-39 0 -61.5 -19.5t-35.5 -59.5v-216q15 -12 32 -18.5t45 -6.5q59 0 88 41t29 136q0 68 -23 105.5 t-74 37.5z" />
<glyph unicode="q" horiz-adv-x="557" d="M499 -208h-135v253h-4q-18 -27 -48 -43.5t-78 -16.5q-97 0 -148.5 65.5t-51.5 199.5q0 139 70.5 210.5t201.5 71.5q28 0 56 -2.5t53.5 -7t47.5 -10.5t36 -11v-709zM270 100q40 0 61.5 17.5t32.5 53.5v234q-16 8 -35.5 10.5t-44.5 2.5q-55 0 -82.5 -41.5t-27.5 -121.5 q0 -76 25 -115.5t71 -39.5z" />
<glyph unicode="r" horiz-adv-x="365" d="M346 393q-32 12 -58 12q-36 0 -60.5 -19.5t-33.5 -49.5v-336h-135v520h105l16 -69h4q18 39 48 59.5t71 20.5q27 0 61 -11z" />
<glyph unicode="s" horiz-adv-x="438" d="M275 144q0 20 -18 32.5t-44 23t-57 21.5t-57 30t-44 49t-18 76q0 77 46 118t132 41q60 0 107.5 -12.5t74.5 -28.5l-30 -98q-24 10 -60.5 20t-73.5 10q-60 0 -60 -46q0 -19 17.5 -30.5t43.5 -21.5t57 -21.5t57 -29.5t44 -47t18 -75q0 -79 -50.5 -124.5t-151.5 -45.5 q-55 0 -103.5 14.5t-78.5 32.5l37 101q24 -13 63.5 -26t81.5 -13q30 0 48.5 11t18.5 39z" />
<glyph unicode="t" horiz-adv-x="362" d="M5 520h72v98l135 38v-136h127v-114h-127v-200q0 -54 11 -77.5t41 -23.5q21 0 36 4t34 13l24 -104q-28 -14 -65.5 -23.5t-76.5 -9.5q-71 0 -105 37t-34 122v262h-72v114z" />
<glyph unicode="u" horiz-adv-x="559" d="M189 520v-295q0 -64 15 -92t59 -28q39 0 64.5 23t37.5 56v336h135v-362q0 -43 4.5 -84t12.5 -74h-102l-24 77h-4q-24 -40 -66.5 -66t-101.5 -26q-39 0 -70 10.5t-52 34.5t-32 64.5t-11 102.5v323h135z" />
<glyph unicode="v" horiz-adv-x="496" d="M239 248l18 -81h5l15 83l88 270h146l-218 -525h-82l-226 525h157z" />
<glyph unicode="w" horiz-adv-x="749" d="M436 520l94 -266l19 -87h4l15 88l66 265h124l-160 -525h-100l-105 291l-13 66h-6l-12 -67l-100 -290h-103l-167 525h146l76 -261l13 -93h5l18 94l86 260h100z" />
<glyph unicode="x" horiz-adv-x="546" d="M177 266l-156 254h161l68 -111l29 -73l31 73l71 111h146l-157 -250l168 -270h-157l-80 125l-32 77l-33 -77l-80 -125h-148z" />
<glyph unicode="y" horiz-adv-x="497" d="M249 228l18 -81h7l13 82l79 291h139l-158 -469q-19 -58 -37.5 -106.5t-40 -84t-48.5 -54.5t-63 -19q-54 0 -86 17l25 109q15 -7 31 -7q24 0 46.5 20.5t33.5 73.5l-217 520h162z" />
<glyph unicode="z" horiz-adv-x="476" d="M32 114l205 247l53 45h-258v114h408v-114l-203 -251l-52 -41h255v-114h-408v114z" />
<glyph unicode="{" horiz-adv-x="385" d="M128 100q0 53 -22 72.5t-61 19.5v104q39 0 61 21.5t22 67.5v217q0 56 26.5 91.5t84.5 35.5h125v-114h-52q-28 0 -41 -14.5t-13 -48.5v-203q0 -45 -22 -68.5t-51 -28.5v-11q28 -4 50.5 -31t22.5 -71v-201q0 -34 12.5 -48.5t42.5 -14.5h51v-114h-125q-54 0 -82.5 32.5 t-28.5 93.5v213z" />
<glyph unicode="|" horiz-adv-x="236" d="M62 728h112v-863h-112v863z" />
<glyph unicode="}" horiz-adv-x="385" d="M271 390q0 -53 22 -73t62 -20v-104q-40 0 -62 -21t-22 -67v-217q0 -56 -27.5 -91.5t-85.5 -35.5h-122v114h52q28 0 41 14t13 49v202q0 46 22 69.5t51 28.5v11q-28 4 -50.5 31t-22.5 70v202q0 32 -12 47.5t-43 15.5h-51v114h124q55 0 83 -32.5t28 -93.5v-213z" />
<glyph unicode="~" horiz-adv-x="548" d="M29 393q49 40 88 55t72 15q30 0 56 -9t50 -19t47.5 -18.5t47.5 -8.5q19 0 38.5 6t41.5 24l49 -107q-37 -28 -68.5 -39.5t-58.5 -11.5q-29 0 -54 9t-48.5 20.5t-47.5 21t-51 9.5q-25 0 -53.5 -11t-62.5 -40z" />
<glyph unicode="&#xa1;" horiz-adv-x="304" d="M199 -208h-140v342l27 169h86l27 -169v-342zM46 452q0 37 23 58t60 21q39 0 62 -21t23 -58q0 -36 -23 -58t-62 -22q-37 0 -60 22t-23 58z" />
<glyph unicode="&#xa2;" d="M509 32q-18 -13 -44.5 -23t-56.5 -15v-98h-126v93q-53 7 -90 29.5t-60.5 57t-34 81.5t-10.5 103q0 116 50 185.5t145 84.5v94h126v-94q29 -4 52 -10.5t41 -16.5l-31 -110q-16 7 -33.5 11.5t-36.5 6.5v-303q24 3 43.5 10.5t33.5 15.5zM220 260q0 -53 20 -93t67 -55v298 q-44 -12 -65.5 -47.5t-21.5 -102.5z" />
<glyph unicode="&#xa3;" d="M53 410h71q-14 25 -24 56t-10 75q0 51 17.5 89t48 63t73 37.5t93.5 12.5q64 0 116 -12t89 -30l-43 -121q-21 12 -57.5 24t-87.5 12q-50 0 -78 -23.5t-28 -70.5q0 -35 13 -60.5t29 -51.5h146v-112h-102q3 -17 3 -35q0 -31 -10 -65.5t-32 -56.5l-45 -32v-5l70 16h239v-120 h-491v120h2q32 1 56.5 11t40.5 27.5t24.5 40.5t8.5 47q0 29 -6 52h-126v112z" />
<glyph unicode="&#xa4;" d="M84 647l81 -80l20 -39q21 16 49.5 24t59.5 8q30 0 60 -8t50 -23l20 38l81 80l81 -83l-81 -81l-38 -17q15 -22 21 -49.5t6 -57.5q0 -31 -7 -59t-20 -46l38 -17l81 -81l-81 -83l-81 80l-18 38q-20 -14 -51 -22.5t-61 -8.5q-31 0 -59.5 8t-49.5 22l-20 -37l-81 -80l-79 83 l80 81l38 18q-13 22 -20 47.5t-7 56.5q0 30 7.5 56t21.5 50l-40 18l-80 81zM209 360q0 -40 24 -65t62 -25q39 0 62.5 25t23.5 65q0 37 -23.5 63t-62.5 26q-38 0 -62 -26t-24 -63z" />
<glyph unicode="&#xa5;" d="M88 350h94l-197 378h170l133 -274l15 -76h5l15 79l129 271h153l-197 -378h94v-83h-135v-60h135v-83h-135v-124h-142v124h-137v83h137v60h-137v83z" />
<glyph unicode="&#xa6;" horiz-adv-x="236" d="M62 222h112v-357h-112v357zM174 371h-112v357h112v-357z" />
<glyph unicode="&#xa7;" horiz-adv-x="551" d="M51 367q0 32 15.5 63t42.5 55l43 14q-27 17 -45 42.5t-18 67.5q0 59 45.5 96.5t136.5 37.5q62 0 115 -10.5t81 -24.5l-33 -109q-24 11 -63.5 20t-76.5 9q-38 0 -53.5 -11.5t-15.5 -28.5q0 -19 20 -29.5t51 -19t66.5 -18.5t66.5 -29t51 -50t20 -81q0 -32 -15 -62.5 t-42 -54.5l-47 -14q28 -17 47 -43t19 -68q0 -66 -51 -100t-135 -34q-71 0 -118.5 14.5t-77.5 30.5l35 104q24 -11 58.5 -22.5t80.5 -11.5q38 0 55.5 10t17.5 31q0 20 -20.5 31t-51 20t-66.5 19.5t-66.5 28.5t-51 48t-20.5 79zM365 359q0 19 -9 31t-25.5 22t-40.5 18.5 t-54 17.5q-21 -12 -35.5 -32.5t-14.5 -46.5q0 -36 33.5 -54t91.5 -34q23 12 38.5 33t15.5 45z" />
<glyph unicode="&#xa8;" horiz-adv-x="498" d="M62 677q0 33 20.5 53t53.5 20q34 0 53 -20t19 -53q0 -31 -19 -51t-53 -20q-33 0 -53.5 20t-20.5 51zM290 677q0 33 19.5 53t52.5 20t53.5 -20t20.5 -53q0 -31 -20.5 -51t-53.5 -20t-52.5 20t-19.5 51z" />
<glyph unicode="&#xa9;" horiz-adv-x="866" d="M57 302q0 86 29 155t79.5 118t119.5 75.5t148 26.5t147 -26.5t119 -75.5t80 -118t29 -155q0 -87 -29 -156t-80 -118t-119 -75.5t-147 -26.5q-87 0 -156.5 26.5t-118.5 75.5t-75 118t-26 156zM159 302q0 -65 20.5 -117t57.5 -88t86.5 -55t109.5 -19q59 0 109.5 19t87.5 55 t57 88t20 117q0 64 -20 116t-57 88t-87.5 55t-109.5 19q-60 0 -109.5 -19t-86.5 -55t-57.5 -88t-20.5 -116zM563 136q-23 -14 -58 -23t-74 -9q-85 0 -129 53t-44 145q0 94 47.5 145.5t125.5 51.5q38 0 67.5 -8.5t56.5 -24.5l-33 -91q-19 10 -34 13t-29 3q-31 0 -48.5 -19.5 t-17.5 -69.5q0 -90 73 -90q20 0 35.5 3.5t30.5 12.5z" />
<glyph unicode="&#xaa;" horiz-adv-x="436" d="M63 701q27 15 76.5 25t111.5 10q79 0 108 -28.5t29 -87.5q0 -63 -3 -121t8 -104h-105l-13 48h-5q-13 -18 -38 -35t-70 -17q-54 0 -86 28.5t-32 74.5q0 34 18 57t48.5 36.5t72 18t86.5 2.5q2 27 -7 39t-46 12q-41 0 -75 -8t-55 -17zM202 472q33 0 46.5 12t20.5 25v36 q-44 5 -75 -2t-31 -35q0 -17 11 -26.5t28 -9.5z" />
<glyph unicode="&#xab;" horiz-adv-x="507" d="M232 271l160 225l74 -58l-84 -127l-48 -41l48 -36l90 -126l-74 -58zM30 269l167 240l82 -65l-91 -131l-50 -43l50 -37l97 -129l-82 -64z" />
<glyph unicode="&#xac;" horiz-adv-x="548" d="M47 428h459v-235h-124v119h-335v116z" />
<glyph unicode="&#xad;" horiz-adv-x="374" d="M56 359h261v-120h-261v120z" />
<glyph unicode="&#xae;" horiz-adv-x="717" d="M64 469q0 70 23.5 124.5t64 92t94.5 57t113 19.5q61 0 114.5 -19.5t93 -57t62.5 -92t23 -124.5q0 -71 -23.5 -125.5t-63.5 -92t-93.5 -56.5t-112.5 -19q-62 0 -115.5 19t-93.5 56.5t-63 92t-23 125.5zM162 469q0 -50 16 -88t43.5 -63t62.5 -37.5t75 -12.5q41 0 77 12 t62 37t41 63t15 89q0 50 -15.5 87.5t-42 62.5t-62.5 37.5t-75 12.5q-44 0 -80.5 -13.5t-62.5 -39.5t-40 -63t-14 -84zM252 604q16 5 46.5 8t57.5 3q43 0 74.5 -18.5t31.5 -62.5q0 -34 -21.5 -51.5t-52.5 -19.5l29 -15l68 -113h-64l-65 108l-50 16v-124h-54v269zM344 568 q-11 0 -21.5 -0.5t-16.5 -3.5v-74h35q30 0 47 9.5t17 31.5q0 37 -61 37z" />
<glyph unicode="&#xaf;" horiz-adv-x="460" d="M62 684h336v-95h-336v95z" />
<glyph unicode="&#xb0;" horiz-adv-x="454" d="M62 570q0 38 13.5 70t37 55t54.5 35.5t66 12.5t67 -11.5t56 -34t37.5 -55t13.5 -72.5q0 -41 -13.5 -72.5t-37.5 -53.5t-56 -33.5t-67 -11.5t-66 11.5t-54.5 33.5t-37 53.5t-13.5 72.5zM166 570q0 -33 20 -52.5t48 -19.5t49 19.5t21 52.5t-21 53.5t-49 20.5t-48 -20.5 t-20 -53.5z" />
<glyph unicode="&#xb1;" horiz-adv-x="548" d="M45 539h168v170h122v-170h169v-117h-169v-111h-122v111h-168v117zM45 263h459v-116h-459v116z" />
<glyph unicode="&#xb2;" horiz-adv-x="428" d="M362 707q0 -61 -31 -105t-75 -83l-49 -26v-4l61 11h111v-105h-326v74q27 19 60.5 43.5t62 53.5t47.5 59t19 57q0 51 -58 51q-28 0 -53 -9t-44 -20l-35 93q36 22 77.5 32t78.5 10q74 0 114 -34t40 -98z" />
<glyph unicode="&#xb3;" horiz-adv-x="428" d="M176 487q46 0 65 14.5t20 38.5q-1 23 -21 37t-73 14h-43v39l76 83l44 26l-60 -6h-120v99h295v-65l-91 -95l-35 -19v-5l31 3q54 -2 85 -33t32 -87q-1 -37 -16.5 -64t-41 -45t-59.5 -26t-71 -8q-40 0 -75 6.5t-60 18.5l24 93q43 -19 94 -19z" />
<glyph unicode="&#xb4;" horiz-adv-x="317" d="M118 749h137v-31l-116 -129h-77z" />
<glyph unicode="&#xb6;" horiz-adv-x="550" d="M376 728h112v-863h-112v863zM185 306q-34 0 -63 17t-50.5 46.5t-33 67.5t-11.5 81q0 42 13.5 79.5t38.5 67t60.5 46.5t78.5 17h77v-863h-110v441z" />
<glyph unicode="&#xb7;" horiz-adv-x="263" d="M47 329q0 36 22.5 57.5t60.5 21.5q39 0 62 -21.5t23 -57.5q0 -37 -23 -58.5t-62 -21.5q-38 0 -60.5 21.5t-22.5 58.5z" />
<glyph unicode="&#xb8;" horiz-adv-x="345" d="M216 0l-25 -45q43 -4 67.5 -22t24.5 -56q0 -24 -12 -41.5t-33 -29.5t-49 -18t-60 -6t-67 6l10 50q7 -1 13.5 -1h11.5q39 0 50.5 9t11.5 22q0 29 -89 33l59 99h87z" />
<glyph unicode="&#xb9;" horiz-adv-x="428" d="M75 499h101v171l10 47l-31 -33l-61 -40l-51 80l164 115h88v-340h92v-104h-312v104z" />
<glyph unicode="&#xba;" horiz-adv-x="435" d="M35 564q0 46 13.5 79.5t37.5 55.5t58 31.5t73 9.5q40 0 73 -9t57.5 -30t38 -54.5t14.5 -82.5q-1 -49 -14.5 -83t-38 -54.5t-57.5 -30t-73 -9.5q-39 0 -73 9.5t-58 30t-37.5 54.5t-13.5 83zM156 564q0 -90 61 -90q33 0 47 19.5t15 70.5q-1 50 -15 69.5t-47 19.5 q-32 0 -46.5 -19.5t-14.5 -69.5z" />
<glyph unicode="&#xbb;" horiz-adv-x="507" d="M275 277l-160 -225l-74 58l85 127l47 41l-47 36l-91 126l73 58zM477 279l-166 -239l-82 64l90 131l50 43l-50 37l-96 129l82 65z" />
<glyph unicode="&#xbc;" horiz-adv-x="915" d="M634 744l88 -52l-447 -707l-90 56zM866 81h-79v-81h-105v81h-215v70l226 294h94v-271h79v-93zM682 263l6 55h-5l-23 -51l-50 -68l-37 -34l54 9h55v89zM172 566l11 48l-32 -34l-61 -40l-51 80l164 115h88v-444h-119v275z" />
<glyph unicode="&#xbd;" horiz-adv-x="939" d="M634 744l88 -52l-447 -707l-90 56zM875 312q0 -61 -31 -105t-75 -83l-49 -26v-4l61 11h111v-105h-326v74q27 19 60.5 43.5t62 53.5t47.5 59t19 57q0 51 -58 51q-28 0 -53 -9t-44 -20l-35 93q36 22 77.5 32t78.5 10q74 0 114 -34t40 -98zM172 566l11 48l-32 -34l-61 -40 l-51 80l164 115h88v-444h-119v275z" />
<glyph unicode="&#xbe;" horiz-adv-x="941" d="M660 744l88 -52l-447 -707l-90 56zM892 81h-79v-81h-105v81h-215v70l226 294h94v-271h79v-93zM708 263l6 55h-5l-23 -51l-50 -68l-37 -34l54 9h55v89zM168 383q46 0 65 14.5t20 38.5q-1 23 -21 37t-73 14h-43v39l76 83l44 26l-60 -6h-120v99h295v-65l-91 -95l-35 -19v-5 l31 3q54 -2 85 -33t32 -87q-1 -37 -16.5 -64t-41 -45t-59.5 -26t-71 -8q-40 0 -75 6.5t-60 18.5l24 93q43 -19 94 -19z" />
<glyph unicode="&#xbf;" horiz-adv-x="472" d="M330 305q5 -54 -5 -92t-28.5 -65.5t-41.5 -47.5t-43.5 -38.5t-34.5 -39t-14 -48.5q0 -36 21 -58.5t73 -22.5q17 0 35.5 3.5t37 10.5t36 15.5t30.5 19.5l51 -100q-39 -27 -90 -44.5t-124 -17.5q-98 0 -153.5 46.5t-55.5 127.5q0 53 14 87.5t35.5 59t46 43t45.5 40t35 49.5 t14 72h116zM185 452q0 37 23 58t60 21q40 0 63 -21t23 -58q0 -36 -23 -58t-63 -22q-37 0 -60 22t-23 58z" />
<glyph unicode="&#xc0;" horiz-adv-x="629" d="M421 161h-223l-56 -161h-142l262 733h105l262 -733h-150zM234 276h156l-54 162l-22 114h-5l-22 -115zM415 782h-109l-165 92v31h166z" />
<glyph unicode="&#xc1;" horiz-adv-x="629" d="M421 161h-223l-56 -161h-142l262 733h105l262 -733h-150zM234 276h156l-54 162l-22 114h-5l-22 -115zM322 905h165v-31l-166 -92h-108z" />
<glyph unicode="&#xc2;" horiz-adv-x="629" d="M421 161h-223l-56 -161h-142l262 733h105l262 -733h-150zM234 276h156l-54 162l-22 114h-5l-22 -115zM268 905h100l132 -97v-40h-103l-60 42l-20 36l-22 -35l-65 -43h-101v41z" />
<glyph unicode="&#xc3;" horiz-adv-x="629" d="M421 161h-223l-56 -161h-142l262 733h105l262 -733h-150zM234 276h156l-54 162l-22 114h-5l-22 -115zM117 832q34 36 64.5 49.5t60.5 13.5q23 0 46 -5.5t44 -12.5t42 -12.5t40 -5.5q16 0 32 5t30 20l26 -70q-29 -27 -56.5 -38t-53.5 -11q-24 0 -46 6t-43 13t-42 13t-41 6 q-19 0 -38.5 -8t-39.5 -29z" />
<glyph unicode="&#xc4;" horiz-adv-x="629" d="M421 161h-223l-56 -161h-142l262 733h105l262 -733h-150zM234 276h156l-54 162l-22 114h-5l-22 -115zM129 830q0 27 19 43.5t60 16.5t59.5 -16.5t18.5 -43.5t-18.5 -43t-59.5 -16t-60 16t-19 43zM352 830q0 27 18.5 43.5t59.5 16.5q42 0 60.5 -16.5t18.5 -43.5t-18.5 -43 t-60.5 -16q-41 0 -59.5 16t-18.5 43z" />
<glyph unicode="&#xc5;" horiz-adv-x="629" d="M182 802q0 19 6 36t21.5 30t41 20t64.5 7q73 0 103 -24.5t30 -68.5q0 -30 -16.5 -52.5t-59.5 -32.5l257 -717h-150l-58 161h-223l-56 -161h-142l256 717q-41 9 -57.5 32t-16.5 53zM234 276h156l-54 162l-22 114h-5l-22 -115zM269 802q0 -32 46 -32q26 0 36.5 8t10.5 24 q0 18 -11 26t-36 8q-46 0 -46 -34z" />
<glyph unicode="&#xc6;" horiz-adv-x="896" d="M410 553l-38 -107l-87 -154h131v261h-6zM416 177h-193l-103 -177h-150l441 728h436v-127h-289v-169h263v-127h-263v-178h294v-127h-436v177z" />
<glyph unicode="&#xc7;" horiz-adv-x="581" d="M555 30q-27 -20 -68 -30t-87 -14l-16 -31q42 -4 66.5 -22t24.5 -56q0 -24 -12 -41.5t-32.5 -29.5t-48.5 -18t-61 -6q-32 0 -66 6l9 50q7 -1 13.5 -1h11.5q40 0 51.5 9t11.5 22q0 29 -90 33l52 88q-57 7 -107 31.5t-87.5 70t-58.5 113t-21 160.5q0 107 29.5 179.5 t76.5 116.5t105.5 63.5t116.5 19.5q63 0 106 -8.5t71 -20.5l-28 -120q-24 11 -57 16.5t-79 5.5q-87 0 -139.5 -61.5t-52.5 -190.5q0 -56 12.5 -102.5t38 -79t63.5 -51t88 -18.5q47 0 79 9.5t56 24.5z" />
<glyph unicode="&#xc8;" horiz-adv-x="542" d="M62 728h432v-127h-289v-169h263v-127h-263v-178h294v-127h-437v728zM366 782h-109l-165 92v31h166z" />
<glyph unicode="&#xc9;" horiz-adv-x="542" d="M62 728h432v-127h-289v-169h263v-127h-263v-178h294v-127h-437v728zM305 905h165v-31l-166 -92h-108z" />
<glyph unicode="&#xca;" horiz-adv-x="542" d="M62 728h432v-127h-289v-169h263v-127h-263v-178h294v-127h-437v728zM228 905h100l132 -97v-40h-103l-60 42l-20 36l-22 -35l-65 -43h-101v41z" />
<glyph unicode="&#xcb;" horiz-adv-x="542" d="M62 728h432v-127h-289v-169h263v-127h-263v-178h294v-127h-437v728zM87 830q0 27 19 43.5t60 16.5t59.5 -16.5t18.5 -43.5t-18.5 -43t-59.5 -16t-60 16t-19 43zM310 830q0 27 18.5 43.5t59.5 16.5q42 0 60.5 -16.5t18.5 -43.5t-18.5 -43t-60.5 -16q-41 0 -59.5 16 t-18.5 43z" />
<glyph unicode="&#xcc;" horiz-adv-x="296" d="M77 728h142v-728h-142v728zM251 782h-109l-165 92v31h166z" />
<glyph unicode="&#xcd;" horiz-adv-x="296" d="M77 728h142v-728h-142v728zM160 905h165v-31l-166 -92h-108z" />
<glyph unicode="&#xce;" horiz-adv-x="296" d="M77 728h142v-728h-142v728zM101 905h100l132 -97v-40h-103l-60 42l-20 36l-22 -35l-65 -43h-101v41z" />
<glyph unicode="&#xcf;" horiz-adv-x="296" d="M77 728h142v-728h-142v728zM-40 830q0 27 19 43.5t60 16.5t59.5 -16.5t18.5 -43.5t-18.5 -43t-59.5 -16t-60 16t-19 43zM183 830q0 27 18.5 43.5t59.5 16.5q42 0 60.5 -16.5t18.5 -43.5t-18.5 -43t-60.5 -16q-41 0 -59.5 16t-18.5 43z" />
<glyph unicode="&#xd0;" horiz-adv-x="695" d="M-6 417h91v311q22 3 49.5 5t56.5 3t57 1.5t49 0.5q97 0 165.5 -27t111.5 -75.5t62.5 -116.5t19.5 -149q0 -74 -18.5 -142.5t-62.5 -121.5t-115 -85t-176 -32q-17 0 -44.5 1t-57 2.5t-56.5 3t-41 3.5v335h-91v83zM309 612q-23 0 -46.5 -1.5t-34.5 -3.5v-190h145v-83h-145 v-215q4 -1 14 -2t21.5 -1.5t21.5 -0.5h16q60 0 100 21.5t63.5 57t32.5 81.5t9 95q0 43 -8 86t-30.5 77.5t-61 56.5t-97.5 22z" />
<glyph unicode="&#xd1;" horiz-adv-x="683" d="M243 380l-57 114h-5l17 -114v-380h-136v733h104l276 -388l55 -111h5l-16 111v383h135v-733h-104zM143 832q34 36 64.5 49.5t60.5 13.5q23 0 46 -5.5t44 -12.5t42 -12.5t40 -5.5q16 0 32 5t30 20l26 -70q-29 -27 -56.5 -38t-53.5 -11q-24 0 -46 6t-43 13t-42 13t-41 6 q-19 0 -38.5 -8t-39.5 -29z" />
<glyph unicode="&#xd2;" horiz-adv-x="696" d="M40 364q0 182 80 280.5t228 98.5q78 0 136.5 -27.5t97 -77t57 -119.5t18.5 -155q0 -182 -80.5 -280.5t-228.5 -98.5q-79 0 -137 27.5t-96 77t-56.5 119.5t-18.5 155zM189 364q0 -55 9.5 -101.5t28.5 -79.5t49.5 -52t71.5 -19q76 0 118 59.5t42 192.5q0 53 -9 99t-28 80 t-49 53.5t-74 19.5q-76 0 -117.5 -61t-41.5 -191zM429 782h-109l-165 92v31h166z" />
<glyph unicode="&#xd3;" horiz-adv-x="696" d="M40 364q0 182 80 280.5t228 98.5q78 0 136.5 -27.5t97 -77t57 -119.5t18.5 -155q0 -182 -80.5 -280.5t-228.5 -98.5q-79 0 -137 27.5t-96 77t-56.5 119.5t-18.5 155zM189 364q0 -55 9.5 -101.5t28.5 -79.5t49.5 -52t71.5 -19q76 0 118 59.5t42 192.5q0 53 -9 99t-28 80 t-49 53.5t-74 19.5q-76 0 -117.5 -61t-41.5 -191zM383 905h165v-31l-166 -92h-108z" />
<glyph unicode="&#xd4;" horiz-adv-x="696" d="M40 364q0 182 80 280.5t228 98.5q78 0 136.5 -27.5t97 -77t57 -119.5t18.5 -155q0 -182 -80.5 -280.5t-228.5 -98.5q-79 0 -137 27.5t-96 77t-56.5 119.5t-18.5 155zM189 364q0 -55 9.5 -101.5t28.5 -79.5t49.5 -52t71.5 -19q76 0 118 59.5t42 192.5q0 53 -9 99t-28 80 t-49 53.5t-74 19.5q-76 0 -117.5 -61t-41.5 -191zM299 905h100l132 -97v-40h-103l-60 42l-20 36l-22 -35l-65 -43h-101v41z" />
<glyph unicode="&#xd5;" horiz-adv-x="696" d="M40 364q0 182 80 280.5t228 98.5q78 0 136.5 -27.5t97 -77t57 -119.5t18.5 -155q0 -182 -80.5 -280.5t-228.5 -98.5q-79 0 -137 27.5t-96 77t-56.5 119.5t-18.5 155zM189 364q0 -55 9.5 -101.5t28.5 -79.5t49.5 -52t71.5 -19q76 0 118 59.5t42 192.5q0 53 -9 99t-28 80 t-49 53.5t-74 19.5q-76 0 -117.5 -61t-41.5 -191zM149 832q34 36 64.5 49.5t60.5 13.5q23 0 46 -5.5t44 -12.5t42 -12.5t40 -5.5q16 0 32 5t30 20l26 -70q-29 -27 -56.5 -38t-53.5 -11q-24 0 -46 6t-43 13t-42 13t-41 6q-19 0 -38.5 -8t-39.5 -29z" />
<glyph unicode="&#xd6;" horiz-adv-x="696" d="M40 364q0 182 80 280.5t228 98.5q78 0 136.5 -27.5t97 -77t57 -119.5t18.5 -155q0 -182 -80.5 -280.5t-228.5 -98.5q-79 0 -137 27.5t-96 77t-56.5 119.5t-18.5 155zM189 364q0 -55 9.5 -101.5t28.5 -79.5t49.5 -52t71.5 -19q76 0 118 59.5t42 192.5q0 53 -9 99t-28 80 t-49 53.5t-74 19.5q-76 0 -117.5 -61t-41.5 -191zM156 830q0 27 19 43.5t60 16.5t59.5 -16.5t18.5 -43.5t-18.5 -43t-59.5 -16t-60 16t-19 43zM379 830q0 27 18.5 43.5t59.5 16.5q42 0 60.5 -16.5t18.5 -43.5t-18.5 -43t-60.5 -16q-41 0 -59.5 16t-18.5 43z" />
<glyph unicode="&#xd7;" horiz-adv-x="548" d="M139 569l137 -135l135 135l82 -84l-135 -132l135 -135l-82 -85l-135 136l-138 -137l-82 84l136 137l-134 132z" />
<glyph unicode="&#xd8;" horiz-adv-x="696" d="M115 89q-38 50 -56.5 119.5t-18.5 155.5q0 182 80 280.5t228 98.5q47 0 86.5 -10.5t71.5 -29.5l26 41l89 -52l-37 -59q37 -50 55 -118t18 -151q0 -182 -80.5 -280.5t-228.5 -98.5q-45 0 -82.5 9t-69.5 26l-22 -35l-90 56zM189 364q0 -37 4.5 -70.5t12.5 -61.5l228 356 q-37 28 -86 28q-76 0 -117.5 -61t-41.5 -191zM508 364q0 34 -3.5 66t-11.5 59l-224 -354q35 -23 79 -23q76 0 118 59.5t42 192.5z" />
<glyph unicode="&#xd9;" horiz-adv-x="652" d="M458 728h135v-470q0 -71 -19 -122t-52 -84t-81 -48.5t-105 -15.5q-277 0 -277 252v488h143v-460q0 -42 7.5 -72t24.5 -48t42 -26t58 -8q65 0 94.5 36.5t29.5 117.5v460zM411 782h-109l-165 92v31h166z" />
<glyph unicode="&#xda;" horiz-adv-x="652" d="M458 728h135v-470q0 -71 -19 -122t-52 -84t-81 -48.5t-105 -15.5q-277 0 -277 252v488h143v-460q0 -42 7.5 -72t24.5 -48t42 -26t58 -8q65 0 94.5 36.5t29.5 117.5v460zM380 905h165v-31l-166 -92h-108z" />
<glyph unicode="&#xdb;" horiz-adv-x="652" d="M458 728h135v-470q0 -71 -19 -122t-52 -84t-81 -48.5t-105 -15.5q-277 0 -277 252v488h143v-460q0 -42 7.5 -72t24.5 -48t42 -26t58 -8q65 0 94.5 36.5t29.5 117.5v460zM284 905h100l132 -97v-40h-103l-60 42l-20 36l-22 -35l-65 -43h-101v41z" />
<glyph unicode="&#xdc;" horiz-adv-x="652" d="M458 728h135v-470q0 -71 -19 -122t-52 -84t-81 -48.5t-105 -15.5q-277 0 -277 252v488h143v-460q0 -42 7.5 -72t24.5 -48t42 -26t58 -8q65 0 94.5 36.5t29.5 117.5v460zM138 830q0 27 19 43.5t60 16.5t59.5 -16.5t18.5 -43.5t-18.5 -43t-59.5 -16t-60 16t-19 43zM361 830 q0 27 18.5 43.5t59.5 16.5q42 0 60.5 -16.5t18.5 -43.5t-18.5 -43t-60.5 -16q-41 0 -59.5 16t-18.5 43z" />
<glyph unicode="&#xdd;" horiz-adv-x="615" d="M237 270l-239 458h169l134 -274l14 -76h5l16 79l129 271h153l-238 -457v-271h-143v270zM339 905h165v-31l-166 -92h-108z" />
<glyph unicode="&#xde;" horiz-adv-x="594" d="M62 728h143v-75q14 1 29 1.5t29 0.5q54 0 108.5 -8.5t98.5 -35.5t71.5 -74t27.5 -123q0 -69 -24 -116t-63.5 -77.5t-90 -44t-104.5 -13.5h-16.5t-24 0.5t-24.5 1.5t-17 2v-167h-143v728zM275 532q-21 0 -40 -1.5t-30 -3.5v-236q4 -1 12.5 -2t17.5 -1.5t18 -0.5h13 q28 0 55.5 5t49.5 19.5t35 39t13 65.5q0 34 -12.5 56.5t-32.5 36t-46 18.5t-53 5z" />
<glyph unicode="&#xdf;" horiz-adv-x="655" d="M84 406h-72v114h72q0 60 17 101t46.5 66.5t70.5 37t90 11.5q53 0 95 -12t71.5 -33.5t46 -52.5t16.5 -68q0 -41 -18.5 -66t-40.5 -42.5t-40.5 -33t-18.5 -38.5q0 -19 15 -30.5t38.5 -21t50 -20.5t50 -29t38.5 -45.5t15 -69.5q0 -37 -11.5 -70.5t-36 -60t-61.5 -42.5 t-86 -16t-90 12t-71 30l37 101q24 -14 48 -24t64 -10q31 0 51.5 21t20.5 51q0 22 -15 35.5t-38.5 24.5t-50 21.5t-50 26.5t-38.5 40t-15 61q0 45 18 70t40.5 42t40.5 32t18 39q0 14 -7 26t-19.5 20.5t-28 13.5t-31.5 5q-50 0 -73.5 -24.5t-23.5 -90.5v-508h-134v406z" />
<glyph unicode="&#xe0;" horiz-adv-x="515" d="M56 490q42 19 99 29.5t120 10.5q54 0 90 -13t57.5 -36.5t30.5 -57t9 -75.5q0 -45 -3 -91.5t-4 -91t2.5 -87t15.5 -79.5h-110l-22 72h-5q-21 -33 -58 -56t-95 -23q-36 0 -65.5 11t-50 31t-32 47.5t-11.5 62.5q0 47 21.5 80t61.5 53t95.5 28t124.5 5q7 58 -8.5 83.5 t-69.5 25.5q-41 0 -86 -8.5t-75 -21.5zM228 103q40 0 64 18t36 39v68q-33 3 -62.5 1t-52.5 -9.5t-36.5 -21t-13.5 -34.5q0 -29 17.5 -45t47.5 -16zM323 589h-75l-129 129v31h142z" />
<glyph unicode="&#xe1;" horiz-adv-x="515" d="M56 490q42 19 99 29.5t120 10.5q54 0 90 -13t57.5 -36.5t30.5 -57t9 -75.5q0 -45 -3 -91.5t-4 -91t2.5 -87t15.5 -79.5h-110l-22 72h-5q-21 -33 -58 -56t-95 -23q-36 0 -65.5 11t-50 31t-32 47.5t-11.5 62.5q0 47 21.5 80t61.5 53t95.5 28t124.5 5q7 58 -8.5 83.5 t-69.5 25.5q-41 0 -86 -8.5t-75 -21.5zM228 103q40 0 64 18t36 39v68q-33 3 -62.5 1t-52.5 -9.5t-36.5 -21t-13.5 -34.5q0 -29 17.5 -45t47.5 -16zM247 749h137v-31l-116 -129h-77z" />
<glyph unicode="&#xe2;" horiz-adv-x="515" d="M56 490q42 19 99 29.5t120 10.5q54 0 90 -13t57.5 -36.5t30.5 -57t9 -75.5q0 -45 -3 -91.5t-4 -91t2.5 -87t15.5 -79.5h-110l-22 72h-5q-21 -33 -58 -56t-95 -23q-36 0 -65.5 11t-50 31t-32 47.5t-11.5 62.5q0 47 21.5 80t61.5 53t95.5 28t124.5 5q7 58 -8.5 83.5 t-69.5 25.5q-41 0 -86 -8.5t-75 -21.5zM228 103q40 0 64 18t36 39v68q-33 3 -62.5 1t-52.5 -9.5t-36.5 -21t-13.5 -34.5q0 -29 17.5 -45t47.5 -16zM224 761h90l115 -189h-107l-40 69l-18 51l-18 -51l-47 -69h-103z" />
<glyph unicode="&#xe3;" horiz-adv-x="515" d="M56 490q42 19 99 29.5t120 10.5q54 0 90 -13t57.5 -36.5t30.5 -57t9 -75.5q0 -45 -3 -91.5t-4 -91t2.5 -87t15.5 -79.5h-110l-22 72h-5q-21 -33 -58 -56t-95 -23q-36 0 -65.5 11t-50 31t-32 47.5t-11.5 62.5q0 47 21.5 80t61.5 53t95.5 28t124.5 5q7 58 -8.5 83.5 t-69.5 25.5q-41 0 -86 -8.5t-75 -21.5zM228 103q40 0 64 18t36 39v68q-33 3 -62.5 1t-52.5 -9.5t-36.5 -21t-13.5 -34.5q0 -29 17.5 -45t47.5 -16zM89 684q33 39 60.5 53.5t52.5 14.5q21 0 40 -7.5t37.5 -15.5t36.5 -15.5t37 -7.5q14 0 29 6.5t32 21.5l21 -73 q-30 -33 -55.5 -45.5t-49.5 -12.5q-21 0 -41 7t-38.5 15t-37.5 15t-37 7q-16 0 -32.5 -7t-34.5 -23z" />
<glyph unicode="&#xe4;" horiz-adv-x="515" d="M56 490q42 19 99 29.5t120 10.5q54 0 90 -13t57.5 -36.5t30.5 -57t9 -75.5q0 -45 -3 -91.5t-4 -91t2.5 -87t15.5 -79.5h-110l-22 72h-5q-21 -33 -58 -56t-95 -23q-36 0 -65.5 11t-50 31t-32 47.5t-11.5 62.5q0 47 21.5 80t61.5 53t95.5 28t124.5 5q7 58 -8.5 83.5 t-69.5 25.5q-41 0 -86 -8.5t-75 -21.5zM228 103q40 0 64 18t36 39v68q-33 3 -62.5 1t-52.5 -9.5t-36.5 -21t-13.5 -34.5q0 -29 17.5 -45t47.5 -16zM78 677q0 33 20.5 53t53.5 20q34 0 53 -20t19 -53q0 -31 -19 -51t-53 -20q-33 0 -53.5 20t-20.5 51zM306 677q0 33 19.5 53 t52.5 20t53.5 -20t20.5 -53q0 -31 -20.5 -51t-53.5 -20t-52.5 20t-19.5 51z" />
<glyph unicode="&#xe5;" horiz-adv-x="515" d="M56 490q42 19 99 29.5t120 10.5q54 0 90 -13t57.5 -36.5t30.5 -57t9 -75.5q0 -45 -3 -91.5t-4 -91t2.5 -87t15.5 -79.5h-110l-22 72h-5q-21 -33 -58 -56t-95 -23q-36 0 -65.5 11t-50 31t-32 47.5t-11.5 62.5q0 47 21.5 80t61.5 53t95.5 28t124.5 5q7 58 -8.5 83.5 t-69.5 25.5q-41 0 -86 -8.5t-75 -21.5zM228 103q40 0 64 18t36 39v68q-33 3 -62.5 1t-52.5 -9.5t-36.5 -21t-13.5 -34.5q0 -29 17.5 -45t47.5 -16zM149 673q0 44 30 72t86 28q53 0 84 -25.5t31 -74.5q0 -41 -30.5 -69.5t-84.5 -28.5q-55 0 -85.5 26.5t-30.5 71.5zM224 673 q0 -17 12.5 -25.5t28.5 -8.5q18 0 29 8t11 26t-12 26.5t-28 8.5t-28.5 -8t-12.5 -27z" />
<glyph unicode="&#xe6;" horiz-adv-x="816" d="M228 103q40 0 64 18t36 39v68q-33 3 -62.5 1t-52.5 -9.5t-36.5 -21t-13.5 -34.5q0 -29 17.5 -45t47.5 -16zM364 79q-28 -35 -69 -61t-112 -26q-36 0 -65.5 11t-50 31t-32 47.5t-11.5 62.5q0 47 21.5 80t61 53t95 28t124.5 5q7 58 -8 83.5t-69 25.5q-41 0 -83 -11t-74 -26 l-36 97q40 21 98 36t121 15q54 0 86 -14t53 -42q26 29 67.5 45t90.5 16q40 0 77 -10.5t66.5 -34.5t47 -64.5t17.5 -101.5q0 -21 -2.5 -45.5t-7.5 -52.5h-313q4 -66 34.5 -99t99.5 -33q42 0 76 13t52 26l44 -88q-31 -25 -84.5 -42.5t-113.5 -17.5q-67 0 -117.5 24.5 t-78.5 69.5h-5zM570 426q-53 0 -78.5 -31.5t-30.5 -84.5h194q3 56 -17.5 86t-67.5 30z" />
<glyph unicode="&#xe7;" horiz-adv-x="450" d="M427 32q-23 -17 -54 -27.5t-65 -15.5l-19 -34q43 -4 67.5 -22t24.5 -56q0 -24 -12 -41.5t-33 -29.5t-49 -18t-60 -6q-33 0 -67 6l10 50q7 -1 13 -1h11q40 0 51.5 9t11.5 22q0 29 -90 33l52 88q-51 6 -86 28.5t-57 57t-32 82t-10 103.5q0 132 59.5 203.5t172.5 71.5 q57 0 92 -9.5t63 -24.5l-32 -110q-24 11 -47.5 17.5t-53.5 6.5q-56 0 -85 -37t-29 -118q0 -33 7 -61t21.5 -49t38 -33t54.5 -12q35 0 59 9t42 21z" />
<glyph unicode="&#xe8;" horiz-adv-x="528" d="M475 45q-31 -25 -84.5 -42.5t-113.5 -17.5q-126 0 -184.5 73.5t-58.5 201.5q0 137 65.5 206t184.5 69q39 0 76.5 -10.5t67 -34.5t47 -64.5t17.5 -101.5q0 -21 -2.5 -46t-7.5 -52h-312q3 -66 33.5 -99t99.5 -33q42 0 76 13t52 26zM282 426q-53 0 -78.5 -31.5t-30.5 -84.5 h193q4 56 -17 86t-67 30zM342 589h-75l-129 129v31h142z" />
<glyph unicode="&#xe9;" horiz-adv-x="528" d="M475 45q-31 -25 -84.5 -42.5t-113.5 -17.5q-126 0 -184.5 73.5t-58.5 201.5q0 137 65.5 206t184.5 69q39 0 76.5 -10.5t67 -34.5t47 -64.5t17.5 -101.5q0 -21 -2.5 -46t-7.5 -52h-312q3 -66 33.5 -99t99.5 -33q42 0 76 13t52 26zM282 426q-53 0 -78.5 -31.5t-30.5 -84.5 h193q4 56 -17 86t-67 30zM285 749h137v-31l-116 -129h-77z" />
<glyph unicode="&#xea;" horiz-adv-x="528" d="M475 45q-31 -25 -84.5 -42.5t-113.5 -17.5q-126 0 -184.5 73.5t-58.5 201.5q0 137 65.5 206t184.5 69q39 0 76.5 -10.5t67 -34.5t47 -64.5t17.5 -101.5q0 -21 -2.5 -46t-7.5 -52h-312q3 -66 33.5 -99t99.5 -33q42 0 76 13t52 26zM282 426q-53 0 -78.5 -31.5t-30.5 -84.5 h193q4 56 -17 86t-67 30zM230 761h90l115 -189h-107l-40 69l-18 51l-18 -51l-47 -69h-103z" />
<glyph unicode="&#xeb;" horiz-adv-x="528" d="M475 45q-31 -25 -84.5 -42.5t-113.5 -17.5q-126 0 -184.5 73.5t-58.5 201.5q0 137 65.5 206t184.5 69q39 0 76.5 -10.5t67 -34.5t47 -64.5t17.5 -101.5q0 -21 -2.5 -46t-7.5 -52h-312q3 -66 33.5 -99t99.5 -33q42 0 76 13t52 26zM282 426q-53 0 -78.5 -31.5t-30.5 -84.5 h193q4 56 -17 86t-67 30zM85 677q0 33 20.5 53t53.5 20q34 0 53 -20t19 -53q0 -31 -19 -51t-53 -20q-33 0 -53.5 20t-20.5 51zM313 677q0 33 19.5 53t52.5 20t53.5 -20t20.5 -53q0 -31 -20.5 -51t-53.5 -20t-52.5 20t-19.5 51z" />
<glyph unicode="&#xec;" horiz-adv-x="279" d="M73 520h135v-520h-135v520zM202 589h-75l-129 129v31h142z" />
<glyph unicode="&#xed;" horiz-adv-x="279" d="M73 520h135v-520h-135v520zM129 749h137v-31l-116 -129h-77z" />
<glyph unicode="&#xee;" horiz-adv-x="279" d="M73 520h135v-520h-135v520zM96 761h90l115 -189h-107l-40 69l-18 51l-18 -51l-47 -69h-103z" />
<glyph unicode="&#xef;" horiz-adv-x="279" d="M73 520h135v-520h-135v520zM-47 677q0 33 20.5 53t53.5 20q34 0 53 -20t19 -53q0 -31 -19 -51t-53 -20q-33 0 -53.5 20t-20.5 51zM181 677q0 33 19.5 53t52.5 20t53.5 -20t20.5 -53q0 -31 -20.5 -51t-53.5 -20t-52.5 20t-19.5 51z" />
<glyph unicode="&#xf0;" horiz-adv-x="585" d="M170 253q0 -75 34 -113.5t91 -38.5q54 0 88.5 46t34.5 144q0 14 -1.5 35.5t-5.5 34.5q-17 24 -50 34t-65 10q-62 0 -94 -43.5t-32 -108.5zM205 607l46 32q-36 15 -72 21l54 84q26 -8 59 -21q24 -10 49 -23l55 37l44 -57l-34 -24q12 -9 24 -21q33 -31 59 -76t42 -105.5 t16 -139.5q0 -84 -19 -146t-53.5 -102.5t-82.5 -60.5t-105 -20q-61 0 -108 20t-78 56t-47 85.5t-16 108.5q0 56 18 104t49.5 83.5t76.5 56t98 20.5q39 0 73 -11t55 -32q-13 38 -36 69q-23 30 -52 53l-70 -48z" />
<glyph unicode="&#xf1;" horiz-adv-x="566" d="M378 0v295q0 64 -18.5 92t-62.5 28q-38 0 -64.5 -22.5t-38.5 -55.5v-337h-135v520h107l16 -69h4q24 34 63.5 59t102.5 25q38 0 68 -10.5t51 -34.5t31.5 -65t10.5 -102v-323h-135zM111 684q33 39 60.5 53.5t52.5 14.5q21 0 40 -7.5t37.5 -15.5t36.5 -15.5t37 -7.5 q14 0 29 6.5t32 21.5l21 -73q-30 -33 -55.5 -45.5t-49.5 -12.5q-21 0 -41 7t-38.5 15t-37.5 15t-37 7q-16 0 -32.5 -7t-34.5 -23z" />
<glyph unicode="&#xf2;" horiz-adv-x="558" d="M34 260q0 132 64.5 203.5t181.5 71.5q62 0 108 -20t76 -56t45 -87t15 -112q0 -132 -64 -203.5t-180 -71.5q-63 0 -108.5 20t-76.5 56t-46 87t-15 112zM174 260q0 -34 6 -63.5t18.5 -51t33 -33.5t48.5 -12q53 0 79 38.5t26 121.5q0 72 -24 116t-81 44q-50 0 -78 -37.5 t-28 -122.5zM344 589h-75l-129 129v31h142z" />
<glyph unicode="&#xf3;" horiz-adv-x="558" d="M34 260q0 132 64.5 203.5t181.5 71.5q62 0 108 -20t76 -56t45 -87t15 -112q0 -132 -64 -203.5t-180 -71.5q-63 0 -108.5 20t-76.5 56t-46 87t-15 112zM174 260q0 -34 6 -63.5t18.5 -51t33 -33.5t48.5 -12q53 0 79 38.5t26 121.5q0 72 -24 116t-81 44q-50 0 -78 -37.5 t-28 -122.5zM286 749h137v-31l-116 -129h-77z" />
<glyph unicode="&#xf4;" horiz-adv-x="558" d="M34 260q0 132 64.5 203.5t181.5 71.5q62 0 108 -20t76 -56t45 -87t15 -112q0 -132 -64 -203.5t-180 -71.5q-63 0 -108.5 20t-76.5 56t-46 87t-15 112zM174 260q0 -34 6 -63.5t18.5 -51t33 -33.5t48.5 -12q53 0 79 38.5t26 121.5q0 72 -24 116t-81 44q-50 0 -78 -37.5 t-28 -122.5zM240 761h90l115 -189h-107l-40 69l-18 51l-18 -51l-47 -69h-103z" />
<glyph unicode="&#xf5;" horiz-adv-x="558" d="M34 260q0 132 64.5 203.5t181.5 71.5q62 0 108 -20t76 -56t45 -87t15 -112q0 -132 -64 -203.5t-180 -71.5q-63 0 -108.5 20t-76.5 56t-46 87t-15 112zM174 260q0 -34 6 -63.5t18.5 -51t33 -33.5t48.5 -12q53 0 79 38.5t26 121.5q0 72 -24 116t-81 44q-50 0 -78 -37.5 t-28 -122.5zM108 684q33 39 60.5 53.5t52.5 14.5q21 0 40 -7.5t37.5 -15.5t36.5 -15.5t37 -7.5q14 0 29 6.5t32 21.5l21 -73q-30 -33 -55.5 -45.5t-49.5 -12.5q-21 0 -41 7t-38.5 15t-37.5 15t-37 7q-16 0 -32.5 -7t-34.5 -23z" />
<glyph unicode="&#xf6;" horiz-adv-x="558" d="M34 260q0 132 64.5 203.5t181.5 71.5q62 0 108 -20t76 -56t45 -87t15 -112q0 -132 -64 -203.5t-180 -71.5q-63 0 -108.5 20t-76.5 56t-46 87t-15 112zM174 260q0 -34 6 -63.5t18.5 -51t33 -33.5t48.5 -12q53 0 79 38.5t26 121.5q0 72 -24 116t-81 44q-50 0 -78 -37.5 t-28 -122.5zM91 677q0 33 20.5 53t53.5 20q34 0 53 -20t19 -53q0 -31 -19 -51t-53 -20q-33 0 -53.5 20t-20.5 51zM319 677q0 33 19.5 53t52.5 20t53.5 -20t20.5 -53q0 -31 -20.5 -51t-53.5 -20t-52.5 20t-19.5 51z" />
<glyph unicode="&#xf7;" horiz-adv-x="548" d="M45 410h459v-117h-459v117zM191 553q0 37 23 58t61 21q39 0 62 -21t23 -58q0 -36 -23 -58t-62 -22q-38 0 -61 22t-23 58zM191 151q0 36 23 57.5t61 21.5q39 0 62 -21.5t23 -57.5q0 -37 -23 -58.5t-62 -21.5q-38 0 -61 21.5t-23 58.5z" />
<glyph unicode="&#xf8;" horiz-adv-x="557" d="M34 260q0 132 64 203.5t181 71.5q33 0 61 -6t52 -17l25 35l83 -61l-28 -40q26 -35 38.5 -82.5t12.5 -103.5q0 -132 -64 -203.5t-180 -71.5q-36 0 -65.5 7t-54.5 18l-26 -35l-86 62l32 45q-23 34 -34 79.5t-11 98.5zM384 260q0 38 -9 74l-155 -215q23 -19 59 -19 q53 0 79 38.5t26 121.5zM174 260q0 -36 6 -68l153 213q-22 15 -54 15q-50 0 -77.5 -37.5t-27.5 -122.5z" />
<glyph unicode="&#xf9;" horiz-adv-x="559" d="M189 520v-295q0 -64 15 -92t59 -28q39 0 64.5 23t37.5 56v336h135v-362q0 -43 4.5 -84t12.5 -74h-102l-24 77h-4q-24 -40 -66.5 -66t-101.5 -26q-39 0 -70 10.5t-52 34.5t-32 64.5t-11 102.5v323h135zM330 589h-75l-129 129v31h142z" />
<glyph unicode="&#xfa;" horiz-adv-x="559" d="M189 520v-295q0 -64 15 -92t59 -28q39 0 64.5 23t37.5 56v336h135v-362q0 -43 4.5 -84t12.5 -74h-102l-24 77h-4q-24 -40 -66.5 -66t-101.5 -26q-39 0 -70 10.5t-52 34.5t-32 64.5t-11 102.5v323h135zM272 749h137v-31l-116 -129h-77z" />
<glyph unicode="&#xfb;" horiz-adv-x="559" d="M189 520v-295q0 -64 15 -92t59 -28q39 0 64.5 23t37.5 56v336h135v-362q0 -43 4.5 -84t12.5 -74h-102l-24 77h-4q-24 -40 -66.5 -66t-101.5 -26q-39 0 -70 10.5t-52 34.5t-32 64.5t-11 102.5v323h135zM241 761h90l115 -189h-107l-40 69l-18 51l-18 -51l-47 -69h-103z" />
<glyph unicode="&#xfc;" horiz-adv-x="559" d="M189 520v-295q0 -64 15 -92t59 -28q39 0 64.5 23t37.5 56v336h135v-362q0 -43 4.5 -84t12.5 -74h-102l-24 77h-4q-24 -40 -66.5 -66t-101.5 -26q-39 0 -70 10.5t-52 34.5t-32 64.5t-11 102.5v323h135zM91 677q0 33 20.5 53t53.5 20q34 0 53 -20t19 -53q0 -31 -19 -51 t-53 -20q-33 0 -53.5 20t-20.5 51zM319 677q0 33 19.5 53t52.5 20t53.5 -20t20.5 -53q0 -31 -20.5 -51t-53.5 -20t-52.5 20t-19.5 51z" />
<glyph unicode="&#xfd;" horiz-adv-x="497" d="M249 228l18 -81h7l13 82l79 291h139l-158 -469q-19 -58 -37.5 -106.5t-40 -84t-48.5 -54.5t-63 -19q-54 0 -86 17l25 109q15 -7 31 -7q24 0 46.5 20.5t33.5 73.5l-217 520h162zM265 749h137v-31l-116 -129h-77z" />
<glyph unicode="&#xfe;" horiz-adv-x="561" d="M59 728h135v-253h5q21 27 52 43.5t81 16.5q98 0 146.5 -62t48.5 -199q0 -67 -15.5 -120.5t-46 -91t-75 -57.5t-101.5 -20q-32 0 -53 5t-42 15v-213h-135v936zM291 420q-37 0 -60.5 -19.5t-36.5 -59.5v-216q15 -12 32 -18.5t45 -6.5q59 0 88 41t29 136q0 68 -23 105.5 t-74 37.5z" />
<glyph unicode="&#xff;" horiz-adv-x="497" d="M249 228l18 -81h7l13 82l79 291h139l-158 -469q-19 -58 -37.5 -106.5t-40 -84t-48.5 -54.5t-63 -19q-54 0 -86 17l25 109q15 -7 31 -7q24 0 46.5 20.5t33.5 73.5l-217 520h162zM68 677q0 33 20.5 53t53.5 20q34 0 53 -20t19 -53q0 -31 -19 -51t-53 -20q-33 0 -53.5 20 t-20.5 51zM296 677q0 33 19.5 53t52.5 20t53.5 -20t20.5 -53q0 -31 -20.5 -51t-53.5 -20t-52.5 20t-19.5 51z" />
<glyph unicode="&#x100;" horiz-adv-x="629" d="M421 161h-223l-56 -161h-142l262 733h105l262 -733h-150zM234 276h156l-54 162l-22 114h-5l-22 -115zM134 890h357v-92h-357v92z" />
<glyph unicode="&#x101;" horiz-adv-x="515" d="M56 490q42 19 99 29.5t120 10.5q54 0 90 -13t57.5 -36.5t30.5 -57t9 -75.5q0 -45 -3 -91.5t-4 -91t2.5 -87t15.5 -79.5h-110l-22 72h-5q-21 -33 -58 -56t-95 -23q-36 0 -65.5 11t-50 31t-32 47.5t-11.5 62.5q0 47 21.5 80t61.5 53t95.5 28t124.5 5q7 58 -8.5 83.5 t-69.5 25.5q-41 0 -86 -8.5t-75 -21.5zM228 103q40 0 64 18t36 39v68q-33 3 -62.5 1t-52.5 -9.5t-36.5 -21t-13.5 -34.5q0 -29 17.5 -45t47.5 -16zM94 684h336v-95h-336v95z" />
<glyph unicode="&#x102;" horiz-adv-x="629" d="M421 161h-223l-56 -161h-142l262 733h105l262 -733h-150zM234 276h156l-54 162l-22 114h-5l-22 -115zM170 910q21 -27 60.5 -41.5t88.5 -14.5q50 0 86 15.5t57 40.5l51 -33q-13 -30 -33.5 -52t-46.5 -36.5t-56 -22t-59 -7.5q-28 0 -57.5 6.5t-56.5 19.5t-50 34t-38 53z " />
<glyph unicode="&#x103;" horiz-adv-x="515" d="M56 490q42 19 99 29.5t120 10.5q54 0 90 -13t57.5 -36.5t30.5 -57t9 -75.5q0 -45 -3 -91.5t-4 -91t2.5 -87t15.5 -79.5h-110l-22 72h-5q-21 -33 -58 -56t-95 -23q-36 0 -65.5 11t-50 31t-32 47.5t-11.5 62.5q0 47 21.5 80t61.5 53t95.5 28t124.5 5q7 58 -8.5 83.5 t-69.5 25.5q-41 0 -86 -8.5t-75 -21.5zM228 103q40 0 64 18t36 39v68q-33 3 -62.5 1t-52.5 -9.5t-36.5 -21t-13.5 -34.5q0 -29 17.5 -45t47.5 -16zM149 749q18 -31 49.5 -46.5t66.5 -15.5q36 0 65.5 16t45.5 46l62 -28q-3 -25 -17 -49.5t-37 -43.5t-53.5 -30t-66.5 -11 q-68 0 -117 34.5t-64 94.5z" />
<glyph unicode="&#x104;" horiz-adv-x="629" d="M421 161h-223l-56 -161h-142l262 733h105l262 -733h-22q-60 -23 -60 -76q0 -27 23 -40t64 8l20 -65q-15 -12 -49 -24t-70 -12q-59 0 -89.5 26t-30.5 69q0 39 24 67.5t66 46.5h-26zM234 276h156l-54 162l-22 114h-5l-22 -115z" />
<glyph unicode="&#x105;" horiz-adv-x="515" d="M56 485q40 21 93.5 33t125.5 12q54 0 90 -13t57.5 -36.5t30.5 -57t9 -75.5q0 -45 -3 -91.5t-4 -91t2.5 -87t15.5 -79.5h-24q-58 -25 -58 -75q0 -27 23 -40t64 8l20 -65q-15 -12 -49 -24t-70 -12q-59 0 -89.5 26t-30.5 69q0 41 27.5 70.5t74.5 47.5l-20 67h-5 q-21 -33 -58 -56t-95 -23q-36 0 -65.5 11t-50 31t-32 47.5t-11.5 62.5q0 47 21.5 80t61 53t95 28t124.5 5q7 58 -8 83.5t-69 25.5q-41 0 -83 -9t-74 -23zM228 103q40 0 64 18t36 39v68q-33 3 -62.5 1t-52.5 -9.5t-36.5 -21t-13.5 -34.5q0 -29 17.5 -45t47.5 -16z" />
<glyph unicode="&#x106;" horiz-adv-x="581" d="M555 30q-33 -24 -84.5 -34.5t-105.5 -10.5q-65 0 -124 20.5t-103.5 65.5t-71 117.5t-26.5 175.5q0 107 29.5 179.5t76.5 116.5t105.5 63.5t116.5 19.5q63 0 106 -8.5t71 -20.5l-28 -120q-24 11 -57 16.5t-79 5.5q-87 0 -139.5 -61.5t-52.5 -190.5q0 -56 12.5 -102.5 t38 -79t63.5 -51t88 -18.5q47 0 79 9.5t56 24.5zM391 905h165v-31l-166 -92h-108z" />
<glyph unicode="&#x107;" horiz-adv-x="450" d="M427 32q-31 -23 -75 -35t-91 -12q-62 0 -105.5 20t-70.5 56t-39 87t-12 112q0 132 59.5 203.5t172.5 71.5q57 0 92 -9.5t63 -24.5l-32 -110q-24 11 -47.5 17.5t-53.5 6.5q-56 0 -85 -37t-29 -118q0 -33 7 -61t21.5 -49t38 -33t54.5 -12q35 0 59 9t42 21zM260 749h137v-31 l-116 -129h-77z" />
<glyph unicode="&#x108;" horiz-adv-x="581" d="M555 30q-33 -24 -84.5 -34.5t-105.5 -10.5q-65 0 -124 20.5t-103.5 65.5t-71 117.5t-26.5 175.5q0 107 29.5 179.5t76.5 116.5t105.5 63.5t116.5 19.5q63 0 106 -8.5t71 -20.5l-28 -120q-24 11 -57 16.5t-79 5.5q-87 0 -139.5 -61.5t-52.5 -190.5q0 -56 12.5 -102.5 t38 -79t63.5 -51t88 -18.5q47 0 79 9.5t56 24.5zM300 905h100l132 -97v-40h-103l-60 42l-20 36l-22 -35l-65 -43h-101v41z" />
<glyph unicode="&#x109;" horiz-adv-x="450" d="M427 32q-31 -23 -75 -35t-91 -12q-62 0 -105.5 20t-70.5 56t-39 87t-12 112q0 132 59.5 203.5t172.5 71.5q57 0 92 -9.5t63 -24.5l-32 -110q-24 11 -47.5 17.5t-53.5 6.5q-56 0 -85 -37t-29 -118q0 -33 7 -61t21.5 -49t38 -33t54.5 -12q35 0 59 9t42 21zM212 761h90 l115 -189h-107l-40 69l-18 51l-18 -51l-47 -69h-103z" />
<glyph unicode="&#x10c;" horiz-adv-x="581" d="M555 30q-33 -24 -84.5 -34.5t-105.5 -10.5q-65 0 -124 20.5t-103.5 65.5t-71 117.5t-26.5 175.5q0 107 29.5 179.5t76.5 116.5t105.5 63.5t116.5 19.5q63 0 106 -8.5t71 -20.5l-28 -120q-24 11 -57 16.5t-79 5.5q-87 0 -139.5 -61.5t-52.5 -190.5q0 -56 12.5 -102.5 t38 -79t63.5 -51t88 -18.5q47 0 79 9.5t56 24.5zM401 766h-98l-132 98v41h110l55 -47l19 -31l22 30l59 48h104v-42z" />
<glyph unicode="&#x10d;" horiz-adv-x="450" d="M427 32q-31 -23 -75 -35t-91 -12q-62 0 -105.5 20t-70.5 56t-39 87t-12 112q0 132 59.5 203.5t172.5 71.5q57 0 92 -9.5t63 -24.5l-32 -110q-24 11 -47.5 17.5t-53.5 6.5q-56 0 -85 -37t-29 -118q0 -33 7 -61t21.5 -49t38 -33t54.5 -12q35 0 59 9t42 21zM298 572h-95 l-120 189h115l40 -68l17 -51l19 51l47 68h105z" />
<glyph unicode="&#x10e;" horiz-adv-x="672" d="M62 728q22 3 49.5 5t57 3t57 1.5t49.5 0.5q96 0 165 -27t111.5 -75.5t62 -116.5t19.5 -149q0 -74 -18.5 -142.5t-62 -121.5t-115 -85t-176.5 -32q-17 0 -44.5 1t-57 2.5t-56.5 3t-41 3.5v729zM286 612q-23 0 -46.5 -1.5t-34.5 -3.5v-487q4 -1 14 -1.5t21.5 -1.5 t21.5 -1.5t16 -0.5q60 0 100 21.5t63.5 57t33 81.5t9.5 95q0 43 -8.5 86t-31 77.5t-61 56.5t-97.5 22zM341 766h-98l-132 98v41h110l55 -47l19 -31l22 30l59 48h104v-42z" />
<glyph unicode="&#x10f;" horiz-adv-x="664" d="M501 183q0 -44 1 -87.5t10 -96.5h-97l-19 68h-4q-21 -37 -60 -59.5t-92 -22.5q-98 0 -152 64.5t-54 202.5q0 133 60.5 206.5t176.5 73.5q33 0 53.5 -3.5t41.5 -11.5v211h135v-545zM271 100q40 0 63 19t32 56v220q-14 12 -32 17.5t-46 5.5q-57 0 -85.5 -38.5t-28.5 -131.5 q0 -67 23 -107.5t74 -40.5zM681 728q-2 -30 -12.5 -63t-24.5 -62.5t-29.5 -53t-28.5 -33.5l-60 32q18 38 27.5 85t9.5 95h118z" />
<glyph unicode="&#x110;" horiz-adv-x="695" d="M-6 417h91v311q22 3 49.5 5t56.5 3t57 1.5t49 0.5q97 0 165.5 -27t111.5 -75.5t62.5 -116.5t19.5 -149q0 -74 -18.5 -142.5t-62.5 -121.5t-115 -85t-176 -32q-17 0 -44.5 1t-57 2.5t-56.5 3t-41 3.5v335h-91v83zM309 612q-23 0 -46.5 -1.5t-34.5 -3.5v-190h145v-83h-145 v-215q4 -1 14 -2t21.5 -1.5t21.5 -0.5h16q60 0 100 21.5t63.5 57t32.5 81.5t9 95q0 43 -8 86t-30.5 77.5t-61 56.5t-97.5 22z" />
<glyph unicode="&#x111;" horiz-adv-x="572" d="M501 667h79v-84h-79v-400q0 -44 1 -87.5t10 -96.5h-97l-19 68h-4q-21 -37 -60 -59.5t-92 -22.5q-98 0 -152 64.5t-54 202.5q0 133 60.5 206.5t176.5 73.5q33 0 53.5 -3.5t41.5 -11.5v66h-154v84h154v61h135v-61zM271 100q40 0 63 19t32 56v220q-14 12 -32 17.5t-46 5.5 q-57 0 -85.5 -38.5t-28.5 -131.5q0 -67 23 -107.5t74 -40.5z" />
<glyph unicode="&#x112;" horiz-adv-x="542" d="M62 728h432v-127h-289v-169h263v-127h-263v-178h294v-127h-437v728zM98 890h357v-92h-357v92z" />
<glyph unicode="&#x113;" horiz-adv-x="528" d="M475 45q-31 -25 -84.5 -42.5t-113.5 -17.5q-126 0 -184.5 73.5t-58.5 201.5q0 137 65.5 206t184.5 69q39 0 76.5 -10.5t67 -34.5t47 -64.5t17.5 -101.5q0 -21 -2.5 -46t-7.5 -52h-312q3 -66 33.5 -99t99.5 -33q42 0 76 13t52 26zM282 426q-53 0 -78.5 -31.5t-30.5 -84.5 h193q4 56 -17 86t-67 30zM100 684h336v-95h-336v95z" />
<glyph unicode="&#x116;" horiz-adv-x="542" d="M62 728h432v-127h-289v-169h263v-127h-263v-178h294v-127h-437v728zM198 831q0 26 22.5 44.5t67.5 18.5t68.5 -18.5t23.5 -44.5q0 -27 -23.5 -46t-68.5 -19t-67.5 19t-22.5 46z" />
<glyph unicode="&#x117;" horiz-adv-x="528" d="M475 45q-31 -25 -84.5 -42.5t-113.5 -17.5q-126 0 -184.5 73.5t-58.5 201.5q0 137 65.5 206t184.5 69q39 0 76.5 -10.5t67 -34.5t47 -64.5t17.5 -101.5q0 -21 -2.5 -46t-7.5 -52h-312q3 -66 33.5 -99t99.5 -33q42 0 76 13t52 26zM282 426q-53 0 -78.5 -31.5t-30.5 -84.5 h193q4 56 -17 86t-67 30zM193 667q0 30 22.5 51t62.5 21q39 0 63.5 -21t24.5 -51q0 -31 -24.5 -51t-63.5 -20q-40 0 -62.5 20t-22.5 51z" />
<glyph unicode="&#x118;" horiz-adv-x="542" d="M62 728h432v-127h-289v-169h263v-127h-263v-178h294v-127h-28q-60 -23 -60 -76q0 -19 11.5 -32t31.5 -13q19 0 44 13l20 -65q-16 -12 -49.5 -24t-70.5 -12q-58 0 -88.5 26t-30.5 69q0 39 24 67.5t66 46.5h-307v728z" />
<glyph unicode="&#x119;" horiz-adv-x="528" d="M475 45q-26 -21 -68 -37q-50 -32 -50 -79q0 -13 6 -24t17 -17.5t27 -6t37 11.5l20 -65q-16 -12 -49 -24.5t-70 -12.5q-59 0 -89.5 28.5t-30.5 71.5q0 29 12.5 53t34.5 41q-122 1 -179 73q-59 74 -59 202q0 137 65.5 206t184.5 69q39 0 76.5 -10.5t67 -34.5t47 -64.5 t17.5 -101.5q0 -21 -2.5 -46t-7.5 -52h-312q3 -66 33.5 -99t99.5 -33q42 0 76 13t52 26zM282 426q-53 0 -78.5 -31.5t-30.5 -84.5h193q4 56 -17 86t-67 30z" />
<glyph unicode="&#x11a;" horiz-adv-x="542" d="M62 728h432v-127h-289v-169h263v-127h-263v-178h294v-127h-437v728zM320 766h-98l-132 98v41h110l55 -47l19 -31l22 30l59 48h104v-42z" />
<glyph unicode="&#x11b;" horiz-adv-x="528" d="M475 45q-31 -25 -84.5 -42.5t-113.5 -17.5q-126 0 -184.5 73.5t-58.5 201.5q0 137 65.5 206t184.5 69q39 0 76.5 -10.5t67 -34.5t47 -64.5t17.5 -101.5q0 -21 -2.5 -46t-7.5 -52h-312q3 -66 33.5 -99t99.5 -33q42 0 76 13t52 26zM282 426q-53 0 -78.5 -31.5t-30.5 -84.5 h193q4 56 -17 86t-67 30zM317 572h-95l-120 189h115l40 -68l17 -51l19 51l47 68h105z" />
<glyph unicode="&#x11c;" horiz-adv-x="633" d="M319 380h272v-325q-44 -36 -105 -53t-120 -17q-70 0 -129.5 22t-103.5 68.5t-68.5 118t-24.5 170.5q0 103 29.5 175.5t78 117.5t108.5 65.5t123 20.5q62 0 109.5 -9.5t75.5 -20.5l-29 -119q-26 10 -58.5 16t-82.5 6q-45 0 -82 -13.5t-65 -44.5t-43 -78.5t-15 -116.5 q0 -66 14.5 -113t40.5 -78t61 -45.5t75 -14.5q27 0 53 7t43 20v138l-157 16v87zM315 905h100l132 -97v-40h-103l-60 42l-20 36l-22 -35l-65 -43h-101v41z" />
<glyph unicode="&#x11d;" horiz-adv-x="557" d="M499 0q0 -113 -61.5 -166.5t-171.5 -53.5q-75 0 -118 10t-65 22l28 107q24 -9 56 -18.5t78 -9.5q71 0 96.5 30.5t25.5 85.5v34h-4q-36 -49 -129 -49q-101 0 -150.5 62t-49.5 196q0 139 66.5 210.5t193.5 71.5q67 0 119.5 -9t85.5 -22v-501zM270 100q40 0 61.5 17.5 t32.5 53.5v234q-32 13 -80 13q-52 0 -81 -39t-29 -124q0 -76 25 -115.5t71 -39.5zM247 761h90l115 -189h-107l-40 69l-18 51l-18 -51l-47 -69h-103z" />
<glyph unicode="&#x11e;" horiz-adv-x="633" d="M319 380h272v-325q-44 -36 -105 -53t-120 -17q-70 0 -129.5 22t-103.5 68.5t-68.5 118t-24.5 170.5q0 103 29.5 175.5t78 117.5t108.5 65.5t123 20.5q62 0 109.5 -9.5t75.5 -20.5l-29 -119q-26 10 -58.5 16t-82.5 6q-45 0 -82 -13.5t-65 -44.5t-43 -78.5t-15 -116.5 q0 -66 14.5 -113t40.5 -78t61 -45.5t75 -14.5q27 0 53 7t43 20v138l-157 16v87zM203 910q21 -27 60.5 -41.5t88.5 -14.5q50 0 86 15.5t57 40.5l51 -33q-13 -30 -33.5 -52t-46.5 -36.5t-56 -22t-59 -7.5q-28 0 -57.5 6.5t-56.5 19.5t-50 34t-38 53z" />
<glyph unicode="&#x11f;" horiz-adv-x="557" d="M499 0q0 -113 -61.5 -166.5t-171.5 -53.5q-75 0 -118 10t-65 22l28 107q24 -9 56 -18.5t78 -9.5q71 0 96.5 30.5t25.5 85.5v34h-4q-36 -49 -129 -49q-101 0 -150.5 62t-49.5 196q0 139 66.5 210.5t193.5 71.5q67 0 119.5 -9t85.5 -22v-501zM270 100q40 0 61.5 17.5 t32.5 53.5v234q-32 13 -80 13q-52 0 -81 -39t-29 -124q0 -76 25 -115.5t71 -39.5zM164 749q18 -31 49.5 -46.5t66.5 -15.5q36 0 65.5 16t45.5 46l62 -28q-3 -25 -17 -49.5t-37 -43.5t-53.5 -30t-66.5 -11q-68 0 -117 34.5t-64 94.5z" />
<glyph unicode="&#x122;" horiz-adv-x="633" d="M319 380h272v-325q-44 -36 -105 -53t-120 -17q-70 0 -129.5 22t-103.5 68.5t-68.5 118t-24.5 170.5q0 103 29.5 175.5t78 117.5t108.5 65.5t123 20.5q62 0 109.5 -9.5t75.5 -20.5l-29 -119q-26 10 -58.5 16t-82.5 6q-45 0 -82 -13.5t-65 -44.5t-43 -78.5t-15 -116.5 q0 -66 14.5 -113t40.5 -78t61 -45.5t75 -14.5q27 0 53 7t43 20v138l-157 16v87zM289 -109q0 30 20.5 47.5t50.5 17.5q37 0 59.5 -24t22.5 -67q0 -35 -11.5 -61t-28 -44t-35 -29t-32.5 -15l-35 56q14 8 28.5 21t17.5 34q-21 -1 -39 15.5t-18 48.5z" />
<glyph unicode="&#x123;" horiz-adv-x="557" d="M499 0q0 -113 -61.5 -166.5t-171.5 -53.5q-75 0 -118 10t-65 22l28 107q24 -9 56 -18.5t78 -9.5q71 0 96.5 30.5t25.5 85.5v34h-4q-36 -49 -129 -49q-101 0 -150.5 62t-49.5 196q0 139 66.5 210.5t193.5 71.5q67 0 119.5 -9t85.5 -22v-501zM270 100q40 0 61.5 17.5 t32.5 53.5v234q-32 13 -80 13q-52 0 -81 -39t-29 -124q0 -76 25 -115.5t71 -39.5zM374.004 637.993q0 -29.998 -20.499 -47.4971t-50.4971 -17.499q-36.9971 0 -59.4961 23.999q-22.499 23.998 -22.499 66.9961q0 34.9971 11.5 60.9961q11.499 25.998 27.998 43.9971 t34.998 28.998t32.498 14.999l34.998 -55.9961q-14 -8 -28.499 -20.999t-17.499 -33.998q20.999 1 38.998 -15.499t17.999 -48.4971z" />
<glyph unicode="&#x124;" horiz-adv-x="677" d="M471 305h-266v-305h-143v728h143v-296h266v296h143v-728h-143v305zM289 905h100l132 -97v-40h-103l-60 42l-20 36l-22 -35l-65 -43h-101v41z" />
<glyph unicode="&#x125;" horiz-adv-x="566" d="M378 0v295q0 64 -18 92t-65 28q-34 0 -62.5 -23.5t-38.5 -59.5v-332h-135v728h135v-266h5q25 33 61 53t93 20q39 0 69 -10.5t50.5 -34.5t30.5 -65t10 -102v-323h-135zM92 905h100l132 -97v-40h-103l-60 42l-20 36l-22 -35l-65 -43h-101v41z" />
<glyph unicode="&#x126;" horiz-adv-x="710" d="M2 622h78v106h143v-106h266v106h142v-106h77v-85h-77v-537h-142v305h-266v-305h-143v537h-78v85zM489 432v105h-266v-105h266z" />
<glyph unicode="&#x127;" horiz-adv-x="578" d="M-6 667h77v61h135v-61h167v-84h-167v-121h4q25 33 61.5 53t92.5 20q40 0 70 -10.5t50 -34.5t30 -65t10 -102v-323h-135v295q0 64 -17.5 92t-64.5 28q-35 0 -63.5 -23.5t-37.5 -59.5v-332h-135v583h-77v84z" />
<glyph unicode="&#x12a;" horiz-adv-x="296" d="M77 728h142v-728h-142v728zM-26 890h357v-92h-357v92z" />
<glyph unicode="&#x12b;" horiz-adv-x="279" d="M73 520h135v-520h-135v520zM-28 684h336v-95h-336v95z" />
<glyph unicode="&#x12e;" horiz-adv-x="296" d="M77 728h142v-728h-14q-24 -12 -37.5 -31t-12.5 -45q0 -19 11.5 -32t32.5 -13q17 0 42 13l21 -65q-16 -12 -49.5 -24.5t-70.5 -12.5q-59 0 -89 26.5t-30 69.5q0 39 24 67.5t66 46.5h-36v728z" />
<glyph unicode="&#x12f;" horiz-adv-x="280" d="M73 520h135v-520h-14q-23 -15 -35.5 -33.5t-12.5 -42.5q1 -19 12.5 -32t31.5 -13q18 0 43 13l20 -65q-16 -12 -49 -24.5t-70 -12.5q-59 0 -89.5 26.5t-30.5 69.5q0 39 23.5 67.5t66.5 46.5h-31v520zM53 667q0 30 22.5 51t61.5 21q40 0 64.5 -21t24.5 -51q0 -31 -24.5 -51 t-64.5 -20q-39 0 -61.5 20t-22.5 51z" />
<glyph unicode="&#x130;" horiz-adv-x="296" d="M77 728h142v-728h-142v728zM59 831q0 26 22.5 44.5t67.5 18.5t68.5 -18.5t23.5 -44.5q0 -27 -23.5 -46t-68.5 -19t-67.5 19t-22.5 46z" />
<glyph unicode="&#x131;" horiz-adv-x="279" d="M73 520h135v-520h-135v520z" />
<glyph unicode="&#x134;" horiz-adv-x="347" d="M136 728h143v-532q0 -42 -9.5 -79.5t-31 -66t-54.5 -45.5t-81 -17q-30 0 -65.5 6t-61.5 17l31 117q27 -14 62 -14q43 0 55 32.5t12 85.5v496zM160 905h100l132 -97v-40h-103l-60 42l-20 36l-22 -35l-65 -43h-101v41z" />
<glyph unicode="&#x135;" horiz-adv-x="278" d="M72 520h135v-542q0 -94 -37.5 -144t-119.5 -50q-31 0 -67 7v113q5 0 8 -0.5t6 -0.5q47 0 61 30.5t14 83.5v503zM101 761h90l115 -189h-107l-40 69l-18 51l-18 -51l-47 -69h-103z" />
<glyph unicode="&#x136;" horiz-adv-x="644" d="M242 311h-37v-311h-143v728h143v-322l33 14l201 308h162l-212 -306l-56 -39l58 -41l242 -342h-175zM229 -109q0 30 20.5 47.5t50.5 17.5q37 0 59.5 -24t22.5 -67q0 -35 -11.5 -61t-28 -44t-35 -29t-32.5 -15l-35 56q14 8 28.5 21t17.5 34q-21 -1 -39 15.5t-18 48.5z" />
<glyph unicode="&#x137;" horiz-adv-x="510" d="M231 215h-37v-215h-135v728h135v-430l32 15l118 207h149l-125 -198l-53 -39l57 -41l141 -242h-155zM186 -109q0 30 20.5 47.5t50.5 17.5q37 0 59.5 -24t22.5 -67q0 -35 -11.5 -61t-28 -44t-35 -29t-32.5 -15l-35 56q14 8 28.5 21t17.5 34q-21 -1 -39 15.5t-18 48.5z" />
<glyph unicode="&#x139;" horiz-adv-x="534" d="M523 0h-461v728h143v-601h318v-127zM217 905h165v-31l-166 -92h-108z" />
<glyph unicode="&#x13a;" horiz-adv-x="305" d="M199 175q0 -37 9 -53.5t30 -16.5q13 0 25 2t29 9l15 -106q-17 -8 -51 -16.5t-71 -8.5q-59 0 -90.5 28t-31.5 91v624h136v-553zM181 905h165v-31l-166 -92h-108z" />
<glyph unicode="&#x13b;" horiz-adv-x="534" d="M523 0h-461v728h143v-601h318v-127zM188 -109q0 30 20.5 47.5t50.5 17.5q37 0 59.5 -24t22.5 -67q0 -35 -11.5 -61t-28 -44t-35 -29t-32.5 -15l-35 56q14 8 28.5 21t17.5 34q-21 -1 -39 15.5t-18 48.5z" />
<glyph unicode="&#x13c;" horiz-adv-x="305" d="M199 175q0 -37 9 -53.5t30 -16.5q13 0 25 2t29 9l15 -106q-17 -8 -51 -16.5t-71 -8.5q-59 0 -90.5 28t-31.5 91v624h136v-553zM98 -109q0 30 20.5 47.5t50.5 17.5q37 0 59.5 -24t22.5 -67q0 -35 -11.5 -61t-28 -44t-35 -29t-32.5 -15l-35 56q14 8 28.5 21t17.5 34 q-21 -1 -39 15.5t-18 48.5z" />
<glyph unicode="&#x13d;" horiz-adv-x="534" d="M523 0h-461v728h143v-601h318v-127zM481 728q-2 -30 -12.5 -63t-24.5 -62.5t-29.5 -53t-28.5 -33.5l-60 32q18 38 27.5 85t9.5 95h118z" />
<glyph unicode="&#x13e;" horiz-adv-x="305" d="M199 175q0 -37 9 -53.5t30 -16.5q13 0 25 2t29 9l15 -106q-17 -8 -51 -16.5t-71 -8.5q-59 0 -90.5 28t-31.5 91v624h136v-553zM381 728q-2 -30 -12.5 -63t-24.5 -62.5t-29.5 -53t-28.5 -33.5l-60 32q18 38 27.5 85t9.5 95h118z" />
<glyph unicode="&#x141;" horiz-adv-x="546" d="M3 331l71 47v350h142v-255l104 70v-130l-104 -69v-217h319v-127h-461v251l-71 -46v126z" />
<glyph unicode="&#x142;" horiz-adv-x="331" d="M6 319l82 55v354h136v-263l99 66v-130l-99 -65v-161q0 -37 9 -53.5t30 -16.5q13 0 25 2t29 9l15 -106q-17 -8 -51.5 -16.5t-70.5 -8.5q-59 0 -90.5 28t-31.5 91v144l-82 -55v126z" />
<glyph unicode="&#x143;" horiz-adv-x="683" d="M243 380l-57 114h-5l17 -114v-380h-136v733h104l276 -388l55 -111h5l-16 111v383h135v-733h-104zM381 905h165v-31l-166 -92h-108z" />
<glyph unicode="&#x144;" horiz-adv-x="566" d="M378 0v295q0 64 -18.5 92t-62.5 28q-38 0 -64.5 -22.5t-38.5 -55.5v-337h-135v520h107l16 -69h4q24 34 63.5 59t102.5 25q38 0 68 -10.5t51 -34.5t31.5 -65t10.5 -102v-323h-135zM289 749h137v-31l-116 -129h-77z" />
<glyph unicode="&#x145;" horiz-adv-x="683" d="M243 380l-57 114h-5l17 -114v-380h-136v733h104l276 -388l55 -111h5l-16 111v383h135v-733h-104zM264 -109q0 30 20.5 47.5t50.5 17.5q37 0 59.5 -24t22.5 -67q0 -35 -11.5 -61t-28 -44t-35 -29t-32.5 -15l-35 56q14 8 28.5 21t17.5 34q-21 -1 -39 15.5t-18 48.5z" />
<glyph unicode="&#x146;" horiz-adv-x="566" d="M378 0v295q0 64 -18.5 92t-62.5 28q-38 0 -64.5 -22.5t-38.5 -55.5v-337h-135v520h107l16 -69h4q24 34 63.5 59t102.5 25q38 0 68 -10.5t51 -34.5t31.5 -65t10.5 -102v-323h-135zM206 -109q0 30 20.5 47.5t50.5 17.5q37 0 59.5 -24t22.5 -67q0 -35 -11.5 -61t-28 -44 t-35 -29t-32.5 -15l-35 56q14 8 28.5 21t17.5 34q-21 -1 -39 15.5t-18 48.5z" />
<glyph unicode="&#x147;" horiz-adv-x="683" d="M243 380l-57 114h-5l17 -114v-380h-136v733h104l276 -388l55 -111h5l-16 111v383h135v-733h-104zM392 766h-98l-132 98v41h110l55 -47l19 -31l22 30l59 48h104v-42z" />
<glyph unicode="&#x148;" horiz-adv-x="566" d="M378 0v295q0 64 -18.5 92t-62.5 28q-38 0 -64.5 -22.5t-38.5 -55.5v-337h-135v520h107l16 -69h4q24 34 63.5 59t102.5 25q38 0 68 -10.5t51 -34.5t31.5 -65t10.5 -102v-323h-135zM331 572h-95l-120 189h115l40 -68l17 -51l19 51l47 68h105z" />
<glyph unicode="&#x14c;" horiz-adv-x="696" d="M40 364q0 182 80 280.5t228 98.5q78 0 136.5 -27.5t97 -77t57 -119.5t18.5 -155q0 -182 -80.5 -280.5t-228.5 -98.5q-79 0 -137 27.5t-96 77t-56.5 119.5t-18.5 155zM189 364q0 -55 9.5 -101.5t28.5 -79.5t49.5 -52t71.5 -19q76 0 118 59.5t42 192.5q0 53 -9 99t-28 80 t-49 53.5t-74 19.5q-76 0 -117.5 -61t-41.5 -191zM173 890h357v-92h-357v92z" />
<glyph unicode="&#x14d;" horiz-adv-x="558" d="M34 260q0 132 64.5 203.5t181.5 71.5q62 0 108 -20t76 -56t45 -87t15 -112q0 -132 -64 -203.5t-180 -71.5q-63 0 -108.5 20t-76.5 56t-46 87t-15 112zM174 260q0 -34 6 -63.5t18.5 -51t33 -33.5t48.5 -12q53 0 79 38.5t26 121.5q0 72 -24 116t-81 44q-50 0 -78 -37.5 t-28 -122.5zM111 684h336v-95h-336v95z" />
<glyph unicode="&#x150;" horiz-adv-x="696" d="M40 364q0 182 80 280.5t228 98.5q78 0 136.5 -27.5t97 -77t57 -119.5t18.5 -155q0 -182 -80.5 -280.5t-228.5 -98.5q-79 0 -137 27.5t-96 77t-56.5 119.5t-18.5 155zM189 364q0 -55 9.5 -101.5t28.5 -79.5t49.5 -52t71.5 -19q76 0 118 59.5t42 192.5q0 53 -9 99t-28 80 t-49 53.5t-74 19.5q-76 0 -117.5 -61t-41.5 -191zM260 884h139v-17l-104 -96h-97zM466 884h145v-17l-148 -96h-98z" />
<glyph unicode="&#x151;" horiz-adv-x="558" d="M34 260q0 132 64.5 203.5t181.5 71.5q62 0 108 -20t76 -56t45 -87t15 -112q0 -132 -64 -203.5t-180 -71.5q-63 0 -108.5 20t-76.5 56t-46 87t-15 112zM174 260q0 -34 6 -63.5t18.5 -51t33 -33.5t48.5 -12q53 0 79 38.5t26 121.5q0 72 -24 116t-81 44q-50 0 -78 -37.5 t-28 -122.5zM187 728h124v-17l-79 -117h-82zM372 728h131v-17l-123 -117h-84z" />
<glyph unicode="&#x152;" horiz-adv-x="951" d="M471 590q-22 11 -53 18.5t-70 7.5q-76 0 -117.5 -61t-41.5 -191q0 -55 9.5 -101.5t30 -79.5t51.5 -52t76 -19q30 0 57.5 4t57.5 16v458zM471 0q-20 -7 -54.5 -11t-68.5 -4q-79 0 -137 27.5t-96 77t-56.5 119.5t-18.5 155q0 182 80 280.5t228 98.5q41 0 70.5 -5t52.5 -10 h432v-127h-289v-169h263v-127h-263v-178h294v-127h-437z" />
<glyph unicode="&#x153;" horiz-adv-x="874" d="M174 260q0 -34 6 -63.5t18.5 -51t33 -33.5t48.5 -12q53 0 79 38.5t26 121.5q0 72 -24 116t-81 44q-50 0 -78 -37.5t-28 -122.5zM448 62q-26 -34 -67 -55.5t-101 -21.5q-63 0 -108.5 20t-76.5 56t-46 87t-15 112q0 132 64.5 203.5t181.5 71.5q68 0 110 -23.5t66 -51.5 q23 30 65.5 52.5t108.5 22.5q40 0 77.5 -10.5t66.5 -34.5t46.5 -64.5t17.5 -101.5q0 -21 -2.5 -46t-7.5 -52h-313q3 -66 34 -99t100 -33q43 0 76.5 13t51.5 26l45 -88q-32 -25 -85.5 -42.5t-113.5 -17.5q-115 0 -175 77zM628 426q-53 0 -78.5 -31.5t-30.5 -84.5h193 q0 4 0.5 8t0.5 9q0 47 -21 73t-64 26z" />
<glyph unicode="&#x154;" horiz-adv-x="626" d="M62 721q24 4 51.5 7.5t55.5 5.5t54 3t47 1q51 0 100.5 -9t88.5 -32t62.5 -63t23.5 -100q0 -90 -41.5 -146t-111.5 -78l51 -32l166 -278h-164l-165 285l-75 13v-298h-143v721zM281 612q-22 0 -43.5 -1.5t-32.5 -4.5v-211h60q59 0 94.5 27t35.5 90q0 46 -29 73t-85 27z M304 905h165v-31l-166 -92h-108z" />
<glyph unicode="&#x155;" horiz-adv-x="365" d="M346 393q-32 12 -58 12q-36 0 -60.5 -19.5t-33.5 -49.5v-336h-135v520h105l16 -69h4q18 39 48 59.5t71 20.5q27 0 61 -11zM179 749h137v-31l-116 -129h-77z" />
<glyph unicode="&#x156;" horiz-adv-x="626" d="M62 721q24 4 51.5 7.5t55.5 5.5t54 3t47 1q51 0 100.5 -9t88.5 -32t62.5 -63t23.5 -100q0 -90 -41.5 -146t-111.5 -78l51 -32l166 -278h-164l-165 285l-75 13v-298h-143v721zM281 612q-22 0 -43.5 -1.5t-32.5 -4.5v-211h60q59 0 94.5 27t35.5 90q0 46 -29 73t-85 27z M237 -109q0 30 20.5 47.5t50.5 17.5q37 0 59.5 -24t22.5 -67q0 -35 -11.5 -61t-28 -44t-35 -29t-32.5 -15l-35 56q14 8 28.5 21t17.5 34q-21 -1 -39 15.5t-18 48.5z" />
<glyph unicode="&#x157;" horiz-adv-x="365" d="M346 393q-32 12 -58 12q-36 0 -60.5 -19.5t-33.5 -49.5v-336h-135v520h105l16 -69h4q18 39 48 59.5t71 20.5q27 0 61 -11zM88 -109q0 30 20.5 47.5t50.5 17.5q37 0 59.5 -24t22.5 -67q0 -35 -11.5 -61t-28 -44t-35 -29t-32.5 -15l-35 56q14 8 28.5 21t17.5 34 q-21 -1 -39 15.5t-18 48.5z" />
<glyph unicode="&#x158;" horiz-adv-x="626" d="M62 721q24 4 51.5 7.5t55.5 5.5t54 3t47 1q51 0 100.5 -9t88.5 -32t62.5 -63t23.5 -100q0 -90 -41.5 -146t-111.5 -78l51 -32l166 -278h-164l-165 285l-75 13v-298h-143v721zM281 612q-22 0 -43.5 -1.5t-32.5 -4.5v-211h60q59 0 94.5 27t35.5 90q0 46 -29 73t-85 27z M315 766h-98l-132 98v41h110l55 -47l19 -31l22 30l59 48h104v-42z" />
<glyph unicode="&#x159;" horiz-adv-x="365" d="M346 393q-32 12 -58 12q-36 0 -60.5 -19.5t-33.5 -49.5v-336h-135v520h105l16 -69h4q18 39 48 59.5t71 20.5q27 0 61 -11zM249 572h-95l-120 189h115l40 -68l17 -51l19 51l47 68h105z" />
<glyph unicode="&#x15a;" horiz-adv-x="551" d="M376 196q0 33 -24 53.5t-61 38t-80.5 35.5t-80 44.5t-61 66t-24.5 101.5q0 53 17.5 92t50.5 65t77.5 38.5t99.5 12.5q64 0 120 -11t92 -32l-44 -120q-23 15 -69 27t-99 12q-50 0 -76.5 -20t-26.5 -53q0 -31 24.5 -52t61.5 -38.5t80 -36.5t80 -45.5t61.5 -65.5t24.5 -97 t-19.5 -100t-54 -70.5t-84 -42t-108.5 -13.5q-78 0 -137.5 15t-87.5 29l46 122q11 -6 29.5 -13.5t41 -13.5t48 -10.5t52.5 -4.5q64 0 97.5 21.5t33.5 65.5zM315 905h165v-31l-166 -92h-108z" />
<glyph unicode="&#x15b;" horiz-adv-x="438" d="M275 144q0 20 -18 32.5t-44 23t-57 21.5t-57 30t-44 49t-18 76q0 77 46 118t132 41q60 0 107.5 -12.5t74.5 -28.5l-30 -98q-24 10 -60.5 20t-73.5 10q-60 0 -60 -46q0 -19 17.5 -30.5t43.5 -21.5t57 -21.5t57 -29.5t44 -47t18 -75q0 -79 -50.5 -124.5t-151.5 -45.5 q-55 0 -103.5 14.5t-78.5 32.5l37 101q24 -13 63.5 -26t81.5 -13q30 0 48.5 11t18.5 39zM217 749h137v-31l-116 -129h-77z" />
<glyph unicode="&#x15c;" horiz-adv-x="551" d="M376 196q0 33 -24 53.5t-61 38t-80.5 35.5t-80 44.5t-61 66t-24.5 101.5q0 53 17.5 92t50.5 65t77.5 38.5t99.5 12.5q64 0 120 -11t92 -32l-44 -120q-23 15 -69 27t-99 12q-50 0 -76.5 -20t-26.5 -53q0 -31 24.5 -52t61.5 -38.5t80 -36.5t80 -45.5t61.5 -65.5t24.5 -97 t-19.5 -100t-54 -70.5t-84 -42t-108.5 -13.5q-78 0 -137.5 15t-87.5 29l46 122q11 -6 29.5 -13.5t41 -13.5t48 -10.5t52.5 -4.5q64 0 97.5 21.5t33.5 65.5zM239 905h100l132 -97v-40h-103l-60 42l-20 36l-22 -35l-65 -43h-101v41z" />
<glyph unicode="&#x15d;" horiz-adv-x="438" d="M275 144q0 20 -18 32.5t-44 23t-57 21.5t-57 30t-44 49t-18 76q0 77 46 118t132 41q60 0 107.5 -12.5t74.5 -28.5l-30 -98q-24 10 -60.5 20t-73.5 10q-60 0 -60 -46q0 -19 17.5 -30.5t43.5 -21.5t57 -21.5t57 -29.5t44 -47t18 -75q0 -79 -50.5 -124.5t-151.5 -45.5 q-55 0 -103.5 14.5t-78.5 32.5l37 101q24 -13 63.5 -26t81.5 -13q30 0 48.5 11t18.5 39zM184 761h90l115 -189h-107l-40 69l-18 51l-18 -51l-47 -69h-103z" />
<glyph unicode="&#x15e;" horiz-adv-x="551" d="M376 196q0 33 -24 53.5t-61 38t-80.5 35.5t-80 44.5t-61 66t-24.5 101.5q0 53 17.5 92t50.5 65t77.5 38.5t99.5 12.5q64 0 120 -11t92 -32l-44 -120q-23 15 -69 27t-99 12q-50 0 -76.5 -20t-26.5 -53q0 -31 24.5 -52t61.5 -38.5t80 -36.5t80 -45.5t61.5 -65.5t24.5 -97 q0 -99 -53.5 -153t-145.5 -67l-18 -36q42 -4 66.5 -22t24.5 -56q0 -24 -12 -41.5t-32.5 -29.5t-49 -18t-60.5 -6t-66 6l9 50q7 -1 13.5 -1h11.5q39 0 50.5 9t11.5 22q0 29 -89 33l50 84q-71 3 -123.5 16.5t-78.5 27.5l46 122q11 -6 29.5 -13.5t41 -13.5t48 -10.5t52.5 -4.5 q64 0 97.5 21.5t33.5 65.5z" />
<glyph unicode="&#x15f;" horiz-adv-x="438" d="M275 144q0 20 -18 32.5t-44 23t-57 21.5t-57 30t-44 49t-18 76q0 77 46 118t132 41q60 0 107.5 -12.5t74.5 -28.5l-30 -98q-24 10 -60.5 20t-73.5 10q-60 0 -60 -46q0 -19 17.5 -30.5t43.5 -21.5t57 -21.5t57 -29.5t44 -47t18 -75q0 -67 -36.5 -110t-108.5 -54l-19 -36 q43 -4 67.5 -22t24.5 -56q0 -24 -12 -41.5t-33 -29.5t-49 -18t-60 -6t-66 6l9 50q7 -1 13.5 -1h11.5q39 0 50.5 9t11.5 22q0 29 -89 33l51 87q-46 4 -85.5 16t-64.5 28l37 101q24 -13 63.5 -26t81.5 -13q30 0 48.5 11t18.5 39z" />
<glyph unicode="&#x160;" horiz-adv-x="551" d="M376 196q0 33 -24 53.5t-61 38t-80.5 35.5t-80 44.5t-61 66t-24.5 101.5q0 53 17.5 92t50.5 65t77.5 38.5t99.5 12.5q64 0 120 -11t92 -32l-44 -120q-23 15 -69 27t-99 12q-50 0 -76.5 -20t-26.5 -53q0 -31 24.5 -52t61.5 -38.5t80 -36.5t80 -45.5t61.5 -65.5t24.5 -97 t-19.5 -100t-54 -70.5t-84 -42t-108.5 -13.5q-78 0 -137.5 15t-87.5 29l46 122q11 -6 29.5 -13.5t41 -13.5t48 -10.5t52.5 -4.5q64 0 97.5 21.5t33.5 65.5zM341 766h-98l-132 98v41h110l55 -47l19 -31l22 30l59 48h104v-42z" />
<glyph unicode="&#x161;" horiz-adv-x="438" d="M275 144q0 20 -18 32.5t-44 23t-57 21.5t-57 30t-44 49t-18 76q0 77 46 118t132 41q60 0 107.5 -12.5t74.5 -28.5l-30 -98q-24 10 -60.5 20t-73.5 10q-60 0 -60 -46q0 -19 17.5 -30.5t43.5 -21.5t57 -21.5t57 -29.5t44 -47t18 -75q0 -79 -50.5 -124.5t-151.5 -45.5 q-55 0 -103.5 14.5t-78.5 32.5l37 101q24 -13 63.5 -26t81.5 -13q30 0 48.5 11t18.5 39zM263 572h-95l-120 189h115l40 -68l17 -51l19 51l47 68h105z" />
<glyph unicode="&#x162;" horiz-adv-x="590" d="M225 0v601h-214v127h568v-127h-212v-601h-28l-25 -45q43 -4 67.5 -22t24.5 -56q0 -24 -12 -41.5t-33 -29.5t-49 -18t-60 -6q-33 0 -67 6l9 50q8 -1 14 -1h11q40 0 51.5 9t11.5 22q0 29 -90 33l60 99h-27z" />
<glyph unicode="&#x163;" horiz-adv-x="362" d="M5 520h72v98l135 38v-136h127v-114h-127v-200q0 -54 11 -78t41 -24q21 0 36 4t34 13l24 -103q-20 -10 -43 -16t-50 -11l-19 -36q43 -4 67.5 -22t24.5 -56q0 -24 -12 -41.5t-33 -29.5t-49 -18t-60 -6t-66 6l9 50q7 -1 13.5 -1h11.5q39 0 50.5 9t11.5 22q0 29 -89 33l52 88 q-51 9 -75.5 46t-24.5 109v262h-72v114z" />
<glyph unicode="&#x164;" horiz-adv-x="590" d="M579 601h-212v-601h-142v601h-214v127h568v-127zM340 766h-98l-132 98v41h110l55 -47l19 -31l22 30l59 48h104v-42z" />
<glyph unicode="&#x165;" horiz-adv-x="374" d="M5 520h72v98l135 38v-136h127v-114h-127v-200q0 -54 11 -77.5t41 -23.5q21 0 36 4t34 13l24 -104q-28 -14 -65.5 -23.5t-76.5 -9.5q-71 0 -105 37t-34 122v262h-72v114zM390 752q-2 -30 -12.5 -63t-24.5 -62.5t-29.5 -53t-28.5 -33.5l-60 32q18 38 27.5 85t9.5 95h118z " />
<glyph unicode="&#x16a;" horiz-adv-x="652" d="M458 728h135v-470q0 -71 -19 -122t-52 -84t-81 -48.5t-105 -15.5q-277 0 -277 252v488h143v-460q0 -42 7.5 -72t24.5 -48t42 -26t58 -8q65 0 94.5 36.5t29.5 117.5v460zM150 890h357v-92h-357v92z" />
<glyph unicode="&#x16b;" horiz-adv-x="559" d="M189 520v-295q0 -64 15 -92t59 -28q39 0 64.5 23t37.5 56v336h135v-362q0 -43 4.5 -84t12.5 -74h-102l-24 77h-4q-24 -40 -66.5 -66t-101.5 -26q-39 0 -70 10.5t-52 34.5t-32 64.5t-11 102.5v323h135zM110 684h336v-95h-336v95z" />
<glyph unicode="&#x16c;" horiz-adv-x="652" d="M458 728h135v-470q0 -71 -19 -122t-52 -84t-81 -48.5t-105 -15.5q-277 0 -277 252v488h143v-460q0 -42 7.5 -72t24.5 -48t42 -26t58 -8q65 0 94.5 36.5t29.5 117.5v460zM179 910q21 -27 60.5 -41.5t88.5 -14.5q50 0 86 15.5t57 40.5l51 -33q-13 -30 -33.5 -52 t-46.5 -36.5t-56 -22t-59 -7.5q-28 0 -57.5 6.5t-56.5 19.5t-50 34t-38 53z" />
<glyph unicode="&#x16d;" horiz-adv-x="559" d="M189 520v-295q0 -64 15 -92t59 -28q39 0 64.5 23t37.5 56v336h135v-362q0 -43 4.5 -84t12.5 -74h-102l-24 77h-4q-24 -40 -66.5 -66t-101.5 -26q-39 0 -70 10.5t-52 34.5t-32 64.5t-11 102.5v323h135zM165 749q18 -31 49.5 -46.5t66.5 -15.5q36 0 65.5 16t45.5 46l62 -28 q-3 -25 -17 -49.5t-37 -43.5t-53.5 -30t-66.5 -11q-68 0 -117 34.5t-64 94.5z" />
<glyph unicode="&#x16e;" horiz-adv-x="652" d="M458 728h135v-470q0 -71 -19 -122t-52 -84t-81 -48.5t-105 -15.5q-277 0 -277 252v488h143v-460q0 -42 7.5 -72t24.5 -48t42 -26t58 -8q65 0 94.5 36.5t29.5 117.5v460zM199 803q0 19 6.5 36t21.5 30t40.5 20t65.5 7q72 0 102.5 -24.5t30.5 -68.5q0 -19 -7 -35.5 t-22.5 -28.5t-41 -19.5t-62.5 -7.5q-74 0 -104 25.5t-30 65.5zM287 803q0 -32 46 -32q26 0 36 8t10 24q0 18 -11 26t-35 8q-46 0 -46 -34z" />
<glyph unicode="&#x16f;" horiz-adv-x="559" d="M189 520v-295q0 -64 15 -92t59 -28q39 0 64.5 23t37.5 56v336h135v-362q0 -43 4.5 -84t12.5 -74h-102l-24 77h-4q-24 -40 -66.5 -66t-101.5 -26q-39 0 -70 10.5t-52 34.5t-32 64.5t-11 102.5v323h135zM161 673q0 44 30 72t86 28q53 0 84 -25.5t31 -74.5 q0 -41 -30.5 -69.5t-84.5 -28.5q-55 0 -85.5 26.5t-30.5 71.5zM236 673q0 -17 12.5 -25.5t28.5 -8.5q18 0 29 8t11 26t-12 26.5t-28 8.5t-28.5 -8t-12.5 -27z" />
<glyph unicode="&#x170;" horiz-adv-x="652" d="M458 728h135v-470q0 -71 -19 -122t-52 -84t-81 -48.5t-105 -15.5q-277 0 -277 252v488h143v-460q0 -42 7.5 -72t24.5 -48t42 -26t58 -8q65 0 94.5 36.5t29.5 117.5v460zM234 884h139v-17l-104 -96h-97zM440 884h145v-17l-148 -96h-98z" />
<glyph unicode="&#x171;" horiz-adv-x="559" d="M189 520v-295q0 -64 15 -92t59 -28q39 0 64.5 23t37.5 56v336h135v-362q0 -43 4.5 -84t12.5 -74h-102l-24 77h-4q-24 -40 -66.5 -66t-101.5 -26q-39 0 -70 10.5t-52 34.5t-32 64.5t-11 102.5v323h135zM173 728h124v-17l-79 -117h-82zM358 728h131v-17l-123 -117h-84z" />
<glyph unicode="&#x172;" horiz-adv-x="652" d="M458 728h135v-470q0 -71 -19 -122t-52 -84q-31 -31 -76 -47q-47 -32 -47 -76q0 -13 6 -24t17.5 -17.5t27.5 -6t37 11.5l19 -65q-15 -12 -49 -24.5t-70 -12.5q-58 0 -89 28.5t-31 71.5q0 57 55 97q-263 6 -263 252v488h143v-460q0 -42 7.5 -72t24.5 -48t42 -26t58 -8 q65 0 94.5 36.5t29.5 117.5v460z" />
<glyph unicode="&#x173;" horiz-adv-x="559" d="M189 520v-295q0 -64 15 -92t59 -28q39 0 64.5 23t37.5 56v336h135v-362q0 -43 4.5 -84t12.5 -74h-19q-30 -10 -44 -29.5t-14 -45.5q1 -27 23.5 -40t63.5 8l20 -65q-16 -12 -49 -24.5t-70 -12.5q-59 0 -89.5 26.5t-30.5 69.5q0 42 28 72.5t77 46.5l-22 71h-4 q-24 -40 -66.5 -66t-101.5 -26q-39 0 -70 10.5t-52 34.5t-32 64.5t-11 102.5v323h135z" />
<glyph unicode="&#x178;" horiz-adv-x="615" d="M237 270l-239 458h169l134 -274l14 -76h5l16 79l129 271h153l-238 -457v-271h-143v270zM120 830q0 27 19 43.5t60 16.5t59.5 -16.5t18.5 -43.5t-18.5 -43t-59.5 -16t-60 16t-19 43zM343 830q0 27 18.5 43.5t59.5 16.5q42 0 60.5 -16.5t18.5 -43.5t-18.5 -43t-60.5 -16 q-41 0 -59.5 16t-18.5 43z" />
<glyph unicode="&#x179;" horiz-adv-x="560" d="M28 127l308 430l54 44h-362v127h504v-127l-309 -435l-53 -39h362v-127h-504v127zM310 905h165v-31l-166 -92h-108z" />
<glyph unicode="&#x17a;" horiz-adv-x="476" d="M32 114l205 247l53 45h-258v114h408v-114l-203 -251l-52 -41h255v-114h-408v114zM231 749h137v-31l-116 -129h-77z" />
<glyph unicode="&#x17b;" horiz-adv-x="560" d="M28 127l308 430l54 44h-362v127h504v-127l-309 -435l-53 -39h362v-127h-504v127zM193 831q0 26 22.5 44.5t67.5 18.5t68.5 -18.5t23.5 -44.5q0 -27 -23.5 -46t-68.5 -19t-67.5 19t-22.5 46z" />
<glyph unicode="&#x17c;" horiz-adv-x="476" d="M32 114l205 247l53 45h-258v114h408v-114l-203 -251l-52 -41h255v-114h-408v114zM157 667q0 30 22.5 51t62.5 21q39 0 63.5 -21t24.5 -51q0 -31 -24.5 -51t-63.5 -20q-40 0 -62.5 20t-22.5 51z" />
<glyph unicode="&#x17d;" horiz-adv-x="560" d="M28 127l308 430l54 44h-362v127h504v-127l-309 -435l-53 -39h362v-127h-504v127zM321 766h-98l-132 98v41h110l55 -47l19 -31l22 30l59 48h104v-42z" />
<glyph unicode="&#x17e;" horiz-adv-x="476" d="M32 114l205 247l53 45h-258v114h408v-114l-203 -251l-52 -41h255v-114h-408v114zM280 572h-95l-120 189h115l40 -68l17 -51l19 51l47 68h105z" />
<glyph unicode="&#x17f;" horiz-adv-x="258" d="M12 520h72v29q0 99 41.5 143t120.5 44q47 0 79.5 -6.5t60.5 -18.5l-27 -105q-24 9 -41.5 12.5t-38.5 3.5t-33 -6.5t-17.5 -19.5t-7.5 -32t-2 -44v-520h-135v406h-72v114z" />
<glyph unicode="&#x192;" d="M356 406l-74 -441q-6 -39 -18 -71.5t-33.5 -57t-53 -38.5t-77.5 -14q-15 0 -36 2t-43 5t-42.5 7.5t-32.5 10.5l22 109q24 -11 45.5 -15.5t50.5 -4.5q38 0 59 25.5t30 84.5l63 398h-81v114h100l11 70q7 38 18 66.5t30 48t49 29t75 9.5q17 0 38 -3t43 -7.5t43 -10t36 -13.5 l-33 -101q-51 20 -99 20q-33 0 -46 -16t-19 -58l-6 -34h124v-114h-143z" />
<glyph unicode="&#x1f4;" horiz-adv-x="633" d="M319 380h272v-325q-44 -36 -105 -53t-120 -17q-70 0 -129.5 22t-103.5 68.5t-68.5 118t-24.5 170.5q0 103 29.5 175.5t78 117.5t108.5 65.5t123 20.5q62 0 109.5 -9.5t75.5 -20.5l-29 -119q-26 10 -58.5 16t-82.5 6q-45 0 -82 -13.5t-65 -44.5t-43 -78.5t-15 -116.5 q0 -66 14.5 -113t40.5 -78t61 -45.5t75 -14.5q27 0 53 7t43 20v138l-157 16v87zM407 905h165v-31l-166 -92h-108z" />
<glyph unicode="&#x1f5;" horiz-adv-x="557" d="M499 0q0 -113 -61.5 -166.5t-171.5 -53.5q-75 0 -118 10t-65 22l28 107q24 -9 56 -18.5t78 -9.5q71 0 96.5 30.5t25.5 85.5v34h-4q-36 -49 -129 -49q-101 0 -150.5 62t-49.5 196q0 139 66.5 210.5t193.5 71.5q67 0 119.5 -9t85.5 -22v-501zM270 100q40 0 61.5 17.5 t32.5 53.5v234q-32 13 -80 13q-52 0 -81 -39t-29 -124q0 -76 25 -115.5t71 -39.5zM290 749h137v-31l-116 -129h-77z" />
<glyph unicode="&#x218;" horiz-adv-x="551" d="M376 196q0 33 -24 53.5t-61 38t-80.5 35.5t-80 44.5t-61 66t-24.5 101.5q0 53 17.5 92t50.5 65t77.5 38.5t99.5 12.5q64 0 120 -11t92 -32l-44 -120q-23 15 -69 27t-99 12q-50 0 -76.5 -20t-26.5 -53q0 -31 24.5 -52t61.5 -38.5t80 -36.5t80 -45.5t61.5 -65.5t24.5 -97 t-19.5 -100t-54 -70.5t-84 -42t-108.5 -13.5q-78 0 -137.5 15t-87.5 29l46 122q11 -6 29.5 -13.5t41 -13.5t48 -10.5t52.5 -4.5q64 0 97.5 21.5t33.5 65.5zM192 -109q0 30 20.5 47.5t50.5 17.5q37 0 59.5 -24t22.5 -67q0 -35 -11.5 -61t-28 -44t-35 -29t-32.5 -15l-35 56 q14 8 28.5 21t17.5 34q-21 -1 -39 15.5t-18 48.5z" />
<glyph unicode="&#x219;" horiz-adv-x="438" d="M275 144q0 20 -18 32.5t-44 23t-57 21.5t-57 30t-44 49t-18 76q0 77 46 118t132 41q60 0 107.5 -12.5t74.5 -28.5l-30 -98q-24 10 -60.5 20t-73.5 10q-60 0 -60 -46q0 -19 17.5 -30.5t43.5 -21.5t57 -21.5t57 -29.5t44 -47t18 -75q0 -79 -50.5 -124.5t-151.5 -45.5 q-55 0 -103.5 14.5t-78.5 32.5l37 101q24 -13 63.5 -26t81.5 -13q30 0 48.5 11t18.5 39zM146 -109q0 30 20.5 47.5t50.5 17.5q37 0 59.5 -24t22.5 -67q0 -35 -11.5 -61t-28 -44t-35 -29t-32.5 -15l-35 56q14 8 28.5 21t17.5 34q-21 -1 -39 15.5t-18 48.5z" />
<glyph unicode="&#x21a;" horiz-adv-x="590" d="M579 601h-212v-601h-142v601h-214v127h568v-127zM213 -109q0 30 20.5 47.5t50.5 17.5q37 0 59.5 -24t22.5 -67q0 -35 -11.5 -61t-28 -44t-35 -29t-32.5 -15l-35 56q14 8 28.5 21t17.5 34q-21 -1 -39 15.5t-18 48.5z" />
<glyph unicode="&#x21b;" horiz-adv-x="362" d="M5 520h72v98l135 38v-136h127v-114h-127v-200q0 -54 11 -77.5t41 -23.5q21 0 36 4t34 13l24 -104q-28 -14 -65.5 -23.5t-76.5 -9.5q-71 0 -105 37t-34 122v262h-72v114zM113 -109q0 30 20.5 47.5t50.5 17.5q37 0 59.5 -24t22.5 -67q0 -35 -11.5 -61t-28 -44t-35 -29 t-32.5 -15l-35 56q14 8 28.5 21t17.5 34q-21 -1 -39 15.5t-18 48.5z" />
<glyph unicode="&#x237;" horiz-adv-x="278" d="M72 520h135v-542q0 -94 -37.5 -144t-119.5 -50q-31 0 -67 7v113q5 0 8 -0.5t6 -0.5q47 0 61 30.5t14 83.5v503z" />
<glyph unicode="&#x2c6;" horiz-adv-x="457" d="M190 761h90l115 -189h-107l-40 69l-18 51l-18 -51l-47 -69h-103z" />
<glyph unicode="&#x2c7;" horiz-adv-x="466" d="M277 572h-95l-120 189h115l40 -68l17 -51l19 51l47 68h105z" />
<glyph unicode="&#x2d8;" horiz-adv-x="479" d="M128 749q18 -31 49.5 -46.5t66.5 -15.5q36 0 65.5 16t45.5 46l62 -28q-3 -25 -17 -49.5t-37 -43.5t-53.5 -30t-66.5 -11q-68 0 -117 34.5t-64 94.5z" />
<glyph unicode="&#x2d9;" horiz-adv-x="297" d="M62 667q0 30 22.5 51t62.5 21q39 0 63.5 -21t24.5 -51q0 -31 -24.5 -51t-63.5 -20q-40 0 -62.5 20t-22.5 51z" />
<glyph unicode="&#x2da;" horiz-adv-x="355" d="M62 673q0 44 30 72t86 28q53 0 84 -25.5t31 -74.5q0 -41 -30.5 -69.5t-84.5 -28.5q-55 0 -85.5 26.5t-30.5 71.5zM137 673q0 -17 12.5 -25.5t28.5 -8.5q18 0 29 8t11 26t-12 26.5t-28 8.5t-28.5 -8t-12.5 -27z" />
<glyph unicode="&#x2dc;" horiz-adv-x="470" d="M62 684q33 39 60.5 53.5t52.5 14.5q21 0 40 -7.5t37.5 -15.5t36.5 -15.5t37 -7.5q14 0 29 6.5t32 21.5l21 -73q-30 -33 -55.5 -45.5t-49.5 -12.5q-21 0 -41 7t-38.5 15t-37.5 15t-37 7q-16 0 -32.5 -7t-34.5 -23z" />
<glyph unicode="&#x2dd;" horiz-adv-x="477" d="M99 728h124v-17l-79 -117h-82zM284 728h131v-17l-123 -117h-84z" />
<glyph unicode="&#x401;" horiz-adv-x="542" d="M62 728h432v-127h-289v-169h263v-127h-263v-178h294v-127h-437v728zM85 830q0 27 19 43.5t60 16.5t59.5 -16.5t18.5 -43.5t-18.5 -43t-59.5 -16t-60 16t-19 43zM308 830q0 27 18.5 43.5t59.5 16.5q42 0 60.5 -16.5t18.5 -43.5t-18.5 -43t-60.5 -16q-41 0 -59.5 16 t-18.5 43z" />
<glyph unicode="&#x402;" horiz-adv-x="769" d="M367 0h-142v601h-214v127h568v-127h-212v-149q17 7 52 15t92 8q40 0 79 -10.5t70.5 -37t50.5 -71.5t19 -115q0 -120 -59 -184t-192 -64q-29 0 -43 1t-22 3v122q7 -3 24.5 -3.5t34.5 -0.5q52 0 79.5 30.5t27.5 89.5q0 35 -9 57.5t-26 35t-39.5 16.5t-49.5 4 q-24 0 -50.5 -6t-38.5 -12v-330z" />
<glyph unicode="&#x403;" horiz-adv-x="476" d="M486 601h-281v-601h-143v728h424v-127zM304 905h165v-31l-166 -92h-108z" />
<glyph unicode="&#x404;" horiz-adv-x="600" d="M571 30q-16 -11 -39 -20t-49.5 -14t-55 -8t-55.5 -3q-67 0 -127.5 20.5t-105.5 65.5t-72 117.5t-27 175.5q0 107 30 179.5t78.5 116.5t108 63.5t119.5 19.5q63 0 109.5 -8.5t75.5 -20.5l-27 -123q-24 11 -61 18t-84 7q-36 0 -69 -11t-58.5 -34t-43.5 -57.5t-26 -80.5h286 v-117h-289q12 -92 65.5 -148t144.5 -56q47 0 83.5 9.5t59.5 23.5z" />
<glyph unicode="&#x405;" horiz-adv-x="551" d="M376 196q0 33 -24 53.5t-61 38t-80.5 35.5t-80 44.5t-61 66t-24.5 101.5q0 53 17.5 92t50.5 65t77.5 38.5t99.5 12.5q64 0 120 -11t92 -32l-44 -120q-23 15 -69 27t-99 12q-50 0 -76.5 -20t-26.5 -53q0 -31 24.5 -52t61.5 -38.5t80 -36.5t80 -45.5t61.5 -65.5t24.5 -97 t-19.5 -100t-54 -70.5t-84 -42t-108.5 -13.5q-78 0 -137.5 15t-87.5 29l46 122q11 -6 29.5 -13.5t41 -13.5t48 -10.5t52.5 -4.5q64 0 97.5 21.5t33.5 65.5z" />
<glyph unicode="&#x406;" horiz-adv-x="296" d="M77 728h142v-728h-142v728z" />
<glyph unicode="&#x407;" horiz-adv-x="307" d="M20 824q0 32 16 49t46 17q29 0 45.5 -17t16.5 -49t-16.5 -48.5t-45.5 -16.5q-30 0 -46 16.5t-16 48.5zM165 824q0 32 16.5 49t45.5 17q30 0 46 -17t16 -49t-16 -48.5t-46 -16.5q-29 0 -45.5 16.5t-16.5 48.5zM82 728h143v-728h-143v728z" />
<glyph unicode="&#x408;" horiz-adv-x="347" d="M136 728h143v-532q0 -42 -9.5 -79.5t-31 -66t-54.5 -45.5t-81 -17q-30 0 -65.5 6t-61.5 17l31 117q27 -14 62 -14q43 0 55 32.5t12 85.5v496z" />
<glyph unicode="&#x409;" horiz-adv-x="972" d="M443 601h-155q-4 -99 -9 -180t-14 -146t-23.5 -115t-37.5 -86q-15 -24 -33 -39.5t-38 -25t-39 -13t-36 -3.5q-24 0 -40 3.5t-32 10.5l16 123q6 -2 12.5 -3t12.5 -1q17 0 33 8t27 28q16 23 27.5 67.5t20.5 113t14 163.5t7 222h430v-261q5 1 17 2.5t26 2.5t28.5 2t26.5 1 q51 0 99 -10.5t85 -37t58.5 -71.5t21.5 -115q0 -125 -77 -188t-222 -63q-13 0 -31.5 0.5t-41 1.5t-47.5 3t-47 5h-39v601zM656 116q29 0 55 6t46 20t31 37t11 56q0 35 -12 57.5t-31.5 35t-45.5 16.5t-54 4q-7 0 -17.5 -1l-21 -2t-19 -2.5t-12.5 -2.5v-217q11 -3 30 -5t40 -2 z" />
<glyph unicode="&#x40a;" horiz-adv-x="1000" d="M471 317h-266v-317h-143v728h143v-284h266v284h143v-277q5 1 17 3t26 3t28.5 2t26.5 1q51 0 99 -9.5t85 -34.5t59 -68.5t22 -113.5q0 -125 -77 -184.5t-223 -59.5q-15 0 -39.5 1t-53.5 2.5t-59 4t-54 5.5v314zM684 116q33 0 59.5 5.5t45 18.5t28.5 34.5t10 53.5 q0 33 -10.5 53.5t-29 31.5t-45 15.5t-58.5 4.5q-7 0 -17.5 -1l-21 -2t-19 -3.5t-12.5 -3.5v-200q11 -3 30.5 -5t39.5 -2z" />
<glyph unicode="&#x40b;" horiz-adv-x="788" d="M367 0h-142v601h-214v127h568v-127h-212v-184q26 16 71.5 29.5t107.5 13.5q44 0 80 -11.5t63 -35.5t41.5 -62.5t14.5 -92.5v-258h-143v214q0 63 -25 93.5t-81 30.5q-39 0 -73.5 -9t-55.5 -26v-303z" />
<glyph unicode="&#x40c;" horiz-adv-x="644" d="M242 311h-37v-311h-143v728h143v-322l33 14l201 308h162l-212 -306l-56 -39l58 -41l242 -342h-175zM331 905h165v-31l-166 -92h-108z" />
<glyph unicode="&#x40e;" horiz-adv-x="590" d="M306 407l21 -95h6l16 98l110 318h146l-193 -503q-23 -60 -44.5 -103.5t-46 -72t-54.5 -42.5t-70 -14q-35 0 -56 4.5t-46 20.5l36 115q18 -9 32.5 -11t30.5 -2q49 0 69 77l-272 531h167zM237 909q5 -33 25 -47.5t52 -14.5q70 0 77 61l116 -18q-12 -65 -60 -95.5 t-134 -30.5q-42 0 -77.5 6.5t-62 20.5t-43.5 38t-22 59z" />
<glyph unicode="&#x40f;" horiz-adv-x="664" d="M62 0v728h143v-601h255v601h142v-728h-208l-15 -182h-92l-21 182h-204z" />
<glyph unicode="&#x410;" horiz-adv-x="629" d="M421 161h-223l-56 -161h-142l262 733h105l262 -733h-150zM234 276h156l-54 162l-22 114h-5l-22 -115z" />
<glyph unicode="&#x411;" horiz-adv-x="592" d="M62 728h449v-127h-306v-152q18 3 43.5 6.5t49.5 3.5q59 0 107.5 -11.5t83.5 -38t55 -70t20 -105.5q0 -61 -20.5 -107t-58.5 -76t-91.5 -45.5t-119.5 -15.5q-18 0 -44.5 1t-56 3t-59 5t-52.5 8v721zM284 107q27 0 50.5 7t41 21t28 35.5t10.5 53.5q0 37 -11.5 60t-31 36 t-45 17t-55.5 4q-14 0 -36 -2.5t-30 -4.5v-222q11 -3 34.5 -4t44.5 -1z" />
<glyph unicode="&#x412;" horiz-adv-x="614" d="M552 558q0 -27 -6.5 -54t-22 -49t-40.5 -39.5t-61 -25.5v-6q31 -5 59.5 -17.5t49 -34.5t32.5 -53t12 -74q0 -56 -24 -97t-64 -67t-91 -38.5t-105 -12.5h-45t-59.5 1.5t-64.5 4.5t-60 9v718q20 3 45.5 6t54.5 5t60 3t61 1q51 0 99.5 -7.5t86 -27.5t60.5 -55t23 -90z M292 107q26 0 50.5 6.5t43.5 19.5t30 32.5t11 46.5q0 34 -13.5 54t-35 31t-48.5 14t-54 3h-76v-201q5 -2 16.5 -3t24.5 -1.5t27 -1t24 -0.5zM245 422q15 0 34 1t32 3q39 13 68 38t29 65q0 27 -10.5 45t-27.5 28.5t-39 14.5t-46 4q-27 0 -50 -1t-35 -3v-195h45z" />
<glyph unicode="&#x413;" horiz-adv-x="476" d="M486 601h-281v-601h-143v728h424v-127z" />
<glyph unicode="&#x414;" horiz-adv-x="718" d="M701 -130h-101l-16 130h-468l-15 -130h-101v257h77q7 11 24 50.5t33.5 112t28 181t10.5 257.5h435v-601h93v-257zM466 127v474h-161q-7 -185 -30 -303t-47 -171h238z" />
<glyph unicode="&#x415;" horiz-adv-x="542" d="M62 728h432v-127h-289v-169h263v-127h-263v-178h294v-127h-437v728z" />
<glyph unicode="&#x416;" horiz-adv-x="872" d="M364 728h135v-323l37 14l150 309h161l-170 -319l-49 -36l59 -43l192 -330h-172l-167 316h-41v-316h-135v329l-37 -15l-168 -314h-166l190 319l56 41l-54 38l-178 330h166l150 -311h41v311z" />
<glyph unicode="&#x417;" horiz-adv-x="547" d="M125 322v112h25h22.5t27.5 0.5t27.5 2t22.5 3.5q36 8 62 29.5t26 57.5q0 50 -31.5 68.5t-83.5 18.5q-47 0 -87.5 -12.5t-61.5 -24.5l-37 121q12 6 33.5 13.5t49 14t59.5 10.5t65 4q46 0 90 -8t78 -29t55 -55.5t21 -89.5q0 -54 -28.5 -99.5t-92.5 -66.5v-5 q68 -14 106 -58.5t38 -119.5q0 -59 -24 -101t-63 -69.5t-90 -40.5t-104 -13q-69 0 -125 11.5t-86 27.5l36 124q24 -12 68.5 -24t106.5 -12q23 0 46.5 6t42 19t30 33.5t11.5 49.5q0 49 -36.5 74t-130.5 27q-12 1 -18.5 1h-21.5h-28z" />
<glyph unicode="&#x418;" horiz-adv-x="692" d="M487 404l8 94h-5l-49 -98l-271 -400h-108v728h143v-396l-11 -98h7l51 101l271 393h106v-728h-142v404z" />
<glyph unicode="&#x419;" horiz-adv-x="692" d="M487 404l8 94h-5l-49 -98l-271 -400h-108v728h143v-396l-11 -98h7l51 101l271 393h106v-728h-142v404zM284 909q5 -33 25 -47.5t52 -14.5q70 0 77 61l116 -18q-12 -65 -60 -95.5t-134 -30.5q-42 0 -77.5 6.5t-62 20.5t-43.5 38t-22 59z" />
<glyph unicode="&#x41a;" horiz-adv-x="644" d="M242 311h-37v-311h-143v728h143v-322l33 14l201 308h162l-212 -306l-56 -39l58 -41l242 -342h-175z" />
<glyph unicode="&#x41b;" horiz-adv-x="647" d="M443 601h-155q-4 -99 -9 -180t-14 -146t-23.5 -115t-37.5 -86q-15 -24 -33 -39.5t-38 -25t-39 -13t-36 -3.5q-24 0 -40 3.5t-32 10.5l16 123q6 -2 12.5 -3t12.5 -1q17 0 33 8t27 28q16 23 27.5 67.5t20.5 113t14 163.5t7 222h430v-728h-143v601z" />
<glyph unicode="&#x41c;" horiz-adv-x="832" d="M627 378l16 144h-7l-44 -116l-155 -272h-46l-163 273l-46 115h-5l21 -143v-379h-136v728h130l195 -333l34 -83h4l32 85l184 331h129v-728h-143v378z" />
<glyph unicode="&#x41d;" horiz-adv-x="677" d="M471 305h-266v-305h-143v728h143v-296h266v296h143v-728h-143v305z" />
<glyph unicode="&#x41e;" horiz-adv-x="696" d="M40 364q0 182 80 280.5t228 98.5q78 0 136.5 -27.5t97 -77t57 -119.5t18.5 -155q0 -182 -80.5 -280.5t-228.5 -98.5q-79 0 -137 27.5t-96 77t-56.5 119.5t-18.5 155zM189 364q0 -55 9.5 -101.5t28.5 -79.5t49.5 -52t71.5 -19q76 0 118 59.5t42 192.5q0 53 -9 99t-28 80 t-49 53.5t-74 19.5q-76 0 -117.5 -61t-41.5 -191z" />
<glyph unicode="&#x41f;" horiz-adv-x="664" d="M460 601h-255v-601h-143v728h540v-728h-142v601z" />
<glyph unicode="&#x420;" horiz-adv-x="594" d="M62 721q44 8 96.5 12.5t104.5 4.5q54 0 108.5 -8.5t98.5 -35t71.5 -74t27.5 -123.5q0 -69 -24 -116t-63.5 -77t-90 -44t-104.5 -14h-16.5t-24 1t-24.5 2t-17 2v-251h-143v721zM275 616q-21 0 -40 -1.5t-30 -4.5v-236q4 -1 12.5 -2t17.5 -1.5t18 -0.5h13q28 0 55.5 5.5 t49.5 19.5t35 39t13 65q0 35 -12.5 57t-32.5 35.5t-46 19t-53 5.5z" />
<glyph unicode="&#x421;" horiz-adv-x="581" d="M555 30q-33 -24 -84.5 -34.5t-105.5 -10.5q-65 0 -124 20.5t-103.5 65.5t-71 117.5t-26.5 175.5q0 107 29.5 179.5t76.5 116.5t105.5 63.5t116.5 19.5q63 0 106 -8.5t71 -20.5l-28 -120q-24 11 -57 16.5t-79 5.5q-87 0 -139.5 -61.5t-52.5 -190.5q0 -56 12.5 -102.5 t38 -79t63.5 -51t88 -18.5q47 0 79 9.5t56 24.5z" />
<glyph unicode="&#x422;" horiz-adv-x="590" d="M579 601h-212v-601h-142v601h-214v127h568v-127z" />
<glyph unicode="&#x423;" horiz-adv-x="590" d="M306 407l21 -95h6l16 98l110 318h146l-193 -503q-23 -60 -44.5 -103.5t-46 -72t-54.5 -42.5t-70 -14q-35 0 -56 4.5t-46 20.5l36 115q18 -9 32.5 -11t30.5 -2q49 0 69 77l-272 531h167z" />
<glyph unicode="&#x424;" horiz-adv-x="834" d="M347 79q-19 -3 -40 -4t-45 -1q-50 0 -92.5 17t-74.5 53t-50 90.5t-18 129.5q0 71 18 126.5t52 94.5t81 60t104 21q13 0 33 -1t32 -5v89h140v-92q19 5 44.5 7t41.5 2q51 0 93.5 -18.5t74.5 -55.5t49.5 -91.5t16.5 -126.5q1 -73 -18.5 -129.5t-54 -94.5t-80 -57t-97.5 -19 q-16 0 -35.5 1.5t-34.5 5.5v-102h-140v100zM540 551q-11 -1 -28.5 -2t-29.5 -4v-354q9 -2 22 -2t24 -1q29 1 54 11.5t44 33.5t29.5 57t9.5 83q1 84 -32.5 130.5t-92.5 47.5zM298 189q9 0 26 0.5t29 4.5v353q-11 2 -24.5 2.5t-24.5 0.5q-58 0 -96 -44t-38 -141q0 -84 35 -130 t93 -46z" />
<glyph unicode="&#x425;" horiz-adv-x="658" d="M234 370l-203 358h172l112 -210l25 -74l24 74l118 210h154l-210 -350l221 -378h-170l-128 225l-28 77l-27 -77l-129 -225h-155z" />
<glyph unicode="&#x426;" horiz-adv-x="709" d="M692 -130h-101l-16 130h-513v728h143v-601h251v601h142v-601h94v-257z" />
<glyph unicode="&#x427;" horiz-adv-x="630" d="M190 728v-231q0 -62 24.5 -93t80.5 -31q40 0 75 9t55 27v319h143v-728h-143v293q-27 -15 -72 -28t-108 -13q-43 0 -79 11t-62.5 35t-41 62t-14.5 92v276h142z" />
<glyph unicode="&#x428;" horiz-adv-x="895" d="M62 0v728h143v-601h171v601h143v-601h172v601h142v-728h-771z" />
<glyph unicode="&#x429;" horiz-adv-x="947" d="M62 0v728h143v-601h171v601h143v-601h172v601h142v-601h96v-257h-100l-16 130h-751z" />
<glyph unicode="&#x42a;" horiz-adv-x="690" d="M161 601h-165v127h308v-261q5 1 17 2.5t26 2.5t29 2t28 1q50 0 97.5 -10.5t84.5 -37t59 -71.5t22 -115q0 -125 -77 -188t-223 -63q-14 0 -39 0.5t-54 2.5t-58.5 5t-54.5 9v594zM374 116q30 0 56 6t45.5 20t30.5 37t11 56q0 35 -12 57.5t-31.5 35t-45.5 16.5t-54 4 q-7 0 -17.5 -1t-20.5 -2t-19 -2.5t-13 -2.5v-217q11 -3 30.5 -5t39.5 -2z" />
<glyph unicode="&#x42b;" horiz-adv-x="829" d="M624 728h142v-728h-142v728zM62 728h143v-261q11 2 36 5t49 3q52 0 99.5 -10.5t83 -37t56 -71.5t20.5 -114q0 -127 -74 -189.5t-219 -62.5q-15 0 -37.5 0.5t-49.5 2.5t-55 5t-52 9v721zM266 116q60 0 96.5 28t36.5 92q0 34 -10 56t-28 34.5t-42 17t-52 4.5 q-14 0 -34 -2.5t-28 -5.5v-217q11 -3 27.5 -5t33.5 -2z" />
<glyph unicode="&#x42c;" horiz-adv-x="591" d="M62 728h143v-261q5 1 17 2.5t26 2.5t28.5 2t27.5 1q51 0 98.5 -10.5t84.5 -37t59 -71.5t22 -115q0 -125 -77.5 -188t-222.5 -63q-14 0 -38.5 0.5t-53.5 2.5t-59 5t-55 9v721zM276 116q29 0 55 6t45.5 20t30.5 37t11 56q0 35 -12 57.5t-31 35t-45 16.5t-54 4q-8 0 -18 -1 t-20.5 -2t-19.5 -2.5t-13 -2.5v-217q11 -3 30.5 -5t40.5 -2z" />
<glyph unicode="&#x42d;" horiz-adv-x="596" d="M135 426h280q-3 42 -17 77t-38 60t-59.5 39t-80.5 14q-56 0 -97.5 -12t-67.5 -27l-30 121q36 19 91.5 32t109.5 13q71 0 132 -20t105.5 -65t69 -117.5t24.5 -176.5q0 -108 -29 -181t-78 -116.5t-112 -62.5t-132 -19q-59 0 -107.5 10.5t-77.5 24.5l37 124q24 -12 64.5 -22 t93.5 -10q41 0 75.5 11.5t61 36t43 62t20.5 90.5h-281v114z" />
<glyph unicode="&#x42e;" horiz-adv-x="932" d="M205 432h97q13 148 87 229.5t207 81.5q79 0 135 -27.5t92 -77t53 -119.5t17 -155q0 -182 -74.5 -280.5t-222.5 -98.5q-69 0 -121.5 23t-89 64.5t-57 101t-26.5 131.5h-97v-305h-143v728h143v-296zM447 364q0 -55 8 -101.5t25 -79.5t45.5 -52t70.5 -19q76 0 112 59.5 t36 192.5q0 53 -7 99t-23.5 80t-45 53.5t-72.5 19.5q-75 0 -112 -61t-37 -191z" />
<glyph unicode="&#x42f;" horiz-adv-x="603" d="M540 0h-143v288l-75 -20l-151 -268h-166l150 242l62 45q-33 8 -62 25.5t-51 44.5t-34.5 64t-12.5 83q0 66 23 110.5t63.5 72t96.5 39.5t122 12q18 0 40.5 -1t47 -3t48 -5t42.5 -8v-721zM344 612q-28 0 -53 -5.5t-43.5 -18t-29.5 -34.5t-11 -56q0 -32 10.5 -54.5t29 -36.5 t43.5 -20t54 -6h53v225q-11 2 -23 4t-30 2z" />
<glyph unicode="&#x430;" horiz-adv-x="515" d="M56 490q42 19 99 29.5t120 10.5q54 0 90 -13t57.5 -36.5t30.5 -57t9 -75.5q0 -45 -3 -91.5t-4 -91t2.5 -87t15.5 -79.5h-110l-22 72h-5q-21 -33 -58 -56t-95 -23q-36 0 -65.5 11t-50 31t-32 47.5t-11.5 62.5q0 47 21.5 80t61.5 53t95.5 28t124.5 5q7 58 -8.5 83.5 t-69.5 25.5q-41 0 -86 -8.5t-75 -21.5zM228 103q40 0 64 18t36 39v68q-33 3 -62.5 1t-52.5 -9.5t-36.5 -21t-13.5 -34.5q0 -29 17.5 -45t47.5 -16z" />
<glyph unicode="&#x431;" horiz-adv-x="558" d="M148 422q30 46 71 66.5t99 20.5q95 0 150.5 -58t55.5 -180q0 -140 -63.5 -213t-178.5 -73q-121 0 -184.5 80.5t-63.5 249.5q0 90 10.5 153t30 107t46 70t59 41t70 21t79.5 11q54 5 92.5 12.5t56.5 25.5l6 -121q-21 -17 -59.5 -24t-104.5 -12q-39 -2 -69.5 -9.5t-52 -26 t-34.5 -52.5t-19 -89h3zM174 254q0 -67 26 -110.5t80 -43.5q56 0 80.5 39.5t24.5 114.5q0 67 -23 103.5t-76 36.5q-57 0 -84.5 -37.5t-27.5 -102.5z" />
<glyph unicode="&#x432;" horiz-adv-x="525" d="M59 519q37 3 88.5 6t110.5 3q114 0 162.5 -32.5t48.5 -98.5q0 -36 -21 -70.5t-65 -49.5v-5q56 -12 81 -43.5t25 -81.5q0 -78 -60 -116.5t-192 -38.5q-44 0 -92.5 2.5t-85.5 6.5v518zM191 104q15 -2 27.5 -3t31.5 -1q56 0 80 15.5t24 47.5q0 27 -20.5 44.5t-72.5 17.5h-70 v-121zM263 308q33 0 54.5 16t21.5 41q0 27 -18 41t-66 14q-24 0 -38 -1t-26 -2v-109h72z" />
<glyph unicode="&#x433;" horiz-adv-x="391" d="M395 400h-196v-400h-140v520h336v-120z" />
<glyph unicode="&#x434;" horiz-adv-x="590" d="M576 -119h-99l-15 119h-350l-15 -119h-99v239h61q9 11 22 38.5t26 75.5t22 118.5t9 167.5h362v-400h76v-239zM365 113v293h-109q-2 -38 -7.5 -80t-13 -81.5t-18 -74t-23.5 -57.5h171z" />
<glyph unicode="&#x435;" horiz-adv-x="528" d="M475 45q-31 -25 -84.5 -42.5t-113.5 -17.5q-126 0 -184.5 73.5t-58.5 201.5q0 137 65.5 206t184.5 69q39 0 76.5 -10.5t67 -34.5t47 -64.5t17.5 -101.5q0 -21 -2.5 -46t-7.5 -52h-312q3 -66 33.5 -99t99.5 -33q42 0 76 13t52 26zM282 426q-53 0 -78.5 -31.5t-30.5 -84.5 h193q4 56 -17 86t-67 30z" />
<glyph unicode="&#x436;" horiz-adv-x="720" d="M252 211l-106 -211h-152l136 238l35 31l-53 40l-107 211h145l96 -211h45v211h129v-222l40 15l97 207h144l-113 -211l-41 -33l53 -42l126 -234h-155l-106 215h-45v-215h-129v226z" />
<glyph unicode="&#x437;" horiz-adv-x="449" d="M113 215v95h64q36 0 59.5 14.5t23.5 38.5q0 28 -21 40t-63 12q-41 0 -72 -10.5t-50 -21.5l-29 103q31 17 82.5 30t109.5 13q90 0 134 -33t44 -97q0 -17 -4.5 -35.5t-15 -35t-25.5 -29.5t-36 -20v-4q55 -13 78 -44.5t23 -84.5q0 -34 -13.5 -62.5t-41 -49t-69 -33 t-99.5 -12.5q-57 0 -99 11.5t-70 27.5l29 105q24 -13 58 -21.5t75 -8.5q95 0 95 60q0 27 -24.5 39.5t-91.5 12.5h-51z" />
<glyph unicode="&#x438;" horiz-adv-x="566" d="M372 237l6 74h-4l-44 -76l-185 -235h-86v520h135v-248l-6 -70h4l43 74l187 244h86v-520h-136v237z" />
<glyph unicode="&#x439;" horiz-adv-x="566" d="M372 237l6 74h-4l-44 -76l-185 -235h-86v520h135v-248l-6 -70h4l43 74l187 244h86v-520h-136v237zM228 732q7 -40 24 -57t44 -17q30 0 47 17t23 56l103 -26q-12 -67 -61 -100t-115 -33q-32 0 -62 7.5t-54 23.5t-40.5 41t-23.5 61z" />
<glyph unicode="&#x43a;" horiz-adv-x="508" d="M231 215h-37v-215h-135v520h135v-222l33 15l121 207h145l-126 -198l-53 -39l58 -41l141 -242h-155z" />
<glyph unicode="&#x43b;" horiz-adv-x="535" d="M342 400h-103q-6 -73 -14.5 -146t-26.5 -130.5t-49 -93.5t-81 -36q-61 0 -86 15l17 113q17 -7 31 -7q21 0 36.5 18t26.5 63.5t18 124t10 199.5h356v-520h-135v400z" />
<glyph unicode="&#x43c;" horiz-adv-x="692" d="M504 238l9 108h-5l-42 -89l-98 -161h-49l-107 161l-39 89h-7l14 -107v-239h-121v520h141l119 -196l29 -65h5l30 68l110 193h141v-520h-130v238z" />
<glyph unicode="&#x43d;" horiz-adv-x="558" d="M364 205h-170v-205h-135v520h135v-196h170v196h135v-520h-135v205z" />
<glyph unicode="&#x43e;" horiz-adv-x="558" d="M34 260q0 132 64.5 203.5t181.5 71.5q62 0 108 -20t76 -56t45 -87t15 -112q0 -132 -64 -203.5t-180 -71.5q-63 0 -108.5 20t-76.5 56t-46 87t-15 112zM174 260q0 -34 6 -63.5t18.5 -51t33 -33.5t48.5 -12q53 0 79 38.5t26 121.5q0 72 -24 116t-81 44q-50 0 -78 -37.5 t-28 -122.5z" />
<glyph unicode="&#x43f;" horiz-adv-x="553" d="M359 400h-165v-400h-135v520h435v-520h-135v400z" />
<glyph unicode="&#x440;" horiz-adv-x="561" d="M59 520h99l16 -62h4q27 39 64 58t90 19q98 0 146.5 -62t48.5 -199q0 -67 -15.5 -120.5t-46 -91t-75 -57.5t-101.5 -20q-32 0 -53 5t-42 15v-213h-135v728zM291 420q-39 0 -61.5 -19.5t-35.5 -59.5v-216q15 -12 32 -18.5t45 -6.5q59 0 88 41t29 136q0 68 -23 105.5 t-74 37.5z" />
<glyph unicode="&#x441;" horiz-adv-x="450" d="M427 32q-31 -23 -75 -35t-91 -12q-62 0 -105.5 20t-70.5 56t-39 87t-12 112q0 132 59.5 203.5t172.5 71.5q57 0 92 -9.5t63 -24.5l-32 -110q-24 11 -47.5 17.5t-53.5 6.5q-56 0 -85 -37t-29 -118q0 -33 7 -61t21.5 -49t38 -33t54.5 -12q35 0 59 9t42 21z" />
<glyph unicode="&#x442;" horiz-adv-x="434" d="M434 400h-147v-400h-139v400h-147v120h433v-120z" />
<glyph unicode="&#x443;" horiz-adv-x="497" d="M249 228l18 -81h7l13 82l79 291h139l-158 -469q-19 -58 -37.5 -106.5t-40 -84t-48.5 -54.5t-63 -19q-54 0 -86 17l25 109q15 -7 31 -7q24 0 46.5 20.5t33.5 73.5l-217 520h162z" />
<glyph unicode="&#x444;" horiz-adv-x="728" d="M297 -6q-17 -6 -36.5 -7.5t-34.5 -1.5q-95 0 -146 68t-51 207q0 133 56 201.5t163 68.5q29 0 49 -4v202h134v-203q18 3 32.5 4t28.5 1q103 0 155 -60.5t52 -199.5q0 -65 -14 -117.5t-41 -90t-66 -57.5t-90 -20q-10 0 -28 2t-29 6v-201h-134v202zM462 423 q-11 0 -18.5 -1.5t-19.5 -3.5v-322q9 -2 19.5 -2.5t23.5 -0.5q50 0 73.5 41t23.5 136q0 82 -23 117.5t-79 35.5zM261 93q11 0 21 1.5t22 3.5v321q-20 4 -41 4q-48 0 -73.5 -37t-25.5 -126q0 -81 23.5 -124t73.5 -43z" />
<glyph unicode="&#x445;" horiz-adv-x="546" d="M177 266l-156 254h161l68 -111l29 -73l31 73l71 111h146l-157 -250l168 -270h-157l-80 125l-32 77l-33 -77l-80 -125h-148z" />
<glyph unicode="&#x446;" horiz-adv-x="581" d="M567 -119h-99l-16 119h-393v520h135v-400h162v400h135v-400h76v-239z" />
<glyph unicode="&#x447;" horiz-adv-x="525" d="M170 520v-119q0 -32 2.5 -55.5t10 -38.5t21.5 -22t37 -7q30 0 52.5 7t37.5 18v217h135v-520h-135v204q-16 -12 -48 -26t-86 -14q-39 0 -69 8.5t-51 29.5t-32 55t-11 86v177h136z" />
<glyph unicode="&#x448;" horiz-adv-x="784" d="M59 0v520h135v-400h130v400h136v-400h130v400h135v-520h-666z" />
<glyph unicode="&#x449;" horiz-adv-x="814" d="M800 -119h-98l-16 119h-627v520h135v-400h130v400h136v-400h130v400h135v-400h75v-239z" />
<glyph unicode="&#x44a;" horiz-adv-x="560" d="M244 113q30 -6 60 -6q50 0 72.5 17t22.5 54q0 67 -92 67q-37 0 -63 -7v-125zM244 335q25 4 51 5.5t47 1.5q54 0 91.5 -12t61 -33.5t34 -51.5t10.5 -64q0 -95 -57 -141.5t-190 -46.5q-59 0 -102.5 2t-80.5 5v400h-114v120h249v-185z" />
<glyph unicode="&#x44b;" horiz-adv-x="731" d="M194 113q32 -6 60 -6q47 0 65.5 17t18.5 54q0 33 -18.5 50t-62.5 17q-34 0 -63 -7v-125zM194 335q25 4 50.5 5.5t46.5 1.5q53 0 88.5 -12t57.5 -33.5t31 -51.5t9 -64q0 -47 -12.5 -82.5t-40.5 -58.5t-72.5 -35t-110.5 -12q-59 0 -102 2t-80 5v520h135v-185zM537 520h135 v-520h-135v520z" />
<glyph unicode="&#x44c;" horiz-adv-x="509" d="M194 113q32 -6 60 -6q50 0 72 17t22 54q0 67 -91 67q-34 0 -63 -7v-125zM194 335q25 4 50.5 5.5t46.5 1.5q54 0 91.5 -12t61 -33.5t34 -51.5t10.5 -64q0 -95 -56.5 -141.5t-190.5 -46.5q-59 0 -102 2t-80 5v520h135v-185z" />
<glyph unicode="&#x44d;" horiz-adv-x="477" d="M113 312h194q-5 52 -34.5 80t-86.5 28q-39 0 -69.5 -9.5t-53.5 -21.5l-36 98q69 48 185 48q117 0 174 -69.5t57 -205.5q0 -137 -64.5 -206t-176.5 -69q-49 0 -99 10t-79 28l33 106q24 -14 57 -21.5t66 -7.5q66 0 94.5 28t33.5 87h-195v97z" />
<glyph unicode="&#x44e;" horiz-adv-x="763" d="M499 -15q-58 0 -99 16t-67.5 45t-40.5 70.5t-18 93.5h-80v-210h-135v520h135v-196h81q10 101 63.5 156t162.5 55q60 0 102.5 -20t70.5 -56t41 -87t13 -112q0 -132 -56 -203.5t-173 -71.5zM402 260q0 -76 21.5 -118t75.5 -42q48 0 69 35.5t21 124.5q0 80 -20 120t-73 40 q-48 0 -71 -36.5t-23 -123.5z" />
<glyph unicode="&#x44f;" horiz-adv-x="523" d="M334 197l-63 -13l-99 -184h-162l101 163l51 39q-51 8 -84 48t-33 100q0 95 63 140t193 45q49 0 92.5 -5.5t75.5 -11.5v-518h-135v197zM334 267v144q-12 5 -25.5 7t-25.5 2q-47 0 -73 -19.5t-26 -59.5q0 -39 28.5 -58t83.5 -18z" />
<glyph unicode="&#x451;" horiz-adv-x="528" d="M475 45q-31 -25 -84.5 -42.5t-113.5 -17.5q-126 0 -184.5 73.5t-58.5 201.5q0 137 65.5 206t184.5 69q39 0 76.5 -10.5t67 -34.5t47 -64.5t17.5 -101.5q0 -21 -2.5 -46t-7.5 -52h-312q3 -66 33.5 -99t99.5 -33q42 0 76 13t52 26zM282 426q-53 0 -78.5 -31.5t-30.5 -84.5 h193q4 56 -17 86t-67 30zM88 657q0 33 20.5 53t53.5 20q34 0 53 -20t19 -53q0 -31 -19 -51t-53 -20q-33 0 -53.5 20t-20.5 51zM316 657q0 33 19.5 53t52.5 20t53.5 -20t20.5 -53q0 -31 -20.5 -51t-53.5 -20t-52.5 20t-19.5 51z" />
<glyph unicode="&#x452;" horiz-adv-x="572" d="M-12 624h76v104h136v-104h167v-83h-167v-135h4q24 33 61.5 52.5t93.5 19.5q39 0 69.5 -10t50 -34t29.5 -65t10 -102v-289q0 -94 -37.5 -144t-119.5 -50q-31 0 -67 7v113q4 0 8 -0.5t8 -0.5q45 0 59 25.5t14 71.5v239q0 64 -17.5 92t-63.5 28q-35 0 -64.5 -23t-37.5 -59 v-277h-136v541h-76v83z" />
<glyph unicode="&#x453;" horiz-adv-x="391" d="M395 400h-196v-400h-140v520h336v-120zM226 749h137v-31l-116 -129h-77z" />
<glyph unicode="&#x454;" horiz-adv-x="475" d="M452 32q-31 -23 -77.5 -35t-93.5 -12q-63 0 -108.5 20t-75 56t-44.5 87t-15 112q0 66 18 116.5t50 86t78 54t102 18.5t93.5 -9.5t65.5 -24.5l-31 -110q-24 11 -50.5 17.5t-56.5 6.5q-49 0 -84 -25t-45 -81h204v-92h-205q9 -50 43 -81t94 -31q35 0 61 9t46 21z" />
<glyph unicode="&#x455;" horiz-adv-x="438" d="M275 144q0 20 -18 32.5t-44 23t-57 21.5t-57 30t-44 49t-18 76q0 77 46 118t132 41q60 0 107.5 -12.5t74.5 -28.5l-30 -98q-24 10 -60.5 20t-73.5 10q-60 0 -60 -46q0 -19 17.5 -30.5t43.5 -21.5t57 -21.5t57 -29.5t44 -47t18 -75q0 -79 -50.5 -124.5t-151.5 -45.5 q-55 0 -103.5 14.5t-78.5 32.5l37 101q24 -13 63.5 -26t81.5 -13q30 0 48.5 11t18.5 39z" />
<glyph unicode="&#x456;" horiz-adv-x="279" d="M71 520h135v-520h-135v520zM54 667q0 30 22.5 51t62.5 21q39 0 63.5 -21t24.5 -51q0 -31 -24.5 -51t-63.5 -20q-40 0 -62.5 20t-22.5 51z" />
<glyph unicode="&#x457;" horiz-adv-x="330" d="M22 668q0 32 16 52t49 20q34 0 50 -20t16 -52t-16 -52t-50 -20q-33 0 -49 20t-16 52zM179 668q0 32 16 52t49 20q34 0 50 -20t16 -52t-16 -52t-50 -20q-33 0 -49 20t-16 52zM97 520h135v-520h-135v520z" />
<glyph unicode="&#x458;" horiz-adv-x="278" d="M72 520h135v-542q0 -94 -37.5 -144t-119.5 -50q-31 0 -67 7v113q5 0 8 -0.5t6 -0.5q47 0 61 30.5t14 83.5v503zM53 667q0 30 22.5 51t62.5 21q39 0 63.5 -21t24.5 -51q0 -31 -24.5 -51t-63.5 -20q-40 0 -62.5 20t-22.5 51z" />
<glyph unicode="&#x459;" horiz-adv-x="792" d="M477 335q25 4 50.5 5.5t46.5 1.5q54 0 91.5 -12t61 -33.5t34 -51.5t10.5 -64q0 -95 -56.5 -141.5t-190.5 -46.5q-59 0 -102 2t-80 5v400h-103q-6 -73 -14.5 -146t-26.5 -130.5t-49 -93.5t-81 -36q-61 0 -86 15l17 113q17 -7 31 -7q21 0 36.5 18t26.5 63.5t18 124 t10 199.5h356v-185zM540 245q-37 0 -63 -7v-126q15 -3 30 -4t30 -1q50 0 72 17t22 54q0 67 -91 67z" />
<glyph unicode="&#x45a;" horiz-adv-x="815" d="M499 334q25 4 51 5.5t47 1.5q54 0 91.5 -12t61 -33.5t34 -51t10.5 -63.5q0 -95 -57 -141.5t-190 -46.5q-59 0 -103 2t-80 5v207h-170v-207h-135v520h135v-193h170v193h135v-186zM499 113q29 -6 59 -6q50 0 73 17t23 54q0 66 -92 66q-37 0 -63 -7v-124z" />
<glyph unicode="&#x45b;" horiz-adv-x="572" d="M-12 624h76v104h136v-104h167v-83h-167v-135h4q24 33 61.5 52.5t93.5 19.5q39 0 69.5 -10t50 -34t29.5 -65t10 -102v-267h-135v239q0 64 -17.5 92t-63.5 28q-35 0 -64.5 -23t-37.5 -59v-277h-136v541h-76v83z" />
<glyph unicode="&#x45c;" horiz-adv-x="508" d="M231 215h-37v-215h-135v520h135v-222l33 15l121 207h145l-126 -198l-53 -39l58 -41l141 -242h-155zM254 749h137v-31l-116 -129h-77z" />
<glyph unicode="&#x45e;" horiz-adv-x="497" d="M249 228l18 -81h7l13 82l79 291h139l-158 -469q-19 -58 -37.5 -106.5t-40 -84t-48.5 -54.5t-63 -19q-54 0 -86 17l25 109q15 -7 31 -7q24 0 46.5 20.5t33.5 73.5l-217 520h162zM193 732q7 -40 24 -57t44 -17q30 0 47 17t23 56l103 -26q-12 -67 -61 -100t-115 -33 q-32 0 -62 7.5t-54 23.5t-40.5 41t-23.5 61z" />
<glyph unicode="&#x45f;" horiz-adv-x="553" d="M59 0v520h135v-400h165v400h135v-520h-154l-16 -182h-91l-21 182h-153z" />
<glyph unicode="&#x462;" horiz-adv-x="677" d="M0 674h148v80h142v-80h208v-120h-208v-93q5 1 17 2.5t26 2.5t28.5 2t27.5 1q51 0 99 -10t84.5 -36t58.5 -69.5t22 -112.5q0 -125 -77.5 -188t-221.5 -63q-15 0 -39.5 0.5t-53.5 2.5t-58.5 5t-54.5 9v547h-148v120zM361 116q29 0 55 6t46 20t30.5 37t10.5 56 q0 35 -12 57.5t-31 35t-45 16.5t-54 4q-7 0 -17.5 -1l-21 -2t-19.5 -2.5t-13 -2.5v-217q12 -3 31 -5t40 -2z" />
<glyph unicode="&#x463;" horiz-adv-x="560" d="M-5 520h114v208h135v-208h167v-97h-167v-88q25 4 51 5.5t47 1.5q54 0 91.5 -12t61 -33.5t34 -51.5t10.5 -64q0 -95 -57 -141.5t-190 -46.5q-59 0 -102.5 2t-80.5 5v423h-114v97zM244 113q30 -6 60 -6q50 0 72.5 17t22.5 54q0 67 -92 67q-37 0 -63 -7v-125z" />
<glyph unicode="&#x472;" horiz-adv-x="696" d="M40 364q0 182 80 280.5t228 98.5q78 0 136.5 -27.5t97 -77t57 -119.5t18.5 -155q0 -182 -80.5 -280.5t-228.5 -98.5q-79 0 -137 27.5t-96 77t-56.5 119.5t-18.5 155zM508 423q-9 93 -50.5 143t-109.5 50q-30 0 -57 -10.5t-48 -33.5t-35.5 -60t-18.5 -89h319zM189 309 q9 -99 51.5 -148t107.5 -49q31 0 58.5 10t48.5 32.5t35 60t18 94.5h-319z" />
<glyph unicode="&#x473;" horiz-adv-x="558" d="M34 260q0 132 64.5 203.5t181.5 71.5q62 0 108 -20t76 -56t45 -87t15 -112q0 -132 -64 -203.5t-180 -71.5q-63 0 -108.5 20t-76.5 56t-46 87t-15 112zM385 301q-9 62 -35.5 90.5t-69.5 28.5q-20 0 -37.5 -6t-31.5 -20t-24 -37t-13 -56h211zM174 215q6 -56 35 -85.5 t71 -29.5q39 0 69 25.5t36 89.5h-211z" />
<glyph unicode="&#x474;" horiz-adv-x="654" d="M361 -5h-102l-273 733h166l145 -427l19 -124h4l17 125l72 238q16 56 34 94t40 61t50.5 32.5t65.5 9.5q40 0 64.5 -6t46.5 -18l-31 -120q-18 9 -33 12t-31 3q-24 0 -39.5 -18t-29.5 -60z" />
<glyph unicode="&#x475;" horiz-adv-x="548" d="M301 -5h-83l-225 525h157l96 -272l18 -81h4l16 83l24 73q18 57 34 96.5t35 64t43.5 35t58.5 10.5q25 0 48 -4.5t38 -12.5l-19 -111q-19 10 -35 10q-18 0 -34 -14.5t-33 -54.5z" />
<glyph unicode="&#x48a;" horiz-adv-x="740" d="M487 404l8 94h-5l-49 -98l-271 -400h-108v728h143v-396l-11 -98h7l51 101l271 393h106v-608h122v-33l-100 -222h-98l47 135h-113v404zM270 909q5 -33 25 -47.5t52 -14.5q70 0 77 61l116 -18q-12 -65 -60 -95.5t-134 -30.5q-42 0 -77.5 6.5t-62 20.5t-43.5 38t-22 59z" />
<glyph unicode="&#x48b;" horiz-adv-x="613" d="M372 237l6 74h-4l-44 -76l-185 -235h-86v520h135v-248l-6 -70h4l43 74l187 244h86v-400h111v-33l-100 -206h-98l47 119h-96v237zM228 732q7 -40 24 -57t44 -17q30 0 47 17t23 56l103 -26q-12 -67 -61 -100t-115 -33q-32 0 -62 7.5t-54 23.5t-40.5 41t-23.5 61z" />
<glyph unicode="&#x48c;" horiz-adv-x="677" d="M0 674h148v80h142v-80h208v-120h-208v-93q5 1 17 2.5t26 2.5t28.5 2t27.5 1q51 0 99 -10t84.5 -36t58.5 -69.5t22 -112.5q0 -125 -77.5 -188t-221.5 -63q-15 0 -39.5 0.5t-53.5 2.5t-58.5 5t-54.5 9v547h-148v120zM361 116q29 0 55 6t46 20t30.5 37t10.5 56 q0 35 -12 57.5t-31 35t-45 16.5t-54 4q-7 0 -17.5 -1l-21 -2t-19.5 -2.5t-13 -2.5v-217q12 -3 31 -5t40 -2z" />
<glyph unicode="&#x48d;" horiz-adv-x="560" d="M-5 520h114v208h135v-208h167v-97h-167v-88q25 4 51 5.5t47 1.5q54 0 91.5 -12t61 -33.5t34 -51.5t10.5 -64q0 -95 -57 -141.5t-190 -46.5q-59 0 -102.5 2t-80.5 5v423h-114v97zM244 113q30 -6 60 -6q50 0 72.5 17t22.5 54q0 67 -92 67q-37 0 -63 -7v-125z" />
<glyph unicode="&#x48e;" horiz-adv-x="594" d="M62 721q44 8 96.5 12.5t104.5 4.5q54 0 108.5 -8.5t98.5 -35t71.5 -74t27.5 -123.5q0 -72 -26 -120.5t-70 -79.5l67 -94l-82 -61l-80 114q-44 -10 -91 -10h-16.5t-24 1t-24.5 2t-17 2v-251h-143v721zM315 497l66 -96q17 15 27.5 38.5t10.5 59.5q0 35 -12.5 57t-32.5 35.5 t-46 19t-53 5.5q-21 0 -40 -1.5t-30 -4.5v-236q4 -1 12.5 -2t17.5 -1.5t18 -0.5h13q15 0 28.5 1t26.5 4l-60 87z" />
<glyph unicode="&#x48f;" horiz-adv-x="561" d="M59 520h99l16 -62h4q27 39 64 58t90 19q98 0 146.5 -62t48.5 -199q0 -148 -73 -224l49 -58l-76 -64l-57 70q-18 -5 -38.5 -9t-42.5 -4q-32 0 -53 5t-42 15v-213h-135v728zM306 201l50 -63q15 22 23.5 56t8.5 83q0 68 -23 105.5t-74 37.5q-39 0 -61.5 -19.5t-35.5 -59.5 v-216q15 -12 32 -18.5t45 -6.5q11 0 21 1t18 4l-49 59z" />
<glyph unicode="&#x490;" horiz-adv-x="476" d="M487 728l-1 -127h-281v-601h-143v728h310l22 158h92v-158h1z" />
<glyph unicode="&#x491;" horiz-adv-x="391" d="M199 400v-400h-140v520h224l22 158h90v-278h-196z" />
<glyph unicode="&#x492;" horiz-adv-x="528" d="M523 601h-281v-199h233v-96h-233v-306h-142v306h-100v96h100v326h423v-127z" />
<glyph unicode="&#x493;" horiz-adv-x="430" d="M422 400h-196v-115h168v-83h-168v-202h-140v202h-86v83h86v235h336v-120z" />
<glyph unicode="&#x494;" horiz-adv-x="605" d="M205 0h-143v728h424v-127h-281v-211q17 6 51.5 14.5t84.5 8.5q44 0 84.5 -12t72 -41.5t51 -81t19.5 -130.5q0 -134 -59.5 -207t-191.5 -73q-28 0 -42 1t-22 3v123q7 -2 24 -2.5t34 -0.5q53 0 80 36t27 113q0 43 -9.5 71t-26 44t-39.5 23t-49 7q-25 0 -51 -6t-38 -13v-267 z" />
<glyph unicode="&#x495;" horiz-adv-x="555" d="M194 0h-135v520h331v-120h-196v-131q17 7 48.5 14.5t80.5 7.5q40 0 76 -11.5t63 -39.5t42.5 -76t15.5 -120q0 -66 -12 -116t-40 -83t-73.5 -50t-110.5 -17q-29 0 -43 2t-23 4v116q9 -1 26 -1.5t34 -0.5q102 0 102 137q0 74 -28 105.5t-74 31.5q-24 0 -47.5 -6.5 t-36.5 -12.5v-153z" />
<glyph unicode="&#x496;" horiz-adv-x="891" d="M364 728h135v-323l37 14l150 309h161l-170 -319l-49 -36l59 -43l118 -203h81v-257h-100l-15 130h-64l-167 316h-41v-316h-135v329l-37 -15l-168 -314h-166l190 319l56 41l-54 38l-178 330h166l150 -311h41v311z" />
<glyph unicode="&#x497;" horiz-adv-x="756" d="M252 211l-106 -211h-152l136 238l35 31l-53 40l-107 211h145l96 -211h45v211h129v-222l40 15l97 207h144l-113 -211l-41 -33l53 -42l61 -114h88v-239h-99l-16 119h-63l-106 215h-45v-215h-129v226z" />
<glyph unicode="&#x498;" horiz-adv-x="547" d="M125 322v112h25h22.5t27.5 0.5t27.5 2t22.5 3.5q36 8 62 29.5t26 57.5q0 50 -31.5 68.5t-83.5 18.5q-47 0 -87.5 -12.5t-61.5 -24.5l-37 121q12 6 33.5 13.5t49 14t59.5 10.5t65 4q46 0 90 -8t78 -29t55 -55.5t21 -89.5q0 -54 -28.5 -99.5t-92.5 -66.5v-5 q68 -14 106 -58.5t38 -119.5q0 -51 -18.5 -89t-48.5 -65t-70 -43t-85 -22l-14 -172h-92l-20 171q-47 5 -84 14t-60 21l36 124q24 -12 68.5 -24t106.5 -12q23 0 46.5 6t42 19t30 33.5t11.5 49.5q0 49 -36.5 74t-130.5 27q-12 1 -18.5 1h-21.5h-28z" />
<glyph unicode="&#x499;" horiz-adv-x="449" d="M113 215v95h64q36 0 59.5 15t23.5 39q0 28 -20.5 39.5t-62.5 11.5q-41 0 -72.5 -11t-50.5 -22l-29 104q31 17 82.5 30t109.5 13q90 0 134 -33t44 -97q0 -17 -4.5 -35.5t-15 -35t-25.5 -29.5t-36 -20v-4q55 -13 78 -44.5t23 -84.5t-35.5 -94.5t-110.5 -55.5l-14 -178h-92 l-19 174q-40 4 -69.5 14t-51.5 22l29 105q24 -13 58.5 -22t75.5 -9q94 0 94 60q0 27 -24.5 40t-91.5 13h-51z" />
<glyph unicode="&#x49a;" horiz-adv-x="660" d="M242 311h-37v-311h-143v728h143v-322l33 14l201 308h162l-212 -306l-56 -39l58 -41l152 -215h110v-257h-100l-15 130h-80z" />
<glyph unicode="&#x49b;" horiz-adv-x="548" d="M231 215h-37v-215h-135v520h135v-222l33 15l121 207h145l-126 -198l-53 -39l58 -41l71 -122h97v-239h-99l-16 119h-67z" />
<glyph unicode="&#x49c;" horiz-adv-x="744" d="M261 311h-56v-311h-143v728h143v-322l56 4v138h97v-130l23 2l168 308h154l-178 -306l-56 -39l58 -41l206 -342h-165l-183 311h-27v-132h-97v132z" />
<glyph unicode="&#x49d;" horiz-adv-x="610" d="M238 215h-44v-215h-135v520h135v-222l44 5v124h79v-116l23 2l96 207h141l-100 -198l-55 -39l58 -41l115 -242h-150l-101 215h-27v-122h-79v122z" />
<glyph unicode="&#x49e;" horiz-adv-x="719" d="M0 669h137v59h143v-59h96v-97h-96v-166l56 14l184 308h156l-196 -306l-66 -39l63 -41l231 -342h-176l-203 311h-49v-311h-143v561h-137v108z" />
<glyph unicode="&#x49f;" horiz-adv-x="522" d="M-15 651h86v77h135v-77h159v-83h-159v-270l31 15l119 207h148l-124 -198l-53 -39l57 -41l140 -242h-155l-127 215h-36v-215h-135v568h-86v83z" />
<glyph unicode="&#x4a0;" horiz-adv-x="747" d="M165 601h-165v127h308v-322l33 14l201 308h162l-212 -306l-56 -39l58 -41l242 -342h-175l-216 311h-37v-311h-143v583v18z" />
<glyph unicode="&#x4a1;" horiz-adv-x="561" d="M244 298l34 15l120 207h146l-126 -198l-54 -39l59 -41l140 -242h-155l-126 215h-38v-215h-135v400h-114v120h249v-222z" />
<glyph unicode="&#x4a2;" horiz-adv-x="723" d="M471 305h-266v-305h-143v728h143v-296h266v296h143v-601h91v-257h-100l-15 130h-119v305z" />
<glyph unicode="&#x4a3;" d="M364 205h-170v-205h-135v520h135v-196h170v196h135v-400h81v-239h-98l-16 119h-102v205z" />
<glyph unicode="&#x4a4;" horiz-adv-x="885" d="M894 601h-280v-601h-143v305h-266v-305h-143v728h143v-296h266v296h423v-127z" />
<glyph unicode="&#x4a5;" horiz-adv-x="690" d="M695 400h-196v-400h-135v205h-170v-205h-135v520h135v-196h170v196h331v-120z" />
<glyph unicode="&#x4a6;" horiz-adv-x="1000" d="M602 237v-237h-142v601h-255v-601h-143v728h540v-338q17 6 51.5 14.5t84.5 8.5q44 0 84.5 -12t72.5 -41.5t51 -81t19 -130.5q0 -134 -59 -207t-192 -73q-28 0 -42 1t-22 3v123q7 -2 24.5 -2.5t33.5 -0.5q53 0 80 36t27 113q0 43 -9 71t-26 44t-39.5 23t-49.5 7 q-24 0 -50 -6t-39 -13v-30z" />
<glyph unicode="&#x4a7;" horiz-adv-x="854" d="M494 0h-135v400h-165v-400h-135v520h435v-251q17 7 48 14.5t81 7.5q37 0 72.5 -11.5t63 -39.5t44.5 -76t17 -120q0 -66 -12.5 -116t-40.5 -83t-73 -50t-111 -17q-29 0 -43 2t-22 4v116q8 -1 25.5 -1.5t33.5 -0.5q102 0 102 137q0 74 -27.5 105.5t-74.5 31.5 q-24 0 -48 -6.5t-36 -12.5z" />
<glyph unicode="&#x4a8;" horiz-adv-x="911" d="M369 616q-83 0 -131.5 -60.5t-48.5 -183.5q0 -60 18.5 -108.5t47.5 -81.5t66 -51.5t74 -18.5q12 0 25 1t21 6q-24 15 -45.5 40.5t-37 60t-24 75.5t-8.5 87q0 79 19 139t54 102t83.5 63t109.5 21q65 0 113.5 -22.5t79.5 -62t46.5 -93t15.5 -115.5q0 -58 -13.5 -107.5 t-35 -88t-47.5 -65t-50 -39.5q5 -1 12 -1.5t13 -0.5q31 0 59 9t48 23l44 -112q-23 -23 -59 -35t-92 -12q-21 0 -43 3.5t-43 9.5t-39.5 15.5t-31.5 21.5q-34 -24 -76.5 -37t-98.5 -13q-84 0 -149.5 26t-111.5 75t-69.5 119.5t-23.5 158.5q0 182 83.5 280.5t245.5 98.5v-127z M475 386q0 -31 7 -64t21 -63t33.5 -55.5t46.5 -44.5q24 17 45 42.5t36 57t24 69.5t9 80q0 35 -5.5 66.5t-18 55t-32.5 37t-50 13.5q-53 0 -84.5 -47.5t-31.5 -146.5z" />
<glyph unicode="&#x4a9;" horiz-adv-x="737" d="M283 420q-58 -4 -84 -41t-26 -115q0 -37 10 -67.5t28 -52t43 -33t54 -11.5q8 0 20.5 2t19.5 7q-28 21 -48.5 65.5t-20.5 104.5q0 40 10.5 83t34.5 77.5t65 57.5t100 23q57 0 96 -17.5t62.5 -47.5t34 -69t10.5 -82q0 -36 -9.5 -68t-24 -59t-33.5 -47.5t-37 -31.5 q22 -10 51.5 -4t48.5 25l32 -93q-21 -19 -50.5 -30t-75.5 -11q-43 0 -75 12t-54 32q-33 -24 -75.5 -34t-87.5 -10q-65 0 -115 20t-84 56t-52 87t-18 112q0 60 13.5 109t44 85t77.5 56.5t115 24.5v-115zM410 279q0 -47 18 -84.5t49 -62.5q34 22 54.5 65t20.5 99 q0 47 -17 78.5t-50 31.5q-23 0 -37.5 -10.5t-23 -28t-11.5 -40t-3 -48.5z" />
<glyph unicode="&#x4aa;" horiz-adv-x="581" d="M555 30q-25 -18 -60.5 -27.5t-75.5 -13.5l-14 -171h-92l-20 175q-53 9 -99 35t-80.5 71.5t-54 111t-19.5 153.5q0 107 29.5 179.5t76.5 116.5t105.5 63.5t116.5 19.5q63 0 106 -8.5t71 -20.5l-28 -120q-24 11 -57 16.5t-79 5.5q-87 0 -139.5 -61.5t-52.5 -190.5 q0 -56 12.5 -102.5t38 -79t63.5 -51t88 -18.5q47 0 79 9.5t56 24.5z" />
<glyph unicode="&#x4ab;" horiz-adv-x="450" d="M427 32q-39 -28 -97 -39l-15 -175h-91l-20 173q-47 8 -79 31t-52.5 57.5t-29.5 80.5t-9 100q0 132 59.5 203.5t172.5 71.5q57 0 92 -9.5t63 -24.5l-32 -110q-24 11 -47.5 17.5t-53.5 6.5q-56 0 -85 -37t-29 -118q0 -33 7 -61t21.5 -49t38 -33t54.5 -12q35 0 59 9t42 21z " />
<glyph unicode="&#x4ac;" horiz-adv-x="590" d="M225 601h-214v127h568v-127h-212v-474h91v-257h-100l-16 130h-117v601z" />
<glyph unicode="&#x4ad;" horiz-adv-x="434" d="M148 400h-147v120h433v-120h-147v-280h87v-239h-98l-16 119h-112v400z" />
<glyph unicode="&#x4ae;" horiz-adv-x="615" d="M237 270l-239 458h169l134 -274l14 -76h5l16 79l129 271h153l-238 -457v-271h-143v270z" />
<glyph unicode="&#x4af;" horiz-adv-x="510" d="M-7 520h157l96 -309l19 -97h4l15 99l88 307h146l-188 -521v-207h-136v207z" />
<glyph unicode="&#x4b0;" horiz-adv-x="615" d="M76 306h142l-220 422h169l134 -274l14 -76h5l16 79l129 271h153l-221 -422h144v-95h-161v-211h-143v211h-161v95z" />
<glyph unicode="&#x4b1;" horiz-adv-x="510" d="M70 0h123l-200 520h157l96 -309l19 -97h4l15 99l88 307h146l-188 -520h124v-83h-124v-125h-136v125h-124v83z" />
<glyph unicode="&#x4b2;" horiz-adv-x="693" d="M234 370l-203 358h172l112 -210l25 -74l24 74l118 210h154l-210 -350l146 -251h114v-257h-99l-16 130h-94l-128 225l-28 77l-27 -77l-129 -225h-155z" />
<glyph unicode="&#x4b3;" horiz-adv-x="563" d="M177 266l-156 254h161l68 -111l29 -73l31 73l71 111h146l-157 -250l94 -150h92v-239h-98l-16 119h-61l-80 125l-32 77l-33 -77l-80 -125h-148z" />
<glyph unicode="&#x4b4;" horiz-adv-x="871" d="M853 -130h-101l-16 130h-512v601h-213v127h503v-127h-148v-474h251v601h142v-601h94v-257z" />
<glyph unicode="&#x4b5;" horiz-adv-x="672" d="M656 -119h-99l-15 119h-394v400h-147v120h391v-120h-109v-280h162v400h135v-400h76v-239z" />
<glyph unicode="&#x4b6;" horiz-adv-x="677" d="M425 293q-27 -15 -72 -28t-108 -13q-43 0 -79 11t-62.5 35t-41 62t-14.5 92v276h142v-231q0 -62 24.5 -93t80.5 -31q40 0 75 9t55 27v319h143v-601h90v-257h-100l-15 130h-118v293z" />
<glyph unicode="&#x4b7;" horiz-adv-x="567" d="M170 520v-119q0 -32 2.5 -55.5t10 -38.5t21.5 -22t37 -7q30 0 52.5 7t37.5 18v217h135v-400h87v-239h-99l-15 119h-108v204q-16 -12 -48 -26t-86 -14q-39 0 -69 8.5t-51 29.5t-32 55t-11 86v177h136z" />
<glyph unicode="&#x4b8;" horiz-adv-x="670" d="M283 253q-8 -1 -15.5 -1h-15.5q-46 0 -83.5 11t-64.5 35t-41.5 62t-14.5 92v276h142v-231q0 -59 21.5 -89t71.5 -35v123h97v-116q26 5 48 11.5t37 17.5v319h142v-728h-142v293q-28 -16 -85 -29v-137h-97v126z" />
<glyph unicode="&#x4b9;" horiz-adv-x="557" d="M232 165q-9 -1 -18 -1h-18q-39 0 -69 8.5t-51 29.5t-32 55t-11 86v177h135v-119q0 -58 12.5 -87.5t51.5 -34.5v122h79v-117q35 6 53 19v217h135v-520h-135v204q-16 -12 -53 -23v-120h-79v104z" />
<glyph unicode="&#x4ba;" horiz-adv-x="630" d="M440 0v231q0 62 -24.5 93t-80.5 31q-40 0 -74.5 -9t-55.5 -27v-319h-143v728h143v-293q27 15 72 28t108 13q43 0 79 -11t62.5 -35t41 -62t14.5 -92v-276h-142z" />
<glyph unicode="&#x4bb;" horiz-adv-x="566" d="M378 0v295q0 64 -18 92t-65 28q-34 0 -62.5 -23.5t-38.5 -59.5v-332h-135v728h135v-266h5q25 33 61 53t93 20q39 0 69 -10.5t50.5 -34.5t30.5 -65t10 -102v-323h-135z" />
<glyph unicode="&#x4bc;" horiz-adv-x="825" d="M357 305q3 -42 16 -77.5t37 -61.5t59.5 -40t84.5 -14q47 0 86 14t73 37l37 -120q-47 -27 -102 -42.5t-120 -15.5q-142 0 -223.5 81.5t-90.5 238.5h-33q-52 1 -86.5 14t-55.5 34.5t-30 50.5t-9 59q2 51 25 79h120q-13 -15 -17.5 -32.5t-3.5 -32.5q0 -8 3 -18.5t12.5 -18.5 t27 -13.5t47.5 -2.5q4 72 25.5 131t58 100.5t89.5 64.5t122 23q139 0 208 -80t69 -231q0 -30 -2.5 -61t-7.5 -66h-419zM647 424q3 20 3 41q0 32 -8 60.5t-25 50.5t-43 35t-61 13q-76 0 -114.5 -51.5t-41.5 -148.5h290z" />
<glyph unicode="&#x4bd;" horiz-adv-x="672" d="M620 45q-31 -25 -84.5 -42.5t-114.5 -17.5q-114 0 -173 61.5t-68 169.5h-7q-80 0 -123.5 36.5t-43.5 105.5v7q1 28 8.5 44.5t21.5 34.5h114q-15 -12 -23 -29.5t-8 -42.5q0 -20 13 -35t51 -15q15 106 78 159.5t167 53.5q40 0 77.5 -10.5t66.5 -34.5t46.5 -64.5 t17.5 -101.5q0 -21 -2.5 -46t-7.5 -52h-311q3 -66 33.5 -99t98.5 -33q43 0 76.5 13t51.5 26zM426 426q-53 0 -77.5 -31.5t-29.5 -84.5h192q0 4 0.5 8t0.5 9q0 47 -21.5 73t-64.5 26z" />
<glyph unicode="&#x4be;" horiz-adv-x="825" d="M357 305q3 -42 16 -77.5t37 -61.5t59.5 -40t84.5 -14q47 0 86 14t73 37l37 -120q-39 -22 -81.5 -35.5t-91.5 -18.5l-14 -171h-92l-20 175q-108 19 -169.5 98t-67.5 214h-33q-52 1 -86.5 14t-55.5 34.5t-30 50.5t-9 59q2 51 25 79h120q-13 -15 -17.5 -32.5t-3.5 -32.5 q0 -8 3 -18.5t12.5 -18.5t27 -13.5t47.5 -2.5q4 72 25.5 131t58 100.5t89.5 64.5t122 23q139 0 208 -80t69 -231q0 -30 -2.5 -61t-7.5 -66h-419zM647 424q3 20 3 41q0 32 -8 60.5t-25 50.5t-43 35t-61 13q-76 0 -114.5 -51.5t-41.5 -148.5h290z" />
<glyph unicode="&#x4bf;" horiz-adv-x="672" d="M620 45q-24 -19 -59 -33t-77 -21l-15 -173h-91l-20 174q-83 15 -126.5 73.5t-51.5 150.5h-7q-80 0 -123.5 36.5t-43.5 105.5v7q1 28 8.5 44.5t21.5 34.5h114q-15 -12 -23 -29.5t-8 -42.5q0 -20 13 -35t51 -15q15 106 78 159.5t167 53.5q40 0 77.5 -10.5t66.5 -34.5 t46.5 -64.5t17.5 -101.5q0 -21 -2.5 -46t-7.5 -52h-311q3 -66 33.5 -99t98.5 -33q43 0 76.5 13t51.5 26zM426 426q-53 0 -77.5 -31.5t-29.5 -84.5h192q0 4 0.5 8t0.5 9q0 47 -21.5 73t-64.5 26z" />
<glyph unicode="&#x4c0;" horiz-adv-x="296" d="M77 728h142v-728h-142v728z" />
<glyph unicode="&#x4c3;" horiz-adv-x="635" d="M441 79q0 51 -10.5 94t-34.5 73.5t-62 47.5t-92 17h-37v-311h-143v728h143v-322l33 14l201 308h162l-205 -291l-63 -42h54q50 -12 86 -35t58.5 -58.5t33.5 -86t11 -117.5v-28q0 -146 -58.5 -215.5t-158.5 -69.5q-30 0 -63 6v115h16q66 0 97.5 41t31.5 132z" />
<glyph unicode="&#x4c4;" horiz-adv-x="521" d="M352 28q0 91 -29.5 134t-91.5 48h-37v-210h-135v520h135v-226l33 15l121 211h145l-127 -205l-48 -33l43 -2q40 -12 64.5 -36t38 -55.5t18.5 -68.5t5 -73v-18q0 -128 -48.5 -187t-136.5 -59q-16 0 -33 1.5t-35 5.5v114q6 -1 12.5 -1.5t11.5 -0.5q94 0 94 126z" />
<glyph unicode="&#x4c5;" horiz-adv-x="677" d="M443 601h-155q-4 -99 -9 -180t-14 -146t-23.5 -115t-37.5 -86q-15 -24 -33 -39.5t-38 -25t-39 -13t-36 -3.5q-24 0 -40 3.5t-32 10.5l16 123q6 -2 12.5 -3t12.5 -1q17 0 33 8t27 28q16 23 27.5 67.5t20.5 113t14 163.5t7 222h430v-608h101v-33l-99 -222h-98l47 135h-94 v601z" />
<glyph unicode="&#x4c6;" horiz-adv-x="572" d="M342 400h-103q-6 -73 -14.5 -146t-26.5 -130.5t-49 -93.5t-81 -36q-61 0 -86 15l17 113q17 -7 31 -7q21 0 36.5 18t26.5 63.5t18 124t10 199.5h356v-400h99v-33l-100 -206h-97l46 119h-83v400z" />
<glyph unicode="&#x4c7;" horiz-adv-x="677" d="M614 -22q0 -94 -37.5 -144t-118.5 -50q-15 0 -32 1.5t-35 5.5v113q4 0 7.5 -0.5t8.5 -0.5q21 0 34 6.5t20 19t8.5 30.5t1.5 41v305h-266v-305h-143v728h143v-296h266v296h143v-750z" />
<glyph unicode="&#x4c8;" horiz-adv-x="558" d="M364 205h-170v-205h-135v520h135v-196h170v196h135v-542q0 -94 -37.5 -144t-119.5 -50q-31 0 -66 7v113q4 0 7.5 -0.5t7.5 -0.5q45 0 59 25.5t14 71.5v205z" />
<glyph unicode="&#x4c9;" horiz-adv-x="710" d="M471 305h-266v-305h-143v728h143v-296h266v296h143v-608h107v-33l-100 -222h-98l47 135h-99v305z" />
<glyph unicode="&#x4ca;" horiz-adv-x="599" d="M364 205h-170v-205h-135v520h135v-196h170v196h135v-400h105v-33l-100 -206h-97l46 119h-89v205z" />
<glyph unicode="&#x4cb;" horiz-adv-x="630" d="M190 728v-231q0 -62 24.5 -93t80.5 -31q40 0 75 9t55 27v319h143v-728h-117l-15 -130h-100v257h89v166q-27 -15 -72 -28t-108 -13q-43 0 -79 11t-62.5 35t-41 62t-14.5 92v276h142z" />
<glyph unicode="&#x4cc;" horiz-adv-x="525" d="M331 215q-16 -11 -48 -22.5t-86 -11.5q-77 0 -120 40t-43 134v165h136v-107q0 -29 2.5 -51t10 -37t21.5 -22.5t37 -7.5q30 0 52.5 7.5t37.5 17.5v200h135v-520h-125l-15 -119h-99v221h104v113z" />
<glyph unicode="&#x4cd;" horiz-adv-x="879" d="M627 378l16 144h-7l-44 -116l-155 -272h-46l-163 273l-46 115h-5l21 -143v-379h-136v728h130l195 -333l34 -83h4l32 85l184 331h129v-608h120v-33l-100 -222h-97l46 135h-112v378z" />
<glyph unicode="&#x4ce;" horiz-adv-x="738" d="M504 238l9 108h-5l-42 -89l-98 -161h-49l-107 161l-39 89h-7l14 -107v-239h-121v520h141l119 -196l29 -65h5l30 68l110 193h141v-400h110v-33l-100 -206h-98l47 119h-89v238z" />
<glyph unicode="&#x4cf;" horiz-adv-x="272" d="M69 728h135v-728h-135v728z" />
<glyph unicode="&#x4d0;" horiz-adv-x="629" d="M421 161h-223l-56 -161h-142l262 733h105l262 -733h-150zM234 276h156l-54 162l-22 114h-5l-22 -115zM238 909q5 -33 25 -47.5t52 -14.5q70 0 77 61l116 -18q-12 -65 -60 -95.5t-134 -30.5q-42 0 -77.5 6.5t-62 20.5t-43.5 38t-22 59z" />
<glyph unicode="&#x4d1;" horiz-adv-x="515" d="M56 490q42 19 99 29.5t120 10.5q54 0 90 -13t57.5 -36.5t30.5 -57t9 -75.5q0 -45 -3 -91.5t-4 -91t2.5 -87t15.5 -79.5h-110l-22 72h-5q-21 -33 -58 -56t-95 -23q-36 0 -65.5 11t-50 31t-32 47.5t-11.5 62.5q0 47 21.5 80t61.5 53t95.5 28t124.5 5q7 58 -8.5 83.5 t-69.5 25.5q-41 0 -86 -8.5t-75 -21.5zM228 103q40 0 64 18t36 39v68q-33 3 -62.5 1t-52.5 -9.5t-36.5 -21t-13.5 -34.5q0 -29 17.5 -45t47.5 -16zM195 732q7 -40 24 -57t44 -17q30 0 47 17t23 56l103 -26q-12 -67 -61 -100t-115 -33q-32 0 -62 7.5t-54 23.5t-40.5 41 t-23.5 61z" />
<glyph unicode="&#x4d2;" horiz-adv-x="629" d="M421 161h-223l-56 -161h-142l262 733h105l262 -733h-150zM234 276h156l-54 162l-22 114h-5l-22 -115zM123 830q0 27 19 43.5t60 16.5t59.5 -16.5t18.5 -43.5t-18.5 -43t-59.5 -16t-60 16t-19 43zM346 830q0 27 18.5 43.5t59.5 16.5q42 0 60.5 -16.5t18.5 -43.5t-18.5 -43 t-60.5 -16q-41 0 -59.5 16t-18.5 43z" />
<glyph unicode="&#x4d3;" horiz-adv-x="515" d="M56 490q42 19 99 29.5t120 10.5q54 0 90 -13t57.5 -36.5t30.5 -57t9 -75.5q0 -45 -3 -91.5t-4 -91t2.5 -87t15.5 -79.5h-110l-22 72h-5q-21 -33 -58 -56t-95 -23q-36 0 -65.5 11t-50 31t-32 47.5t-11.5 62.5q0 47 21.5 80t61.5 53t95.5 28t124.5 5q7 58 -8.5 83.5 t-69.5 25.5q-41 0 -86 -8.5t-75 -21.5zM228 103q40 0 64 18t36 39v68q-33 3 -62.5 1t-52.5 -9.5t-36.5 -21t-13.5 -34.5q0 -29 17.5 -45t47.5 -16zM69 657q0 33 20.5 53t53.5 20q34 0 53 -20t19 -53q0 -31 -19 -51t-53 -20q-33 0 -53.5 20t-20.5 51zM297 657q0 33 19.5 53 t52.5 20t53.5 -20t20.5 -53q0 -31 -20.5 -51t-53.5 -20t-52.5 20t-19.5 51z" />
<glyph unicode="&#x4d4;" horiz-adv-x="896" d="M410 553l-38 -107l-87 -154h131v261h-6zM416 177h-193l-103 -177h-150l441 728h436v-127h-289v-169h263v-127h-263v-178h294v-127h-436v177z" />
<glyph unicode="&#x4d5;" horiz-adv-x="816" d="M228 103q40 0 64 18t36 39v68q-33 3 -62.5 1t-52.5 -9.5t-36.5 -21t-13.5 -34.5q0 -29 17.5 -45t47.5 -16zM364 79q-28 -35 -69 -61t-112 -26q-36 0 -65.5 11t-50 31t-32 47.5t-11.5 62.5q0 47 21.5 80t61 53t95 28t124.5 5q7 58 -8 83.5t-69 25.5q-41 0 -83 -11t-74 -26 l-36 97q40 21 98 36t121 15q54 0 86 -14t53 -42q26 29 67.5 45t90.5 16q40 0 77 -10.5t66.5 -34.5t47 -64.5t17.5 -101.5q0 -21 -2.5 -45.5t-7.5 -52.5h-313q4 -66 34.5 -99t99.5 -33q42 0 76 13t52 26l44 -88q-31 -25 -84.5 -42.5t-113.5 -17.5q-67 0 -117.5 24.5 t-78.5 69.5h-5zM570 426q-53 0 -78.5 -31.5t-30.5 -84.5h194q3 56 -17.5 86t-67.5 30z" />
<glyph unicode="&#x4d6;" horiz-adv-x="542" d="M62 728h432v-127h-289v-169h263v-127h-263v-178h294v-127h-437v728zM206 909q5 -33 25 -47.5t52 -14.5q70 0 77 61l116 -18q-12 -65 -60 -95.5t-134 -30.5q-42 0 -77.5 6.5t-62 20.5t-43.5 38t-22 59z" />
<glyph unicode="&#x4d7;" horiz-adv-x="528" d="M475 45q-31 -25 -84.5 -42.5t-113.5 -17.5q-126 0 -184.5 73.5t-58.5 201.5q0 137 65.5 206t184.5 69q39 0 76.5 -10.5t67 -34.5t47 -64.5t17.5 -101.5q0 -21 -2.5 -46t-7.5 -52h-312q3 -66 33.5 -99t99.5 -33q42 0 76 13t52 26zM282 426q-53 0 -78.5 -31.5t-30.5 -84.5 h193q4 56 -17 86t-67 30zM207 732q7 -40 24 -57t44 -17q30 0 47 17t23 56l103 -26q-12 -67 -61 -100t-115 -33q-32 0 -62 7.5t-54 23.5t-40.5 41t-23.5 61z" />
<glyph unicode="&#x4d8;" horiz-adv-x="655" d="M191 308q-3 -21 -3 -40q0 -32 8 -61.5t24 -52.5t41 -37t60 -14q73 0 112 52t39 153h-281zM473 425q-6 91 -50.5 141t-138.5 50q-54 0 -95.5 -16.5t-65.5 -30.5l-30 122q15 9 38.5 18.5t52 16.5t60.5 12t64 5q72 0 129 -21.5t97 -68t61 -118t21 -171.5q0 -88 -17.5 -158.5 t-54 -119.5t-93.5 -75t-136 -26q-71 0 -123 23t-86 64.5t-51 100t-17 129.5q0 29 3 59.5t8 63.5h424z" />
<glyph unicode="&#x4d9;" horiz-adv-x="528" d="M52 475q31 25 84.5 42.5t114.5 17.5q62 0 108 -20t75.5 -56t44 -87t14.5 -112q0 -132 -64.5 -203.5t-175.5 -71.5q-41 0 -80 11.5t-69.5 37.5t-49.5 69.5t-19 105.5q0 44 11 95h315q-5 64 -36 93t-99 29q-43 0 -75.5 -15t-50.5 -27zM252 94q52 0 78.5 35.5t27.5 89.5 h-197q-5 -56 19.5 -90.5t71.5 -34.5z" />
<glyph unicode="&#x4da;" horiz-adv-x="655" d="M191 308q-3 -21 -3 -40q0 -32 8 -61.5t24 -52.5t41 -37t60 -14q73 0 112 52t39 153h-281zM473 425q-6 91 -50.5 141t-138.5 50q-54 0 -95.5 -16.5t-65.5 -30.5l-30 122q15 9 38.5 18.5t52 16.5t60.5 12t64 5q72 0 129 -21.5t97 -68t61 -118t21 -171.5q0 -88 -17.5 -158.5 t-54 -119.5t-93.5 -75t-136 -26q-71 0 -123 23t-86 64.5t-51 100t-17 129.5q0 29 3 59.5t8 63.5h424zM132 830q0 27 19 43.5t60 16.5t59.5 -16.5t18.5 -43.5t-18.5 -43t-59.5 -16t-60 16t-19 43zM355 830q0 27 18.5 43.5t59.5 16.5q42 0 60.5 -16.5t18.5 -43.5t-18.5 -43 t-60.5 -16q-41 0 -59.5 16t-18.5 43z" />
<glyph unicode="&#x4db;" horiz-adv-x="528" d="M51 475q31 25 84.5 42.5t114.5 17.5q62 0 108 -20t75.5 -56t44 -87t14.5 -112q0 -132 -64.5 -203.5t-175.5 -71.5q-41 0 -80 11.5t-69.5 37.5t-49.5 69.5t-19 105.5q0 44 11 95h315q-5 64 -36 93t-99 29q-43 0 -75.5 -15t-50.5 -27zM251 94q52 0 78.5 35.5t27.5 89.5 h-197q-5 -56 19.5 -90.5t71.5 -34.5zM66 657q0 33 20.5 53t53.5 20q34 0 53 -20t19 -53q0 -31 -19 -51t-53 -20q-33 0 -53.5 20t-20.5 51zM294 657q0 33 19.5 53t52.5 20t53.5 -20t20.5 -53q0 -31 -20.5 -51t-53.5 -20t-52.5 20t-19.5 51z" />
<glyph unicode="&#x4dc;" horiz-adv-x="872" d="M364 728h135v-323l37 14l150 309h161l-170 -319l-49 -36l59 -43l192 -330h-172l-167 316h-41v-316h-135v329l-37 -15l-168 -314h-166l190 319l56 41l-54 38l-178 330h166l150 -311h41v311zM244 830q0 27 19 43.5t60 16.5t59.5 -16.5t18.5 -43.5t-18.5 -43t-59.5 -16 t-60 16t-19 43zM467 830q0 27 18.5 43.5t59.5 16.5q42 0 60.5 -16.5t18.5 -43.5t-18.5 -43t-60.5 -16q-41 0 -59.5 16t-18.5 43z" />
<glyph unicode="&#x4dd;" horiz-adv-x="720" d="M252 211l-106 -211h-152l136 238l35 31l-53 40l-107 211h145l96 -211h45v211h129v-222l40 15l97 207h144l-113 -211l-41 -33l53 -42l126 -234h-155l-106 215h-45v-215h-129v226zM171 657q0 33 20.5 53t53.5 20q34 0 53 -20t19 -53q0 -31 -19 -51t-53 -20q-33 0 -53.5 20 t-20.5 51zM399 657q0 33 19.5 53t52.5 20t53.5 -20t20.5 -53q0 -31 -20.5 -51t-53.5 -20t-52.5 20t-19.5 51z" />
<glyph unicode="&#x4de;" horiz-adv-x="547" d="M125 322v112h25h22.5t27.5 0.5t27.5 2t22.5 3.5q36 8 62 29.5t26 57.5q0 50 -31.5 68.5t-83.5 18.5q-47 0 -87.5 -12.5t-61.5 -24.5l-37 121q12 6 33.5 13.5t49 14t59.5 10.5t65 4q46 0 90 -8t78 -29t55 -55.5t21 -89.5q0 -54 -28.5 -99.5t-92.5 -66.5v-5 q68 -14 106 -58.5t38 -119.5q0 -59 -24 -101t-63 -69.5t-90 -40.5t-104 -13q-69 0 -125 11.5t-86 27.5l36 124q24 -12 68.5 -24t106.5 -12q23 0 46.5 6t42 19t30 33.5t11.5 49.5q0 49 -36.5 74t-130.5 27q-12 1 -18.5 1h-21.5h-28zM60 830q0 27 19 43.5t60 16.5t59.5 -16.5 t18.5 -43.5t-18.5 -43t-59.5 -16t-60 16t-19 43zM283 830q0 27 18.5 43.5t59.5 16.5q42 0 60.5 -16.5t18.5 -43.5t-18.5 -43t-60.5 -16q-41 0 -59.5 16t-18.5 43z" />
<glyph unicode="&#x4df;" horiz-adv-x="449" d="M113 215v95h64q36 0 59.5 14.5t23.5 38.5q0 28 -21 40t-63 12q-41 0 -72 -10.5t-50 -21.5l-29 103q31 17 82.5 30t109.5 13q90 0 134 -33t44 -97q0 -17 -4.5 -35.5t-15 -35t-25.5 -29.5t-36 -20v-4q55 -13 78 -44.5t23 -84.5q0 -34 -13.5 -62.5t-41 -49t-69 -33 t-99.5 -12.5q-57 0 -99 11.5t-70 27.5l29 105q24 -13 58 -21.5t75 -8.5q95 0 95 60q0 27 -24.5 39.5t-91.5 12.5h-51zM19 657q0 33 20.5 53t53.5 20q34 0 53 -20t19 -53q0 -31 -19 -51t-53 -20q-33 0 -53.5 20t-20.5 51zM247 657q0 33 19.5 53t52.5 20t53.5 -20t20.5 -53 q0 -31 -20.5 -51t-53.5 -20t-52.5 20t-19.5 51z" />
<glyph unicode="&#x4e0;" horiz-adv-x="569" d="M231 112q31 0 58 7.5t47.5 22t32 35.5t11.5 49q0 59 -46 83t-134 24h-85v60l163 181l46 45l-61 -13h-215v122h448v-78l-177 -196l-47 -33v-4l48 10q46 0 84 -13t65 -37.5t42 -62.5t15 -88q0 -56 -20 -100.5t-57.5 -75.5t-90 -48t-118.5 -17q-23 0 -51 3t-56 7.5t-54 12.5 t-44 18l34 125q14 -9 33.5 -15.5t41 -11.5t44 -8.5t43.5 -3.5z" />
<glyph unicode="&#x4e1;" horiz-adv-x="503" d="M199 -106q61 0 99.5 29.5t38.5 83.5q0 116 -166 116h-67v55l122 184l56 51l-76 -7h-178v114h412v-73l-145 -192l-41 -30v-2l32 3q35 0 69 -14t60 -40t41.5 -63.5t15.5 -84.5q0 -57 -20 -102.5t-57 -77t-89 -48t-116 -16.5q-46 0 -93 10t-87 33l48 107q28 -14 62 -25 t79 -11z" />
<glyph unicode="&#x4e2;" horiz-adv-x="692" d="M487 404l8 94h-5l-49 -98l-271 -400h-108v728h143v-396l-11 -98h7l51 101l271 393h106v-728h-142v404zM172 890h357v-92h-357v92z" />
<glyph unicode="&#x4e3;" horiz-adv-x="566" d="M372 237l6 74h-4l-44 -76l-185 -235h-86v520h135v-248l-6 -70h4l43 74l187 244h86v-520h-136v237zM118 684h336v-95h-336v95z" />
<glyph unicode="&#x4e4;" horiz-adv-x="692" d="M487 404l8 94h-5l-49 -98l-271 -400h-108v728h143v-396l-11 -98h7l51 101l271 393h106v-728h-142v404zM156 830q0 27 19 43.5t60 16.5t59.5 -16.5t18.5 -43.5t-18.5 -43t-59.5 -16t-60 16t-19 43zM379 830q0 27 18.5 43.5t59.5 16.5q42 0 60.5 -16.5t18.5 -43.5 t-18.5 -43t-60.5 -16q-41 0 -59.5 16t-18.5 43z" />
<glyph unicode="&#x4e5;" horiz-adv-x="566" d="M372 237l6 74h-4l-44 -76l-185 -235h-86v520h135v-248l-6 -70h4l43 74l187 244h86v-520h-136v237zM107 657q0 33 20.5 53t53.5 20q34 0 53 -20t19 -53q0 -31 -19 -51t-53 -20q-33 0 -53.5 20t-20.5 51zM335 657q0 33 19.5 53t52.5 20t53.5 -20t20.5 -53q0 -31 -20.5 -51 t-53.5 -20t-52.5 20t-19.5 51z" />
<glyph unicode="&#x4e6;" horiz-adv-x="696" d="M40 364q0 182 80 280.5t228 98.5q78 0 136.5 -27.5t97 -77t57 -119.5t18.5 -155q0 -182 -80.5 -280.5t-228.5 -98.5q-79 0 -137 27.5t-96 77t-56.5 119.5t-18.5 155zM189 364q0 -55 9.5 -101.5t28.5 -79.5t49.5 -52t71.5 -19q76 0 118 59.5t42 192.5q0 53 -9 99t-28 80 t-49 53.5t-74 19.5q-76 0 -117.5 -61t-41.5 -191zM158 830q0 27 19 43.5t60 16.5t59.5 -16.5t18.5 -43.5t-18.5 -43t-59.5 -16t-60 16t-19 43zM381 830q0 27 18.5 43.5t59.5 16.5q42 0 60.5 -16.5t18.5 -43.5t-18.5 -43t-60.5 -16q-41 0 -59.5 16t-18.5 43z" />
<glyph unicode="&#x4e7;" horiz-adv-x="558" d="M34 260q0 132 64.5 203.5t181.5 71.5q62 0 108 -20t76 -56t45 -87t15 -112q0 -132 -64 -203.5t-180 -71.5q-63 0 -108.5 20t-76.5 56t-46 87t-15 112zM174 260q0 -34 6 -63.5t18.5 -51t33 -33.5t48.5 -12q53 0 79 38.5t26 121.5q0 72 -24 116t-81 44q-50 0 -78 -37.5 t-28 -122.5zM91 657q0 33 20.5 53t53.5 20q34 0 53 -20t19 -53q0 -31 -19 -51t-53 -20q-33 0 -53.5 20t-20.5 51zM319 657q0 33 19.5 53t52.5 20t53.5 -20t20.5 -53q0 -31 -20.5 -51t-53.5 -20t-52.5 20t-19.5 51z" />
<glyph unicode="&#x4e8;" horiz-adv-x="696" d="M40 364q0 182 80 280.5t228 98.5q78 0 136.5 -27.5t97 -77t57 -119.5t18.5 -155q0 -182 -80.5 -280.5t-228.5 -98.5q-79 0 -137 27.5t-96 77t-56.5 119.5t-18.5 155zM508 423q-9 93 -50.5 143t-109.5 50q-30 0 -57 -10.5t-48 -33.5t-35.5 -60t-18.5 -89h319zM189 309 q9 -99 51.5 -148t107.5 -49q31 0 58.5 10t48.5 32.5t35 60t18 94.5h-319z" />
<glyph unicode="&#x4e9;" horiz-adv-x="558" d="M34 260q0 132 64.5 203.5t181.5 71.5q62 0 108 -20t76 -56t45 -87t15 -112q0 -132 -64 -203.5t-180 -71.5q-63 0 -108.5 20t-76.5 56t-46 87t-15 112zM385 301q-9 62 -35.5 90.5t-69.5 28.5q-20 0 -37.5 -6t-31.5 -20t-24 -37t-13 -56h211zM174 215q6 -56 35 -85.5 t71 -29.5q39 0 69 25.5t36 89.5h-211z" />
<glyph unicode="&#x4ea;" horiz-adv-x="696" d="M40 364q0 182 80 280.5t228 98.5q78 0 136.5 -27.5t97 -77t57 -119.5t18.5 -155q0 -182 -80.5 -280.5t-228.5 -98.5q-79 0 -137 27.5t-96 77t-56.5 119.5t-18.5 155zM508 423q-9 93 -50.5 143t-109.5 50q-30 0 -57 -10.5t-48 -33.5t-35.5 -60t-18.5 -89h319zM189 309 q9 -99 51.5 -148t107.5 -49q31 0 58.5 10t48.5 32.5t35 60t18 94.5h-319zM159 830q0 27 19 43.5t60 16.5t59.5 -16.5t18.5 -43.5t-18.5 -43t-59.5 -16t-60 16t-19 43zM382 830q0 27 18.5 43.5t59.5 16.5q42 0 60.5 -16.5t18.5 -43.5t-18.5 -43t-60.5 -16q-41 0 -59.5 16 t-18.5 43z" />
<glyph unicode="&#x4eb;" horiz-adv-x="558" d="M34 260q0 132 64.5 203.5t181.5 71.5q62 0 108 -20t76 -56t45 -87t15 -112q0 -132 -64 -203.5t-180 -71.5q-63 0 -108.5 20t-76.5 56t-46 87t-15 112zM385 301q-9 62 -35.5 90.5t-69.5 28.5q-20 0 -37.5 -6t-31.5 -20t-24 -37t-13 -56h211zM174 215q6 -56 35 -85.5 t71 -29.5q39 0 69 25.5t36 89.5h-211zM91 657q0 33 20.5 53t53.5 20q34 0 53 -20t19 -53q0 -31 -19 -51t-53 -20q-33 0 -53.5 20t-20.5 51zM319 657q0 33 19.5 53t52.5 20t53.5 -20t20.5 -53q0 -31 -20.5 -51t-53.5 -20t-52.5 20t-19.5 51z" />
<glyph unicode="&#x4ec;" horiz-adv-x="596" d="M135 426h280q-3 42 -17 77t-38 60t-59.5 39t-80.5 14q-56 0 -97.5 -12t-67.5 -27l-30 121q36 19 91.5 32t109.5 13q71 0 132 -20t105.5 -65t69 -117.5t24.5 -176.5q0 -108 -29 -181t-78 -116.5t-112 -62.5t-132 -19q-59 0 -107.5 10.5t-77.5 24.5l37 124q24 -12 64.5 -22 t93.5 -10q41 0 75.5 11.5t61 36t43 62t20.5 90.5h-281v114zM50 830q0 27 19 43.5t60 16.5t59.5 -16.5t18.5 -43.5t-18.5 -43t-59.5 -16t-60 16t-19 43zM273 830q0 27 18.5 43.5t59.5 16.5q42 0 60.5 -16.5t18.5 -43.5t-18.5 -43t-60.5 -16q-41 0 -59.5 16t-18.5 43z" />
<glyph unicode="&#x4ed;" horiz-adv-x="477" d="M113 312h194q-5 52 -34.5 80t-86.5 28q-39 0 -69.5 -9.5t-53.5 -21.5l-36 98q69 48 185 48q117 0 174 -69.5t57 -205.5q0 -137 -64.5 -206t-176.5 -69q-49 0 -99 10t-79 28l33 106q24 -14 57 -21.5t66 -7.5q66 0 94.5 28t33.5 87h-195v97zM25 657q0 33 20.5 53t53.5 20 q34 0 53 -20t19 -53q0 -31 -19 -51t-53 -20q-33 0 -53.5 20t-20.5 51zM253 657q0 33 19.5 53t52.5 20t53.5 -20t20.5 -53q0 -31 -20.5 -51t-53.5 -20t-52.5 20t-19.5 51z" />
<glyph unicode="&#x4ee;" horiz-adv-x="590" d="M306 407l21 -95h6l16 98l110 318h146l-193 -503q-23 -60 -44.5 -103.5t-46 -72t-54.5 -42.5t-70 -14q-35 0 -56 4.5t-46 20.5l36 115q18 -9 32.5 -11t30.5 -2q49 0 69 77l-272 531h167zM131 890h357v-92h-357v92z" />
<glyph unicode="&#x4ef;" horiz-adv-x="497" d="M249 228l18 -81h7l13 82l79 291h139l-158 -469q-19 -58 -37.5 -106.5t-40 -84t-48.5 -54.5t-63 -19q-54 0 -86 17l25 109q15 -7 31 -7q24 0 46.5 20.5t33.5 73.5l-217 520h162zM89 684h336v-95h-336v95z" />
<glyph unicode="&#x4f0;" horiz-adv-x="590" d="M306 407l21 -95h6l16 98l110 318h146l-193 -503q-23 -60 -44.5 -103.5t-46 -72t-54.5 -42.5t-70 -14q-35 0 -56 4.5t-46 20.5l36 115q18 -9 32.5 -11t30.5 -2q49 0 69 77l-272 531h167zM128 830q0 27 19 43.5t60 16.5t59.5 -16.5t18.5 -43.5t-18.5 -43t-59.5 -16t-60 16 t-19 43zM351 830q0 27 18.5 43.5t59.5 16.5q42 0 60.5 -16.5t18.5 -43.5t-18.5 -43t-60.5 -16q-41 0 -59.5 16t-18.5 43z" />
<glyph unicode="&#x4f1;" horiz-adv-x="497" d="M249 228l18 -81h7l13 82l79 291h139l-158 -469q-19 -58 -37.5 -106.5t-40 -84t-48.5 -54.5t-63 -19q-54 0 -86 17l25 109q15 -7 31 -7q24 0 46.5 20.5t33.5 73.5l-217 520h162zM74 657q0 33 20.5 53t53.5 20q34 0 53 -20t19 -53q0 -31 -19 -51t-53 -20q-33 0 -53.5 20 t-20.5 51zM302 657q0 33 19.5 53t52.5 20t53.5 -20t20.5 -53q0 -31 -20.5 -51t-53.5 -20t-52.5 20t-19.5 51z" />
<glyph unicode="&#x4f2;" horiz-adv-x="590" d="M306 407l21 -95h6l16 98l110 318h146l-193 -503q-23 -60 -44.5 -103.5t-46 -72t-54.5 -42.5t-70 -14q-35 0 -56 4.5t-46 20.5l36 115q18 -9 32.5 -11t30.5 -2q49 0 69 77l-272 531h167zM210 884h139v-17l-104 -96h-97zM416 884h145v-17l-148 -96h-98z" />
<glyph unicode="&#x4f3;" horiz-adv-x="497" d="M249 228l18 -81h7l13 82l79 291h139l-158 -469q-19 -58 -37.5 -106.5t-40 -84t-48.5 -54.5t-63 -19q-54 0 -86 17l25 109q15 -7 31 -7q24 0 46.5 20.5t33.5 73.5l-217 520h162zM168 728h124v-17l-79 -117h-82zM353 728h131v-17l-123 -117h-84z" />
<glyph unicode="&#x4f4;" horiz-adv-x="630" d="M190 728v-231q0 -62 24.5 -93t80.5 -31q40 0 75 9t55 27v319h143v-728h-143v293q-27 -15 -72 -28t-108 -13q-43 0 -79 11t-62.5 35t-41 62t-14.5 92v276h142zM125 830q0 27 19 43.5t60 16.5t59.5 -16.5t18.5 -43.5t-18.5 -43t-59.5 -16t-60 16t-19 43zM348 830 q0 27 18.5 43.5t59.5 16.5q42 0 60.5 -16.5t18.5 -43.5t-18.5 -43t-60.5 -16q-41 0 -59.5 16t-18.5 43z" />
<glyph unicode="&#x4f5;" horiz-adv-x="525" d="M170 520v-119q0 -32 2.5 -55.5t10 -38.5t21.5 -22t37 -7q30 0 52.5 7t37.5 18v217h135v-520h-135v204q-16 -12 -48 -26t-86 -14q-39 0 -69 8.5t-51 29.5t-32 55t-11 86v177h136zM62 657q0 33 20.5 53t53.5 20q34 0 53 -20t19 -53q0 -31 -19 -51t-53 -20q-33 0 -53.5 20 t-20.5 51zM290 657q0 33 19.5 53t52.5 20t53.5 -20t20.5 -53q0 -31 -20.5 -51t-53.5 -20t-52.5 20t-19.5 51z" />
<glyph unicode="&#x4f6;" horiz-adv-x="476" d="M486 601h-281v-474h91v-257h-99l-16 130h-119v728h424v-127z" />
<glyph unicode="&#x4f7;" horiz-adv-x="391" d="M59 520h336v-120h-196v-280h93v-239h-99l-15 119h-119v520z" />
<glyph unicode="&#x4f8;" horiz-adv-x="829" d="M624 728h142v-728h-142v728zM62 728h143v-261q11 2 36 5t49 3q52 0 99.5 -10.5t83 -37t56 -71.5t20.5 -114q0 -127 -74 -189.5t-219 -62.5q-15 0 -37.5 0.5t-49.5 2.5t-55 5t-52 9v721zM266 116q60 0 96.5 28t36.5 92q0 34 -10 56t-28 34.5t-42 17t-52 4.5 q-14 0 -34 -2.5t-28 -5.5v-217q11 -3 27.5 -5t33.5 -2zM220 830q0 27 19 43.5t60 16.5t59.5 -16.5t18.5 -43.5t-18.5 -43t-59.5 -16t-60 16t-19 43zM443 830q0 27 18.5 43.5t59.5 16.5q42 0 60.5 -16.5t18.5 -43.5t-18.5 -43t-60.5 -16q-41 0 -59.5 16t-18.5 43z" />
<glyph unicode="&#x4f9;" horiz-adv-x="731" d="M194 113q32 -6 60 -6q47 0 65.5 17t18.5 54q0 33 -18.5 50t-62.5 17q-34 0 -63 -7v-125zM194 335q25 4 50.5 5.5t46.5 1.5q53 0 88.5 -12t57.5 -33.5t31 -51.5t9 -64q0 -47 -12.5 -82.5t-40.5 -58.5t-72.5 -35t-110.5 -12q-59 0 -102 2t-80 5v520h135v-185zM537 520h135 v-520h-135v520zM170 657q0 33 20.5 53t53.5 20q34 0 53 -20t19 -53q0 -31 -19 -51t-53 -20q-33 0 -53.5 20t-20.5 51zM398 657q0 33 19.5 53t52.5 20t53.5 -20t20.5 -53q0 -31 -20.5 -51t-53.5 -20t-52.5 20t-19.5 51z" />
<glyph unicode="&#x4fc;" horiz-adv-x="658" d="M470 -22q0 36 -15.5 69t-30.5 57l-74 121l-29 77l-27 -77l-129 -225h-155l224 370l-203 358h172l112 -210l25 -74l24 74l118 210h154l-210 -350l136 -222q26 -41 40.5 -86.5t14.5 -90.5q0 -94 -42.5 -144t-126.5 -50q-15 0 -32.5 1.5t-34.5 5.5v113q4 0 7.5 -0.5 t7.5 -0.5q45 0 59.5 22t14.5 52z" />
<glyph unicode="&#x4fd;" horiz-adv-x="546" d="M461 133q23 -33 38.5 -77t15.5 -82q0 -92 -39.5 -141t-122.5 -49q-33 0 -68 7v108q5 -1 10 -1h10q43 0 59.5 19t15.5 50q0 28 -13 55.5t-28 49.5l-35 53l-36 75l-32 -75l-80 -125h-148l169 266l-156 254h161l68 -111l29 -73l31 73l71 111h146l-157 -250z" />
<glyph unicode="&#x1e30;" horiz-adv-x="644" d="M242 311h-37v-311h-143v728h143v-322l33 14l201 308h162l-212 -306l-56 -39l58 -41l242 -342h-175zM323 905h165v-31l-166 -92h-108z" />
<glyph unicode="&#x1e31;" horiz-adv-x="510" d="M231 215h-37v-215h-135v728h135v-430l32 15l118 207h149l-125 -198l-53 -39l57 -41l141 -242h-155zM311 749h137v-31l-116 -129h-77z" />
<glyph unicode="&#x1e3e;" horiz-adv-x="832" d="M627 378l16 144h-7l-44 -116l-155 -272h-46l-163 273l-46 115h-5l21 -143v-379h-136v728h130l195 -333l34 -83h4l32 85l184 331h129v-728h-143v378zM439 905h165v-31l-166 -92h-108z" />
<glyph unicode="&#x1e3f;" horiz-adv-x="837" d="M355 0v283q0 72 -13.5 102t-56.5 30q-35 0 -57 -19.5t-34 -49.5v-346h-135v520h105l16 -69h4q24 34 61 59t95 25q50 0 81.5 -20.5t49.5 -68.5q24 41 61.5 65t90.5 24q44 0 74.5 -10.5t49.5 -36t28.5 -68t9.5 -108.5v-312h-135v292q0 62 -13 92.5t-58 30.5 q-36 0 -57.5 -20t-31.5 -54v-341h-135zM415 749h137v-31l-116 -129h-77z" />
<glyph unicode="&#x1e54;" horiz-adv-x="594" d="M62 721q44 8 96.5 12.5t104.5 4.5q54 0 108.5 -8.5t98.5 -35t71.5 -74t27.5 -123.5q0 -69 -24 -116t-63.5 -77t-90 -44t-104.5 -14h-16.5t-24 1t-24.5 2t-17 2v-251h-143v721zM275 616q-21 0 -40 -1.5t-30 -4.5v-236q4 -1 12.5 -2t17.5 -1.5t18 -0.5h13q28 0 55.5 5.5 t49.5 19.5t35 39t13 65q0 35 -12.5 57t-32.5 35.5t-46 19t-53 5.5zM304 905h165v-31l-166 -92h-108z" />
<glyph unicode="&#x1e55;" horiz-adv-x="561" d="M59 520h99l16 -62h4q27 39 64 58t90 19q98 0 146.5 -62t48.5 -199q0 -67 -15.5 -120.5t-46 -91t-75 -57.5t-101.5 -20q-32 0 -53 5t-42 15v-213h-135v728zM291 420q-39 0 -61.5 -19.5t-35.5 -59.5v-216q15 -12 32 -18.5t45 -6.5q59 0 88 41t29 136q0 68 -23 105.5 t-74 37.5zM275 749h137v-31l-116 -129h-77z" />
<glyph unicode="&#x1e9e;" horiz-adv-x="698" d="M436 593q-19 16 -50.5 25.5t-70.5 9.5q-36 0 -58 -13t-33.5 -36.5t-15 -56t-3.5 -72.5v-450h-143v497q0 59 13.5 104.5t44.5 76.5t79.5 47.5t116.5 16.5q53 0 95 -8t77 -22t64 -32.5t57 -38.5l-140 -187l-36 -30v-5l36 8q84 -6 134.5 -57t50.5 -144q0 -113 -64 -177 t-186 -64q-15 0 -36 2.5t-42 6.5t-40 9t-29 11l28 118q10 -5 24.5 -8.5t30 -6t30 -4t25.5 -1.5q52 0 80.5 29t28.5 83q0 57 -38.5 83t-117.5 26h-52v86z" />
<glyph unicode="&#x2000;" horiz-adv-x="455" />
<glyph unicode="&#x2001;" horiz-adv-x="910" />
<glyph unicode="&#x2002;" horiz-adv-x="455" />
<glyph unicode="&#x2003;" horiz-adv-x="910" />
<glyph unicode="&#x2004;" horiz-adv-x="303" />
<glyph unicode="&#x2005;" horiz-adv-x="227" />
<glyph unicode="&#x2006;" horiz-adv-x="151" />
<glyph unicode="&#x2007;" horiz-adv-x="151" />
<glyph unicode="&#x2008;" horiz-adv-x="113" />
<glyph unicode="&#x2009;" horiz-adv-x="182" />
<glyph unicode="&#x200a;" horiz-adv-x="50" />
<glyph unicode="&#x2010;" horiz-adv-x="374" d="M56 359h261v-120h-261v120z" />
<glyph unicode="&#x2011;" horiz-adv-x="374" d="M56 359h261v-120h-261v120z" />
<glyph unicode="&#x2012;" horiz-adv-x="374" d="M56 359h261v-120h-261v120z" />
<glyph unicode="&#x2013;" horiz-adv-x="686" d="M113 360h460v-120h-460v120z" />
<glyph unicode="&#x2014;" horiz-adv-x="852" d="M113 360h626v-120h-626v120z" />
<glyph unicode="&#x2018;" horiz-adv-x="231" d="M192 643q0 -30 -20 -48.5t-50 -18.5q-39 0 -60.5 24.5t-21.5 65.5t13 70t31 48.5t37.5 30.5t34.5 16l33 -56q-21 -9 -35.5 -27t-16.5 -39q21 0 38 -18t17 -48z" />
<glyph unicode="&#x2019;" horiz-adv-x="231" d="M40 670q0 30 20 48.5t51 18.5q38 0 59.5 -25t21.5 -65q0 -42 -13 -71t-31 -48t-38.5 -30t-33.5 -16l-34 57q20 9 36.5 24.5t18.5 39.5q-21 -1 -39 16t-18 51z" />
<glyph unicode="&#x201a;" horiz-adv-x="231" d="M40 65q0 30 20 48.5t51 18.5q38 0 59.5 -25t21.5 -65q0 -42 -13 -71t-31 -48t-38.5 -30t-33.5 -16l-34 57q20 9 36.5 24.5t18.5 39.5q-21 -1 -39 16t-18 51z" />
<glyph unicode="&#x201c;" horiz-adv-x="411" d="M372 643q0 -30 -20 -48.5t-50 -18.5q-39 0 -60.5 24.5t-21.5 65.5t13 70t31 48.5t37.5 30.5t34.5 16l33 -56q-21 -9 -35.5 -27t-16.5 -39q21 0 38 -18t17 -48zM192 643q0 -30 -20 -48.5t-50 -18.5q-39 0 -60.5 24.5t-21.5 65.5t13 70t31 48.5t37.5 30.5t34.5 16l33 -56 q-21 -9 -35.5 -27t-16.5 -39q21 0 38 -18t17 -48z" />
<glyph unicode="&#x201d;" horiz-adv-x="411" d="M220 670q0 30 20 48.5t51 18.5q38 0 59.5 -25t21.5 -65q0 -42 -13 -71t-31 -48t-38.5 -30t-33.5 -16l-34 57q20 9 36.5 24.5t18.5 39.5q-21 -1 -39 16t-18 51zM40 670q0 30 20 48.5t51 18.5q38 0 59.5 -25t21.5 -65q0 -42 -13 -71t-31 -48t-38.5 -30t-33.5 -16l-34 57 q20 9 36.5 24.5t18.5 39.5q-21 -1 -39 16t-18 51z" />
<glyph unicode="&#x201e;" horiz-adv-x="411" d="M220 65q0 30 20 48.5t51 18.5q38 0 59.5 -25t21.5 -65q0 -42 -13 -71t-31 -48t-38.5 -30t-33.5 -16l-34 57q20 9 36.5 24.5t18.5 39.5q-21 -1 -39 16t-18 51zM40 65q0 30 20 48.5t51 18.5q38 0 59.5 -25t21.5 -65q0 -42 -13 -71t-31 -48t-38.5 -30t-33.5 -16l-34 57 q20 9 36.5 24.5t18.5 39.5q-21 -1 -39 16t-18 51z" />
<glyph unicode="&#x2020;" horiz-adv-x="529" d="M42 534h120l54 -17l-16 56v155h129v-155l-16 -56l53 17h122v-117h-124l-51 17l16 -52v-382l-17 -208h-96l-16 209v381l16 52l-54 -17h-120v117z" />
<glyph unicode="&#x2021;" horiz-adv-x="529" d="M200 386l16 47l-54 -16h-120v117h120l54 -16l-16 52v158h129v-158l-16 -52l53 16h122v-117h-124l-51 16l16 -47v-88l-16 -46l51 15h124v-116h-122l-53 15l16 -52v-114l-18 -208h-94l-17 209v113l16 52l-54 -15h-120v116h120l54 -15l-16 46v88z" />
<glyph unicode="&#x2022;" horiz-adv-x="470" d="M76 323q0 36 12.5 65t34.5 50t50.5 33t60.5 12q33 0 62.5 -11t50.5 -31.5t33.5 -50t12.5 -67.5q0 -37 -12.5 -66t-33.5 -49.5t-50.5 -31.5t-62.5 -11q-32 0 -60.5 11t-50.5 31.5t-34.5 49.5t-12.5 66z" />
<glyph unicode="&#x2026;" horiz-adv-x="841" d="M55 69q0 36 22.5 57.5t60.5 21.5q39 0 62 -21.5t23 -57.5q0 -37 -23 -58.5t-62 -21.5q-38 0 -60.5 21.5t-22.5 58.5zM338 69q0 36 22.5 57.5t60.5 21.5q39 0 62 -21.5t23 -57.5q0 -37 -23 -58.5t-62 -21.5q-38 0 -60.5 21.5t-22.5 58.5zM621 69q0 36 22.5 57.5t60.5 21.5 q39 0 62 -21.5t23 -57.5q0 -37 -23 -58.5t-62 -21.5q-38 0 -60.5 21.5t-22.5 58.5z" />
<glyph unicode="&#x202f;" horiz-adv-x="182" />
<glyph unicode="&#x2030;" horiz-adv-x="1281" d="M53 564q0 46 13.5 79.5t37.5 55.5t58 31.5t73 9.5q40 0 73 -9t57.5 -30t38 -54.5t14.5 -82.5q-1 -49 -14.5 -83t-38 -54.5t-57.5 -30t-73 -9.5q-39 0 -73 9.5t-58 30t-37.5 54.5t-13.5 83zM174 564q0 -90 61 -90q33 0 47 19.5t15 70.5q-1 50 -15 69.5t-47 19.5 q-32 0 -46.5 -19.5t-14.5 -69.5zM470 178q0 46 13.5 79.5t37.5 55.5t58 31.5t73 9.5q40 0 73 -9t57.5 -30t38 -54.5t14.5 -82.5q-1 -49 -14.5 -83t-38 -54.5t-57.5 -30t-73 -9.5q-39 0 -73 9.5t-58 30t-37.5 54.5t-13.5 83zM591 178q0 -90 61 -90q33 0 47 19.5t15 70.5 q-1 50 -15 69.5t-47 19.5q-32 0 -46.5 -19.5t-14.5 -69.5zM873 178q0 46 13.5 79.5t37.5 55.5t58 31.5t73 9.5q40 0 73 -9t57.5 -30t38 -54.5t14.5 -82.5q-1 -49 -14.5 -83t-38 -54.5t-57.5 -30t-73 -9.5q-39 0 -73 9.5t-58 30t-37.5 54.5t-13.5 83zM994 178q0 -90 61 -90 q33 0 47 19.5t15 70.5q-1 50 -15 69.5t-47 19.5q-32 0 -46.5 -19.5t-14.5 -69.5zM704 743l76 -69l-599 -689l-76 72z" />
<glyph unicode="&#x2039;" horiz-adv-x="319" d="M30 269l167 240l78 -65l-87 -131l-50 -43l50 -37l95 -127l-80 -66z" />
<glyph unicode="&#x203a;" horiz-adv-x="319" d="M289 279l-166 -239l-79 63l87 132l50 43l-50 37l-96 128l81 66z" />
<glyph unicode="&#x2044;" horiz-adv-x="191" d="M277 744l88 -52l-447 -707l-90 56z" />
<glyph unicode="&#x205f;" horiz-adv-x="227" />
<glyph unicode="&#x2081;" horiz-adv-x="428" d="M75 0h101v171l10 47l-31 -33l-61 -40l-51 80l164 115h88v-340h92v-104h-312v104z" />
<glyph unicode="&#x2082;" horiz-adv-x="428" d="M362 208q0 -61 -31 -105t-75 -83l-49 -26v-4l61 11h111v-105h-326v74q27 19 60.5 43.5t62 53.5t47.5 59t19 57q0 51 -58 51q-28 0 -53 -9t-44 -20l-35 93q36 22 77.5 32t78.5 10q74 0 114 -34t40 -98z" />
<glyph unicode="&#x2083;" horiz-adv-x="428" d="M176 -12q46 0 65 14.5t20 38.5q-1 23 -21 37t-73 14h-43v39l76 83l44 26l-60 -6h-120v99h295v-65l-91 -95l-35 -19v-5l31 3q54 -2 85 -33t32 -87q-1 -37 -16.5 -64t-41 -45t-59.5 -26t-71 -8q-40 0 -75 6.5t-60 18.5l24 93q43 -19 94 -19z" />
<glyph unicode="&#x2084;" horiz-adv-x="428" d="M418 -23h-79v-81h-105v81h-215v70l226 294h94v-271h79v-93zM234 159l6 55h-5l-23 -51l-50 -68l-37 -34l54 9h55v89z" />
<glyph unicode="&#x20ac;" d="M35 494h65q15 69 45 115.5t69.5 76.5t86.5 43.5t98 13.5q54 0 96.5 -8.5t70.5 -20.5l-37 -107q-23 10 -53 14.5t-70 4.5q-63 0 -107.5 -31t-67.5 -101h269l-27 -97h-259q-1 -8 -1 -16v-17v-27h239l-27 -97h-195q21 -68 66 -103t120 -35q44 0 75.5 9.5t56.5 23.5l28 -105 q-15 -11 -37 -20t-46 -14t-49 -8t-48 -3q-114 0 -192.5 61t-105.5 194h-96l33 97h51v27v16.5t1 16.5h-85z" />
<glyph unicode="&#x20b4;" d="M515 334v-97h-259q-15 -14 -26 -38t-11 -45q0 -27 23 -43t79 -16q55 0 88 9.5t56 22.5l30 -102q-26 -15 -73 -27.5t-132 -12.5q-98 0 -150 37.5t-52 112.5q0 17 4 33t9.5 30t11.5 23.5t10 15.5h-76v97h468zM47 393v97h260q15 14 26.5 38t11.5 47q0 58 -83 58 q-42 0 -71.5 -8.5t-54.5 -21.5l-38 102q16 8 33.5 15t38 12t49.5 8t69 3q92 0 139.5 -34.5t47.5 -105.5q0 -33 -13 -65t-28 -48h81v-97h-468z" />
<glyph unicode="&#x20b6;" d="M24 379h82v342q44 8 90.5 12.5t98.5 4.5q54 0 104 -9t87.5 -34t60 -69t22.5 -112q0 -64 -22 -107.5t-58.5 -71t-83 -39.5t-97.5 -12h-71v-60h167v-95h-167v-129h-131v129h-82v95h82v60h-82v95zM237 382h54q28 0 53.5 6.5t44.5 21t30 39t11 59.5q0 63 -34.5 89.5 t-88.5 26.5q-21 0 -39.5 -1.5t-30.5 -3.5v-237z" />
<glyph unicode="&#x20b7;" d="M24 379h82v342q44 8 90.5 12.5t98.5 4.5q54 0 104 -9t87.5 -34t60 -69t22.5 -112q0 -64 -22 -107.5t-58.5 -71t-83 -39.5t-97.5 -12h-71v-60h167v-95h-167v-129h-131v129h-82v95h82v60h-82v95zM237 382h54q28 0 53.5 6.5t44.5 21t30 39t11 59.5q0 63 -34.5 89.5 t-88.5 26.5q-21 0 -39.5 -1.5t-30.5 -3.5v-237z" />
<glyph unicode="&#x20b9;" d="M24 379h82v342q44 8 90.5 12.5t98.5 4.5q54 0 104 -9t87.5 -34t60 -69t22.5 -112q0 -64 -22 -107.5t-58.5 -71t-83 -39.5t-97.5 -12h-71v-60h167v-95h-167v-129h-131v129h-82v95h82v60h-82v95zM237 382h54q28 0 53.5 6.5t44.5 21t30 39t11 59.5q0 63 -34.5 89.5 t-88.5 26.5q-21 0 -39.5 -1.5t-30.5 -3.5v-237z" />
<glyph unicode="&#x20ba;" d="M24 379h82v342q44 8 90.5 12.5t98.5 4.5q54 0 104 -9t87.5 -34t60 -69t22.5 -112q0 -64 -22 -107.5t-58.5 -71t-83 -39.5t-97.5 -12h-71v-60h167v-95h-167v-129h-131v129h-82v95h82v60h-82v95zM237 382h54q28 0 53.5 6.5t44.5 21t30 39t11 59.5q0 63 -34.5 89.5 t-88.5 26.5q-21 0 -39.5 -1.5t-30.5 -3.5v-237z" />
<glyph unicode="&#x20bb;" d="M24 379h82v342q44 8 90.5 12.5t98.5 4.5q54 0 104 -9t87.5 -34t60 -69t22.5 -112q0 -64 -22 -107.5t-58.5 -71t-83 -39.5t-97.5 -12h-71v-60h167v-95h-167v-129h-131v129h-82v95h82v60h-82v95zM237 382h54q28 0 53.5 6.5t44.5 21t30 39t11 59.5q0 63 -34.5 89.5 t-88.5 26.5q-21 0 -39.5 -1.5t-30.5 -3.5v-237z" />
<glyph unicode="&#x20bc;" d="M24 379h82v342q44 8 90.5 12.5t98.5 4.5q54 0 104 -9t87.5 -34t60 -69t22.5 -112q0 -64 -22 -107.5t-58.5 -71t-83 -39.5t-97.5 -12h-71v-60h167v-95h-167v-129h-131v129h-82v95h82v60h-82v95zM237 382h54q28 0 53.5 6.5t44.5 21t30 39t11 59.5q0 63 -34.5 89.5 t-88.5 26.5q-21 0 -39.5 -1.5t-30.5 -3.5v-237z" />
<glyph unicode="&#x20bd;" d="M24 379h82v342q44 8 90.5 12.5t98.5 4.5q54 0 104 -9t87.5 -34t60 -69t22.5 -112q0 -64 -22 -107.5t-58.5 -71t-83 -39.5t-97.5 -12h-71v-60h167v-95h-167v-129h-131v129h-82v95h82v60h-82v95zM237 382h54q28 0 53.5 6.5t44.5 21t30 39t11 59.5q0 63 -34.5 89.5 t-88.5 26.5q-21 0 -39.5 -1.5t-30.5 -3.5v-237z" />
<glyph unicode="&#x20be;" d="M24 379h82v342q44 8 90.5 12.5t98.5 4.5q54 0 104 -9t87.5 -34t60 -69t22.5 -112q0 -64 -22 -107.5t-58.5 -71t-83 -39.5t-97.5 -12h-71v-60h167v-95h-167v-129h-131v129h-82v95h82v60h-82v95zM237 382h54q28 0 53.5 6.5t44.5 21t30 39t11 59.5q0 63 -34.5 89.5 t-88.5 26.5q-21 0 -39.5 -1.5t-30.5 -3.5v-237z" />
<glyph unicode="&#x20bf;" d="M24 379h82v342q44 8 90.5 12.5t98.5 4.5q54 0 104 -9t87.5 -34t60 -69t22.5 -112q0 -64 -22 -107.5t-58.5 -71t-83 -39.5t-97.5 -12h-71v-60h167v-95h-167v-129h-131v129h-82v95h82v60h-82v95zM237 382h54q28 0 53.5 6.5t44.5 21t30 39t11 59.5q0 63 -34.5 89.5 t-88.5 26.5q-21 0 -39.5 -1.5t-30.5 -3.5v-237z" />
<glyph unicode="&#x20c0;" d="M24 379h82v342q44 8 90.5 12.5t98.5 4.5q54 0 104 -9t87.5 -34t60 -69t22.5 -112q0 -64 -22 -107.5t-58.5 -71t-83 -39.5t-97.5 -12h-71v-60h167v-95h-167v-129h-131v129h-82v95h82v60h-82v95zM237 382h54q28 0 53.5 6.5t44.5 21t30 39t11 59.5q0 63 -34.5 89.5 t-88.5 26.5q-21 0 -39.5 -1.5t-30.5 -3.5v-237z" />
<glyph unicode="&#x20c1;" d="M24 379h82v342q44 8 90.5 12.5t98.5 4.5q54 0 104 -9t87.5 -34t60 -69t22.5 -112q0 -64 -22 -107.5t-58.5 -71t-83 -39.5t-97.5 -12h-71v-60h167v-95h-167v-129h-131v129h-82v95h82v60h-82v95zM237 382h54q28 0 53.5 6.5t44.5 21t30 39t11 59.5q0 63 -34.5 89.5 t-88.5 26.5q-21 0 -39.5 -1.5t-30.5 -3.5v-237z" />
<glyph unicode="&#x20c2;" d="M24 379h82v342q44 8 90.5 12.5t98.5 4.5q54 0 104 -9t87.5 -34t60 -69t22.5 -112q0 -64 -22 -107.5t-58.5 -71t-83 -39.5t-97.5 -12h-71v-60h167v-95h-167v-129h-131v129h-82v95h82v60h-82v95zM237 382h54q28 0 53.5 6.5t44.5 21t30 39t11 59.5q0 63 -34.5 89.5 t-88.5 26.5q-21 0 -39.5 -1.5t-30.5 -3.5v-237z" />
<glyph unicode="&#x20c3;" d="M24 379h82v342q44 8 90.5 12.5t98.5 4.5q54 0 104 -9t87.5 -34t60 -69t22.5 -112q0 -64 -22 -107.5t-58.5 -71t-83 -39.5t-97.5 -12h-71v-60h167v-95h-167v-129h-131v129h-82v95h82v60h-82v95zM237 382h54q28 0 53.5 6.5t44.5 21t30 39t11 59.5q0 63 -34.5 89.5 t-88.5 26.5q-21 0 -39.5 -1.5t-30.5 -3.5v-237z" />
<glyph unicode="&#x20c4;" d="M24 379h82v342q44 8 90.5 12.5t98.5 4.5q54 0 104 -9t87.5 -34t60 -69t22.5 -112q0 -64 -22 -107.5t-58.5 -71t-83 -39.5t-97.5 -12h-71v-60h167v-95h-167v-129h-131v129h-82v95h82v60h-82v95zM237 382h54q28 0 53.5 6.5t44.5 21t30 39t11 59.5q0 63 -34.5 89.5 t-88.5 26.5q-21 0 -39.5 -1.5t-30.5 -3.5v-237z" />
<glyph unicode="&#x20c5;" d="M24 379h82v342q44 8 90.5 12.5t98.5 4.5q54 0 104 -9t87.5 -34t60 -69t22.5 -112q0 -64 -22 -107.5t-58.5 -71t-83 -39.5t-97.5 -12h-71v-60h167v-95h-167v-129h-131v129h-82v95h82v60h-82v95zM237 382h54q28 0 53.5 6.5t44.5 21t30 39t11 59.5q0 63 -34.5 89.5 t-88.5 26.5q-21 0 -39.5 -1.5t-30.5 -3.5v-237z" />
<glyph unicode="&#x20c6;" d="M24 379h82v342q44 8 90.5 12.5t98.5 4.5q54 0 104 -9t87.5 -34t60 -69t22.5 -112q0 -64 -22 -107.5t-58.5 -71t-83 -39.5t-97.5 -12h-71v-60h167v-95h-167v-129h-131v129h-82v95h82v60h-82v95zM237 382h54q28 0 53.5 6.5t44.5 21t30 39t11 59.5q0 63 -34.5 89.5 t-88.5 26.5q-21 0 -39.5 -1.5t-30.5 -3.5v-237z" />
<glyph unicode="&#x20c7;" d="M24 379h82v342q44 8 90.5 12.5t98.5 4.5q54 0 104 -9t87.5 -34t60 -69t22.5 -112q0 -64 -22 -107.5t-58.5 -71t-83 -39.5t-97.5 -12h-71v-60h167v-95h-167v-129h-131v129h-82v95h82v60h-82v95zM237 382h54q28 0 53.5 6.5t44.5 21t30 39t11 59.5q0 63 -34.5 89.5 t-88.5 26.5q-21 0 -39.5 -1.5t-30.5 -3.5v-237z" />
<glyph unicode="&#x20c8;" d="M24 379h82v342q44 8 90.5 12.5t98.5 4.5q54 0 104 -9t87.5 -34t60 -69t22.5 -112q0 -64 -22 -107.5t-58.5 -71t-83 -39.5t-97.5 -12h-71v-60h167v-95h-167v-129h-131v129h-82v95h82v60h-82v95zM237 382h54q28 0 53.5 6.5t44.5 21t30 39t11 59.5q0 63 -34.5 89.5 t-88.5 26.5q-21 0 -39.5 -1.5t-30.5 -3.5v-237z" />
<glyph unicode="&#x20c9;" d="M24 379h82v342q44 8 90.5 12.5t98.5 4.5q54 0 104 -9t87.5 -34t60 -69t22.5 -112q0 -64 -22 -107.5t-58.5 -71t-83 -39.5t-97.5 -12h-71v-60h167v-95h-167v-129h-131v129h-82v95h82v60h-82v95zM237 382h54q28 0 53.5 6.5t44.5 21t30 39t11 59.5q0 63 -34.5 89.5 t-88.5 26.5q-21 0 -39.5 -1.5t-30.5 -3.5v-237z" />
<glyph unicode="&#x20ca;" d="M24 379h82v342q44 8 90.5 12.5t98.5 4.5q54 0 104 -9t87.5 -34t60 -69t22.5 -112q0 -64 -22 -107.5t-58.5 -71t-83 -39.5t-97.5 -12h-71v-60h167v-95h-167v-129h-131v129h-82v95h82v60h-82v95zM237 382h54q28 0 53.5 6.5t44.5 21t30 39t11 59.5q0 63 -34.5 89.5 t-88.5 26.5q-21 0 -39.5 -1.5t-30.5 -3.5v-237z" />
<glyph unicode="&#x20cb;" d="M24 379h82v342q44 8 90.5 12.5t98.5 4.5q54 0 104 -9t87.5 -34t60 -69t22.5 -112q0 -64 -22 -107.5t-58.5 -71t-83 -39.5t-97.5 -12h-71v-60h167v-95h-167v-129h-131v129h-82v95h82v60h-82v95zM237 382h54q28 0 53.5 6.5t44.5 21t30 39t11 59.5q0 63 -34.5 89.5 t-88.5 26.5q-21 0 -39.5 -1.5t-30.5 -3.5v-237z" />
<glyph unicode="&#x20cc;" d="M24 379h82v342q44 8 90.5 12.5t98.5 4.5q54 0 104 -9t87.5 -34t60 -69t22.5 -112q0 -64 -22 -107.5t-58.5 -71t-83 -39.5t-97.5 -12h-71v-60h167v-95h-167v-129h-131v129h-82v95h82v60h-82v95zM237 382h54q28 0 53.5 6.5t44.5 21t30 39t11 59.5q0 63 -34.5 89.5 t-88.5 26.5q-21 0 -39.5 -1.5t-30.5 -3.5v-237z" />
<glyph unicode="&#x20cd;" d="M24 379h82v342q44 8 90.5 12.5t98.5 4.5q54 0 104 -9t87.5 -34t60 -69t22.5 -112q0 -64 -22 -107.5t-58.5 -71t-83 -39.5t-97.5 -12h-71v-60h167v-95h-167v-129h-131v129h-82v95h82v60h-82v95zM237 382h54q28 0 53.5 6.5t44.5 21t30 39t11 59.5q0 63 -34.5 89.5 t-88.5 26.5q-21 0 -39.5 -1.5t-30.5 -3.5v-237z" />
<glyph unicode="&#x20ce;" d="M24 379h82v342q44 8 90.5 12.5t98.5 4.5q54 0 104 -9t87.5 -34t60 -69t22.5 -112q0 -64 -22 -107.5t-58.5 -71t-83 -39.5t-97.5 -12h-71v-60h167v-95h-167v-129h-131v129h-82v95h82v60h-82v95zM237 382h54q28 0 53.5 6.5t44.5 21t30 39t11 59.5q0 63 -34.5 89.5 t-88.5 26.5q-21 0 -39.5 -1.5t-30.5 -3.5v-237z" />
<glyph unicode="&#x20cf;" d="M24 379h82v342q44 8 90.5 12.5t98.5 4.5q54 0 104 -9t87.5 -34t60 -69t22.5 -112q0 -64 -22 -107.5t-58.5 -71t-83 -39.5t-97.5 -12h-71v-60h167v-95h-167v-129h-131v129h-82v95h82v60h-82v95zM237 382h54q28 0 53.5 6.5t44.5 21t30 39t11 59.5q0 63 -34.5 89.5 t-88.5 26.5q-21 0 -39.5 -1.5t-30.5 -3.5v-237z" />
<glyph unicode="&#x2122;" horiz-adv-x="985" d="M411 614h-123v-260h-135v260h-123v114h381v-114zM832 503l18 107h-7l-37 -88l-71 -122h-81l-71 119l-40 91h-5l24 -106v-150h-116v374h135l95 -156l25 -66h1l26 68l87 154h135v-374h-118v149z" />
<glyph unicode="&#x2212;" horiz-adv-x="548" d="M45 410h459v-117h-459v117z" />
<glyph unicode="&#x25fc;" horiz-adv-x="520" d="M0 520h520v-520h-520v520z" />
<glyph unicode="&#x2c67;" horiz-adv-x="723" d="M471 305h-266v-305h-143v728h143v-296h266v296h143v-601h91v-257h-100l-15 130h-119v305z" />
<glyph unicode="&#xf406;" horiz-adv-x="521" d="M116 910q21 -27 60.5 -41.5t88.5 -14.5q50 0 86 15.5t57 40.5l51 -33q-13 -30 -33.5 -52t-46.5 -36.5t-56 -22t-59 -7.5q-28 0 -57.5 6.5t-56.5 19.5t-50 34t-38 53z" />
<glyph unicode="&#xf408;" horiz-adv-x="495" d="M201 905h100l132 -97v-40h-103l-60 42l-20 36l-22 -35l-65 -43h-101v41z" />
<glyph unicode="&#xf40b;" horiz-adv-x="306" d="M62 831q0 26 22.5 44.5t67.5 18.5t68.5 -18.5t23.5 -44.5q0 -27 -23.5 -46t-68.5 -19t-67.5 19t-22.5 46z" />
<glyph unicode="&#xf40c;" horiz-adv-x="391" d="M62 803q0 19 6.5 36t21.5 30t40.5 20t65.5 7q72 0 102.5 -24.5t30.5 -68.5q0 -19 -7 -35.5t-22.5 -28.5t-41 -19.5t-62.5 -7.5q-74 0 -104 25.5t-30 65.5zM150 803q0 -32 46 -32q26 0 36 8t10 24q0 18 -11 26t-35 8q-46 0 -46 -34z" />
<glyph unicode="&#xf40d;" horiz-adv-x="509" d="M62 832q34 36 64.5 49.5t60.5 13.5q23 0 46 -5.5t44 -12.5t42 -12.5t40 -5.5q16 0 32 5t30 20l26 -70q-29 -27 -56.5 -38t-53.5 -11q-24 0 -46 6t-43 13t-42 13t-41 6q-19 0 -38.5 -8t-39.5 -29z" />
<glyph unicode="&#xf662;" horiz-adv-x="428" d="M176 566l11 48l-32 -34l-61 -40l-51 80l164 115h88v-444h-119v275z" />
<glyph unicode="&#xf6c3;" horiz-adv-x="277" d="M62 -109q0 30 20.5 47.5t50.5 17.5q37 0 59.5 -24t22.5 -67q0 -35 -11.5 -61t-28 -44t-35 -29t-32.5 -15l-35 56q14 8 28.5 21t17.5 34q-21 -1 -39 15.5t-18 48.5z" />
<glyph unicode="&#xf6c9;" horiz-adv-x="398" d="M171 905h165v-31l-166 -92h-108z" />
<glyph unicode="&#xf6ca;" horiz-adv-x="492" d="M292 766h-98l-132 98v41h110l55 -47l19 -31l22 30l59 48h104v-42z" />
<glyph unicode="&#xf6cb;" horiz-adv-x="504" d="M62 830q0 27 19 43.5t60 16.5t59.5 -16.5t18.5 -43.5t-18.5 -43t-59.5 -16t-60 16t-19 43zM285 830q0 27 18.5 43.5t59.5 16.5q42 0 60.5 -16.5t18.5 -43.5t-18.5 -43t-60.5 -16q-41 0 -59.5 16t-18.5 43z" />
<glyph unicode="&#xf6ce;" horiz-adv-x="398" d="M336 782h-109l-165 92v31h166z" />
<glyph unicode="&#xf6cf;" horiz-adv-x="537" d="M124 884h139v-17l-104 -96h-97zM330 884h145v-17l-148 -96h-98z" />
<glyph unicode="&#xf6d0;" horiz-adv-x="481" d="M62 890h357v-92h-357v92z" />
<glyph unicode="&#xf6d1;" horiz-adv-x="523" d="M191 909q5 -33 25 -47.5t52 -14.5q70 0 77 61l116 -18q-12 -65 -60 -95.5t-134 -30.5q-42 0 -77.5 6.5t-62 20.5t-43.5 38t-22 59z" />
<glyph unicode="&#xf6d4;" horiz-adv-x="480" d="M177 732q7 -40 24 -57t44 -17q30 0 47 17t23 56l103 -26q-12 -67 -61 -100t-115 -33q-32 0 -62 7.5t-54 23.5t-40.5 41t-23.5 61z" />
<glyph horiz-adv-x="195" d="M367 728q-2 -30 -12.5 -63t-24.5 -62.5t-29.5 -53t-28.5 -33.5l-60 32q18 38 27.5 85t9.5 95h118z" />
<glyph horiz-adv-x="272" d="M69 728h135v-728h-135v728z" />
<glyph horiz-adv-x="191" d="M356 743l76 -69l-599 -689l-76 72z" />
</font>
</defs>
</svg>
